{"glyphs":{"0":{"ha":751,"x_min":76,"x_max":675,"o":"m 76 294 l 76 713 q 158 942 76 869 q 375 1015 239 1015 q 593 942 511 1015 q 675 713 675 869 l 675 294 q 593 65 675 138 q 375 -8 511 -8 q 158 65 239 -8 q 76 294 76 138 m 193 294 q 375 97 193 97 q 510 147 463 97 q 558 294 558 196 l 558 713 q 510 860 558 811 q 375 910 463 910 q 193 713 193 910 l 193 294 m 336 463 q 328 471 336 463 q 321 503 321 479 q 336 542 321 526 q 376 557 351 557 q 415 542 400 557 q 431 503 431 526 q 415 463 431 479 q 376 447 400 447 q 336 463 351 447 z "},"1":{"ha":344,"x_min":13,"x_max":253,"o":"m 13 799 q 38 847 13 828 l 165 999 q 201 1017 183 1017 q 237 1006 221 1017 q 253 975 253 994 l 253 42 q 235 11 253 22 q 194 0 218 0 q 153 11 171 0 q 136 42 136 22 l 136 842 l 85 765 q 56 750 71 750 q 25 765 38 750 q 13 799 13 779 z "},"2":{"ha":672,"x_min":44,"x_max":632,"o":"m 44 42 l 44 176 q 92 299 44 239 q 208 408 140 360 l 343 508 q 459 617 411 557 q 507 740 507 678 q 463 857 507 807 q 338 907 419 907 q 224 868 268 907 q 181 756 181 829 q 164 724 181 738 q 119 710 147 710 q 67 778 67 710 q 145 949 67 882 q 338 1015 224 1015 q 542 938 460 1015 q 624 744 624 861 q 590 611 624 675 q 505 503 556 547 q 394 414 454 458 l 283 335 q 199 258 233 300 q 165 176 165 217 l 165 106 l 592 106 q 620 90 608 106 q 632 53 632 75 q 620 16 632 32 q 592 0 608 0 l 97 0 q 62 12 79 0 q 44 42 44 24 z "},"3":{"ha":690,"x_min":36,"x_max":635,"o":"m 36 228 q 48 271 36 260 q 90 282 60 282 q 137 271 124 282 q 150 236 150 260 q 195 140 150 183 q 332 97 240 97 q 518 289 518 97 l 518 315 q 332 485 518 485 q 292 533 292 485 q 332 582 292 582 q 453 618 413 582 q 493 749 493 654 q 338 911 493 911 q 212 872 249 911 q 175 778 175 832 q 119 726 175 726 q 70 739 82 726 q 58 786 58 751 q 72 858 58 821 q 114 931 85 894 q 202 992 143 968 q 340 1015 261 1015 q 606 769 606 1015 q 575 621 606 682 q 493 536 544 560 q 635 315 635 479 l 635 289 q 551 64 635 136 q 332 -8 468 -8 q 113 65 189 -8 q 36 228 36 138 z "},"4":{"ha":639,"x_min":7,"x_max":629,"o":"m 7 279 q 14 306 7 294 l 357 982 q 410 1015 375 1015 q 448 1002 429 1015 q 467 969 467 989 q 461 950 467 960 l 157 344 l 397 344 l 397 578 q 415 608 397 597 q 456 618 432 618 q 497 608 479 618 q 514 578 514 597 l 514 344 l 588 344 q 618 328 607 344 q 629 289 629 311 q 617 251 629 268 q 588 233 604 233 l 514 233 l 514 42 q 497 11 514 22 q 456 0 479 0 q 415 11 432 0 q 397 42 397 22 l 397 233 l 50 233 q 19 246 31 233 q 7 279 7 258 z "},"5":{"ha":674,"x_min":35,"x_max":633,"o":"m 35 232 q 93 288 35 288 q 151 240 151 288 q 203 135 151 174 q 333 97 254 97 q 469 146 421 97 q 517 292 517 194 l 517 318 q 469 460 517 413 q 335 508 421 508 l 138 508 q 83 554 83 508 q 86 585 83 568 l 115 974 q 146 1015 118 1015 l 546 1015 q 574 999 564 1015 q 583 963 583 983 q 574 926 583 942 q 546 910 564 910 l 217 910 l 196 606 l 335 606 q 552 536 471 606 q 633 318 633 467 l 633 292 q 551 65 633 138 q 335 -8 469 -8 q 115 62 196 -8 q 35 232 35 132 z "},"6":{"ha":731,"x_min":76,"x_max":675,"o":"m 76 294 l 76 713 q 159 942 76 869 q 381 1015 242 1015 q 597 943 519 1015 q 675 774 675 871 q 621 722 675 722 q 560 768 560 722 q 508 871 560 832 q 378 910 456 910 q 193 713 193 910 l 193 518 q 396 604 260 604 q 675 324 675 604 l 675 294 q 594 65 675 138 q 376 -8 513 -8 q 158 65 240 -8 q 76 294 76 138 m 193 289 q 376 92 193 92 q 558 289 558 92 l 558 318 q 376 507 558 507 q 193 331 193 507 l 193 289 z "},"7":{"ha":653,"x_min":33,"x_max":632,"o":"m 33 764 l 33 974 q 50 1002 33 989 q 86 1015 67 1015 l 579 1015 q 615 1002 597 1015 q 632 974 632 989 l 632 844 q 613 785 632 821 l 218 17 q 181 -3 208 -3 q 131 13 153 -3 q 110 53 110 29 q 115 76 110 65 l 515 831 l 515 910 l 150 910 l 150 764 q 133 734 150 746 q 92 722 115 722 q 51 734 68 722 q 33 764 33 746 z "},"8":{"ha":710,"x_min":56,"x_max":654,"o":"m 56 278 l 56 294 q 211 554 56 494 q 85 771 85 604 q 356 1015 85 1015 q 625 771 625 1015 q 500 554 625 606 q 654 294 654 493 l 654 278 q 573 61 654 131 q 356 -8 492 -8 q 138 61 219 -8 q 56 278 56 131 m 172 289 q 356 92 172 92 q 490 141 443 92 q 538 289 538 190 l 538 311 q 490 456 538 408 q 356 503 442 503 q 172 311 172 503 l 172 289 m 199 760 q 356 603 199 603 q 513 760 513 603 q 356 915 513 915 q 199 760 199 915 z "},"9":{"ha":731,"x_min":56,"x_max":654,"o":"m 56 233 q 111 285 56 285 q 172 239 172 285 q 224 136 172 175 q 353 97 276 97 q 538 294 538 97 l 538 489 q 335 403 472 403 q 56 683 56 403 l 56 713 q 137 942 56 869 q 354 1015 218 1015 q 572 942 490 1015 q 654 713 654 869 l 654 294 q 572 65 654 138 q 350 -8 489 -8 q 133 64 211 -8 q 56 233 56 136 m 172 689 q 356 500 172 500 q 538 676 538 500 l 538 718 q 354 915 538 915 q 172 718 172 915 l 172 689 z "},"\u0000":{"ha":0,"x_min":0,"x_max":0,"o":""},"\r":{"ha":0,"x_min":0,"x_max":0,"o":""}," ":{"ha":278,"x_min":0,"x_max":0,"o":""},"!":{"ha":290,"x_min":72,"x_max":217,"o":"m 72 64 q 94 116 72 94 q 146 138 115 138 q 196 116 175 138 q 217 64 217 94 q 196 13 217 35 q 146 -8 175 -8 q 94 13 115 -8 q 72 64 72 35 m 82 969 q 99 1013 82 997 q 144 1029 117 1029 q 189 1013 171 1029 q 207 969 207 997 q 199 626 207 863 q 190 281 190 389 q 175 253 190 264 q 144 243 160 243 q 112 253 125 243 q 99 281 99 263 q 90 626 99 389 q 82 969 82 863 z "},"\"":{"ha":388,"x_min":49,"x_max":339,"o":"m 49 1032 q 64 1057 49 1047 q 99 1067 79 1067 q 134 1057 118 1067 q 150 1032 150 1047 l 136 831 q 126 805 136 815 q 99 794 117 794 q 63 831 63 794 l 49 1032 m 238 1032 q 253 1057 238 1047 q 288 1067 268 1067 q 323 1057 307 1067 q 339 1032 339 1047 l 325 831 q 315 805 325 815 q 288 794 306 794 q 251 831 251 794 l 238 1032 z "},"#":{"ha":846,"x_min":33,"x_max":813,"o":"m 33 382 q 43 415 33 401 q 68 428 53 428 l 215 428 l 249 635 l 122 635 q 83 679 83 635 q 93 711 83 699 q 117 724 103 724 l 265 724 l 306 964 q 351 990 310 990 q 390 978 375 990 q 406 942 406 965 l 369 724 l 540 724 l 579 964 q 625 990 583 990 q 665 978 649 990 q 681 942 681 965 l 644 724 l 772 724 q 800 711 788 724 q 813 679 813 699 q 801 648 813 661 q 776 635 790 635 l 629 635 l 594 428 l 722 428 q 750 415 738 428 q 763 382 763 401 q 751 351 763 364 q 726 339 740 339 l 578 339 l 536 76 q 519 55 533 64 q 489 46 504 46 q 449 58 465 46 q 432 93 432 71 l 472 339 l 304 339 l 261 78 q 242 55 258 64 q 215 46 226 46 q 176 58 192 46 q 160 93 160 71 l 197 339 l 72 339 q 33 382 33 339 m 321 428 l 489 428 l 522 635 l 354 635 l 321 428 z "},"$":{"ha":703,"x_min":49,"x_max":647,"o":"m 49 160 q 65 203 49 182 q 100 224 81 224 q 131 207 111 224 q 170 170 150 190 q 233 133 190 150 q 331 113 276 115 l 331 482 l 256 510 q 188 543 229 519 q 127 591 147 567 q 90 656 107 615 q 74 749 74 697 q 96 859 74 811 q 156 935 118 907 q 238 977 194 963 q 331 996 281 992 l 331 1038 q 341 1058 331 1049 q 367 1067 351 1067 q 392 1058 381 1067 q 403 1038 403 1049 l 403 999 q 554 970 486 994 q 622 907 622 946 q 608 865 622 888 q 572 843 594 843 q 514 867 565 843 q 403 894 463 892 l 403 578 q 492 540 457 558 q 567 488 528 521 q 627 405 607 456 q 647 286 647 354 q 581 93 647 164 q 403 7 515 22 l 403 -43 q 392 -63 403 -54 q 367 -72 381 -72 q 341 -63 351 -72 q 331 -43 331 -54 l 331 3 q 130 57 211 4 q 49 160 49 110 m 185 760 q 222 662 185 694 q 336 601 260 629 l 336 893 q 185 760 185 878 m 397 115 q 536 275 536 138 q 500 388 536 347 q 397 456 464 428 l 397 115 z "},"%":{"ha":1063,"x_min":50,"x_max":1013,"o":"m 50 643 l 50 851 q 99 976 50 936 q 229 1015 147 1015 q 359 976 310 1015 q 408 851 408 936 l 408 643 q 359 519 408 558 q 229 479 310 479 q 99 519 147 479 q 50 643 50 558 m 133 643 q 229 553 133 553 q 325 643 325 553 l 325 851 q 229 942 325 942 q 133 851 133 942 l 133 643 m 232 0 q 236 18 232 10 l 757 1049 q 792 1069 767 1069 q 824 1056 810 1069 q 839 1024 839 1043 q 835 1004 839 1014 l 315 -19 q 276 -42 306 -42 q 245 -29 258 -42 q 232 0 232 -17 m 654 160 l 654 368 q 703 492 654 453 q 833 532 751 532 q 963 492 914 532 q 1013 368 1013 453 l 1013 160 q 963 35 1013 75 q 833 -4 914 -4 q 703 35 751 -4 q 654 160 654 75 m 738 160 q 833 69 738 69 q 929 160 929 69 l 929 368 q 833 458 929 458 q 738 368 738 458 l 738 160 z "},"&":{"ha":858,"x_min":42,"x_max":838,"o":"m 42 285 q 94 452 42 381 q 226 563 147 524 q 147 676 175 622 q 118 799 118 731 q 193 974 118 910 q 381 1039 268 1039 q 553 990 486 1039 q 619 897 619 940 q 603 859 619 875 q 565 843 588 843 q 535 859 551 843 q 504 893 519 875 q 457 927 489 911 q 383 943 425 943 q 274 902 315 943 q 233 792 233 861 q 257 702 233 749 q 301 631 281 656 q 367 557 322 606 l 632 268 q 675 503 672 357 q 688 535 676 525 q 726 544 699 544 q 765 531 754 544 q 776 486 776 517 q 704 193 776 325 l 828 61 q 838 38 838 50 q 820 4 838 19 q 783 -11 803 -11 q 753 4 768 -11 l 647 115 q 368 -14 542 -14 q 131 73 219 -14 q 42 285 42 160 m 160 294 q 219 149 160 208 q 383 90 279 90 q 576 189 511 90 l 292 492 q 230 448 254 469 q 183 385 206 426 q 160 294 160 344 z "},"'":{"ha":199,"x_min":49,"x_max":150,"o":"m 49 1032 q 64 1057 49 1047 q 99 1067 79 1067 q 134 1057 118 1067 q 150 1032 150 1047 l 136 831 q 126 805 136 815 q 99 794 117 794 q 63 831 63 794 l 49 1032 z "},"(":{"ha":431,"x_min":79,"x_max":406,"o":"m 79 215 l 79 804 q 160 990 79 914 q 349 1067 240 1067 q 406 1015 406 1067 q 394 977 406 992 q 365 963 383 963 q 242 915 289 963 q 196 804 196 867 l 196 215 q 246 108 196 139 q 365 76 296 76 q 406 24 406 76 q 346 -28 406 -28 q 156 35 233 -28 q 79 215 79 99 z "},")":{"ha":431,"x_min":25,"x_max":351,"o":"m 25 24 q 65 76 25 76 q 185 108 135 76 q 235 215 235 139 l 235 804 q 188 915 235 867 q 65 963 142 963 q 36 977 47 963 q 25 1015 25 992 q 82 1067 25 1067 q 271 990 190 1067 q 351 804 351 914 l 351 215 q 274 35 351 99 q 83 -28 197 -28 q 25 24 25 -28 z "},"*":{"ha":608,"x_min":39,"x_max":569,"o":"m 39 814 q 52 847 39 832 q 85 861 65 861 q 97 860 92 861 l 267 801 l 260 975 q 304 1015 263 1015 q 350 975 347 1015 l 343 799 l 513 860 q 526 861 517 861 q 556 845 543 861 q 569 811 569 829 q 540 772 569 781 l 372 726 l 482 578 q 489 554 489 568 q 474 522 489 535 q 439 508 458 508 q 407 525 418 508 l 304 676 l 201 524 q 172 508 193 508 q 138 521 156 508 q 121 551 121 533 q 131 579 121 568 l 238 722 l 68 772 q 39 814 39 781 z "},"+":{"ha":599,"x_min":36,"x_max":563,"o":"m 36 333 q 47 369 36 354 q 76 383 58 383 l 249 383 l 249 556 q 264 585 249 572 q 300 597 279 597 q 335 585 321 597 q 349 556 349 572 l 349 383 l 521 383 q 550 369 538 383 q 563 333 563 354 q 550 299 563 313 q 521 285 538 285 l 349 285 l 349 111 q 335 82 349 93 q 300 71 322 71 q 263 82 278 71 q 249 111 249 93 l 249 285 l 76 285 q 47 298 58 285 q 36 333 36 311 z "},",":{"ha":244,"x_min":50,"x_max":193,"o":"m 50 64 q 70 116 50 94 q 121 138 90 138 q 172 117 150 138 q 193 64 193 96 q 133 -104 193 39 q 103 -124 125 -124 q 75 -115 88 -124 q 63 -90 63 -106 q 65 -75 63 -81 l 94 -3 q 50 64 50 15 z "},"-":{"ha":574,"x_min":65,"x_max":508,"o":"m 65 333 q 76 369 65 354 q 106 383 88 383 l 467 383 q 496 369 483 383 q 508 333 508 354 q 496 299 508 313 q 467 285 483 285 l 106 285 q 65 333 65 285 z "},".":{"ha":244,"x_min":51,"x_max":194,"o":"m 51 64 q 72 116 51 94 q 124 138 93 138 q 174 116 153 138 q 194 64 194 94 q 174 13 194 35 q 124 -8 153 -8 q 72 13 93 -8 q 51 64 51 35 z "},"/":{"ha":660,"x_min":26,"x_max":633,"o":"m 26 0 q 31 18 26 13 l 551 1049 q 585 1069 561 1069 q 618 1056 603 1069 q 633 1024 633 1043 q 628 1004 633 1014 l 110 -19 q 71 -42 100 -42 q 39 -29 51 -42 q 26 0 26 -17 z "},":":{"ha":290,"x_min":74,"x_max":217,"o":"m 74 64 q 94 116 74 94 q 146 138 115 138 q 196 116 175 138 q 217 64 217 94 q 196 13 217 35 q 146 -8 175 -8 q 94 13 115 -8 q 74 64 74 35 m 74 513 q 94 565 74 543 q 146 586 115 586 q 196 565 175 586 q 217 513 217 543 q 196 462 217 483 q 146 440 175 440 q 94 462 115 440 q 74 513 74 483 z "},";":{"ha":299,"x_min":76,"x_max":224,"o":"m 76 64 q 97 116 76 94 q 147 138 117 138 q 198 117 176 138 q 219 64 219 96 q 160 -104 219 39 q 129 -124 151 -124 q 101 -115 114 -124 q 89 -90 89 -106 q 92 -75 89 -81 l 121 -3 q 76 64 76 15 m 81 513 q 101 565 81 543 q 153 586 122 586 q 203 565 182 586 q 224 513 224 543 q 203 462 224 483 q 153 440 182 440 q 101 462 122 440 q 81 513 81 483 z "},"<":{"ha":560,"x_min":31,"x_max":499,"o":"m 56 339 q 31 385 31 356 q 56 432 31 414 l 426 675 q 444 681 433 681 q 481 664 464 681 q 499 625 499 647 q 481 592 499 601 l 168 385 l 481 179 q 499 144 499 167 q 481 106 499 122 q 444 90 464 90 q 426 96 433 90 l 56 339 z "},"=":{"ha":608,"x_min":88,"x_max":522,"o":"m 88 222 q 99 258 88 243 q 128 272 110 272 l 481 272 q 510 258 497 272 q 522 222 522 243 q 510 186 522 200 q 481 172 497 172 l 128 172 q 88 222 88 172 m 88 504 q 99 540 88 525 q 128 554 110 554 l 481 554 q 510 540 497 554 q 522 504 522 525 q 510 468 522 482 q 481 454 497 454 l 128 454 q 88 504 88 454 z "},">":{"ha":560,"x_min":61,"x_max":529,"o":"m 78 106 q 70 114 78 106 q 61 144 61 122 q 79 179 61 167 l 392 385 l 79 592 q 61 625 61 601 q 78 664 61 647 q 115 681 96 681 q 133 675 126 681 l 504 432 q 529 385 529 414 q 504 339 529 356 l 133 96 q 115 90 126 90 q 78 106 96 90 z "},"?":{"ha":567,"x_min":31,"x_max":525,"o":"m 31 907 q 96 989 31 949 q 256 1029 161 1029 q 453 960 382 1029 q 525 786 525 892 q 502 676 525 729 q 456 595 479 622 q 392 530 432 568 q 344 483 351 492 q 301 407 310 449 q 292 281 292 365 q 244 243 292 243 q 200 294 200 243 q 267 529 200 463 q 303 563 276 539 q 348 604 331 586 q 385 649 365 622 q 415 707 404 675 q 425 776 425 739 q 379 895 425 853 q 250 938 333 938 q 176 926 207 938 q 131 899 144 914 q 103 873 118 885 q 75 861 89 861 q 44 874 58 861 q 31 907 31 886 m 172 64 q 194 116 172 94 q 244 138 215 138 q 296 116 275 138 q 317 64 317 94 q 296 13 317 35 q 244 -8 275 -8 q 194 13 215 -8 q 172 64 172 35 z "},"@":{"ha":1003,"x_min":68,"x_max":953,"o":"m 68 297 q 180 645 68 511 q 515 779 292 779 q 839 661 725 779 q 953 328 953 543 q 909 119 953 201 q 774 36 865 36 q 683 63 721 36 q 636 129 644 90 q 559 67 597 88 q 465 47 521 47 q 340 85 389 47 q 290 201 290 122 q 360 327 290 292 q 565 363 431 363 l 621 363 l 621 388 q 490 499 621 499 q 400 481 439 499 q 358 464 361 464 q 334 481 344 464 q 324 511 324 497 q 381 563 324 542 q 506 585 439 585 q 655 538 599 585 q 711 406 711 492 l 711 174 q 735 124 715 142 q 781 106 754 106 q 871 314 871 106 q 782 601 871 501 q 514 701 693 701 q 341 669 414 701 q 228 578 268 636 q 169 451 188 521 q 150 299 150 382 q 167 156 150 221 q 219 37 183 92 q 319 -49 254 -18 q 471 -79 383 -79 q 601 -58 542 -79 q 664 -37 661 -37 q 688 -50 678 -37 q 697 -74 697 -62 q 619 -130 697 -106 q 458 -154 540 -154 q 312 -126 381 -154 q 188 -45 243 -99 q 100 97 132 8 q 68 297 68 185 m 388 201 q 481 118 388 118 q 583 154 542 118 q 624 232 624 190 l 624 300 l 574 300 q 435 279 482 300 q 388 201 388 258 z "},"A":{"ha":764,"x_min":24,"x_max":739,"o":"m 24 49 q 26 60 24 51 l 310 983 q 382 1024 322 1024 q 454 983 442 1024 l 738 60 q 738 54 738 57 q 739 50 739 51 q 716 15 739 31 q 667 0 693 0 q 625 26 633 0 l 564 233 l 199 233 l 138 26 q 94 0 129 0 q 47 14 69 0 q 24 49 24 28 m 225 329 l 536 329 l 382 851 l 225 329 z "},"B":{"ha":757,"x_min":99,"x_max":697,"o":"m 99 40 l 99 974 q 115 1004 99 993 q 151 1015 131 1015 l 390 1015 q 597 964 521 1015 q 672 778 672 913 q 641 633 672 692 q 554 550 610 574 q 661 468 625 522 q 697 314 697 414 l 697 289 q 622 69 697 139 q 422 0 547 0 l 151 0 q 113 12 128 0 q 99 40 99 24 m 215 106 l 403 106 q 581 296 581 106 l 581 319 q 535 458 581 415 q 403 501 490 501 l 215 501 l 215 106 m 215 599 l 389 599 q 515 638 475 599 q 556 761 556 676 q 385 910 556 910 l 215 910 l 215 599 z "},"C":{"ha":738,"x_min":89,"x_max":688,"o":"m 89 294 l 89 713 q 172 942 89 868 q 388 1015 254 1015 q 606 947 524 1015 q 688 774 688 878 q 674 723 688 736 q 629 710 660 710 q 571 750 574 710 q 390 910 563 910 q 206 713 206 910 l 206 294 q 394 97 206 97 q 485 113 449 97 q 538 157 521 128 q 561 207 556 186 q 571 263 567 228 q 629 303 575 303 q 674 289 660 303 q 688 238 688 275 q 605 62 688 132 q 386 -8 522 -8 q 172 65 254 -8 q 89 294 89 139 z "},"D":{"ha":786,"x_min":99,"x_max":697,"o":"m 99 40 l 99 975 q 113 1003 99 992 q 151 1015 128 1015 l 397 1015 q 615 942 533 1015 q 697 713 697 869 l 697 303 q 615 73 697 146 q 397 0 533 0 l 151 0 q 113 12 128 0 q 99 40 99 24 m 215 106 l 397 106 q 533 155 485 106 q 581 303 581 204 l 581 713 q 533 860 581 811 q 397 910 485 910 l 215 910 l 215 106 z "},"E":{"ha":714,"x_min":99,"x_max":686,"o":"m 99 42 l 99 974 q 115 1004 99 993 q 151 1015 131 1015 l 646 1015 q 676 1000 665 1015 q 686 964 686 985 q 675 926 686 942 q 646 910 664 910 l 215 910 l 215 557 l 432 557 q 461 542 450 557 q 472 507 472 528 q 462 474 472 489 q 432 460 451 460 l 215 460 l 215 106 l 646 106 q 675 90 664 106 q 686 51 686 74 q 676 15 686 31 q 646 0 665 0 l 151 0 q 115 11 131 0 q 99 42 99 22 z "},"F":{"ha":690,"x_min":99,"x_max":681,"o":"m 99 40 l 99 974 q 115 1004 99 993 q 151 1015 131 1015 l 640 1015 q 670 1000 660 1015 q 681 964 681 985 q 670 925 681 940 q 640 910 660 910 l 215 910 l 215 557 l 432 557 q 462 542 451 557 q 472 507 472 528 q 462 474 472 489 q 432 460 451 460 l 215 460 l 215 40 q 198 10 215 21 q 157 0 181 0 q 116 10 133 0 q 99 40 99 21 z "},"G":{"ha":761,"x_min":89,"x_max":688,"o":"m 89 294 l 89 713 q 170 942 89 869 q 385 1015 251 1015 q 604 947 521 1015 q 688 767 688 878 q 673 722 688 735 q 629 710 658 710 q 571 750 572 710 q 388 910 553 910 q 206 713 206 910 l 206 294 q 388 97 206 97 q 523 147 475 97 q 571 294 571 196 l 571 436 l 406 436 q 376 451 386 436 q 365 485 365 465 q 376 519 365 504 q 406 533 388 533 l 647 533 q 677 521 667 533 q 688 490 688 508 l 688 294 q 606 65 688 138 q 388 -8 524 -8 q 170 65 251 -8 q 89 294 89 138 z "},"H":{"ha":807,"x_min":99,"x_max":708,"o":"m 99 42 l 99 975 q 116 1005 99 994 q 157 1015 133 1015 q 198 1005 181 1015 q 215 975 215 994 l 215 575 l 592 575 l 592 975 q 609 1005 592 994 q 650 1015 626 1015 q 691 1005 674 1015 q 708 975 708 994 l 708 42 q 691 11 708 22 q 650 0 674 0 q 609 11 626 0 q 592 42 592 22 l 592 478 l 215 478 l 215 42 q 198 11 215 22 q 157 0 181 0 q 116 11 133 0 q 99 42 99 22 z "},"I":{"ha":314,"x_min":99,"x_max":215,"o":"m 99 42 l 99 975 q 116 1005 99 994 q 157 1015 133 1015 q 198 1005 181 1015 q 215 975 215 994 l 215 42 q 198 11 215 22 q 157 0 181 0 q 116 11 133 0 q 99 42 99 22 z "},"J":{"ha":721,"x_min":28,"x_max":626,"o":"m 28 246 q 42 290 28 278 q 86 303 57 303 q 144 263 144 303 q 192 143 144 189 q 326 97 240 97 q 510 294 510 97 l 510 910 l 329 910 q 299 925 310 910 q 289 964 289 940 q 329 1015 289 1015 l 574 1015 q 610 1004 594 1015 q 626 974 626 993 l 626 294 q 545 65 626 138 q 331 -8 464 -8 q 111 62 194 -8 q 28 246 28 132 z "},"K":{"ha":735,"x_min":99,"x_max":733,"o":"m 99 42 l 99 975 q 116 1005 99 994 q 157 1015 133 1015 q 198 1005 181 1015 q 215 975 215 994 l 215 515 l 588 999 q 622 1015 600 1015 q 667 996 644 1015 q 689 956 689 976 q 679 931 689 942 l 396 576 l 726 76 q 733 56 733 65 q 712 15 733 33 q 665 -3 690 -3 q 622 21 638 -3 l 318 478 l 215 349 l 215 42 q 198 11 215 22 q 157 0 181 0 q 116 11 133 0 q 99 42 99 22 z "},"L":{"ha":650,"x_min":99,"x_max":632,"o":"m 99 42 l 99 975 q 116 1005 99 994 q 157 1015 133 1015 q 198 1005 181 1015 q 215 975 215 994 l 215 106 l 594 106 q 622 90 613 106 q 632 53 632 74 q 622 16 632 32 q 594 0 613 0 l 151 0 q 115 11 131 0 q 99 42 99 22 z "},"M":{"ha":938,"x_min":99,"x_max":839,"o":"m 99 42 l 99 958 q 157 1015 99 1015 q 250 942 213 1015 l 468 524 l 688 942 q 781 1015 728 1015 q 839 958 839 1015 l 839 42 q 822 11 839 22 q 781 0 804 0 q 740 11 757 0 q 722 42 722 22 l 722 771 l 513 376 q 467 344 496 344 q 424 376 440 344 l 215 776 l 215 42 q 198 11 215 22 q 157 0 181 0 q 116 11 133 0 q 99 42 99 22 z "},"N":{"ha":807,"x_min":99,"x_max":708,"o":"m 99 42 l 99 975 q 157 1015 99 1015 q 206 998 186 1015 q 246 942 226 981 l 592 265 l 592 975 q 609 1005 592 994 q 650 1015 626 1015 q 691 1005 674 1015 q 708 975 708 994 l 708 42 q 691 11 708 22 q 650 0 674 0 q 576 53 606 0 l 215 751 l 215 42 q 198 11 215 22 q 157 0 181 0 q 116 11 133 0 q 99 42 99 22 z "},"O":{"ha":776,"x_min":89,"x_max":688,"o":"m 89 294 l 89 713 q 170 942 89 869 q 388 1015 251 1015 q 606 942 524 1015 q 688 713 688 869 l 688 294 q 606 65 688 138 q 388 -8 524 -8 q 170 65 251 -8 q 89 294 89 138 m 206 294 q 388 97 206 97 q 523 147 475 97 q 571 294 571 196 l 571 713 q 523 860 571 811 q 388 910 475 910 q 206 713 206 910 l 206 294 z "},"P":{"ha":743,"x_min":99,"x_max":703,"o":"m 99 42 l 99 975 q 112 1003 99 992 q 146 1015 125 1015 l 408 1015 q 622 943 542 1015 q 703 715 703 871 l 703 703 q 621 474 703 547 q 403 401 539 401 l 215 401 l 215 42 q 198 11 215 22 q 157 0 181 0 q 116 11 133 0 q 99 42 99 22 m 215 499 l 403 499 q 538 548 490 499 q 586 696 586 597 l 586 713 q 538 860 586 811 q 403 910 490 910 l 215 910 l 215 499 z "},"Q":{"ha":776,"x_min":89,"x_max":688,"o":"m 89 294 l 89 713 q 170 942 89 869 q 388 1015 251 1015 q 606 942 524 1015 q 688 713 688 869 l 688 294 q 618 76 688 150 q 431 -6 549 3 l 431 -110 q 418 -140 431 -129 q 389 -151 406 -151 q 360 -140 372 -151 q 347 -110 347 -129 l 347 -6 q 158 76 228 3 q 89 294 89 149 m 206 294 q 347 103 206 125 l 347 197 q 360 227 347 217 q 389 238 372 238 q 418 227 406 238 q 431 197 431 217 l 431 104 q 571 294 571 124 l 571 713 q 523 860 571 811 q 388 910 475 910 q 206 713 206 910 l 206 294 z "},"R":{"ha":754,"x_min":99,"x_max":707,"o":"m 99 42 l 99 975 q 110 1003 99 992 q 140 1015 122 1014 l 394 1015 q 618 951 533 1015 q 703 738 703 886 q 496 467 703 508 l 701 76 q 707 57 707 67 q 685 16 707 35 q 638 -3 663 -3 q 585 43 608 -3 l 375 450 l 215 450 l 215 42 q 198 11 215 22 q 157 0 181 0 q 116 11 133 0 q 99 42 99 22 m 215 547 l 394 547 q 586 729 586 547 q 394 910 586 910 l 215 910 l 215 547 z "},"S":{"ha":697,"x_min":46,"x_max":644,"o":"m 46 146 q 62 189 46 168 q 97 210 78 210 q 129 192 110 210 q 169 153 149 175 q 235 115 190 132 q 335 97 279 97 q 476 141 425 97 q 528 269 528 185 q 481 394 528 346 q 367 467 433 442 q 233 520 300 492 q 118 608 165 549 q 71 760 71 667 q 99 885 71 832 q 173 966 126 939 q 269 1006 219 993 q 376 1018 319 1018 q 541 994 463 1018 q 619 926 619 969 q 606 885 619 907 q 569 863 592 863 q 506 889 564 863 q 376 915 447 915 q 240 881 292 915 q 188 771 188 846 q 235 667 188 707 q 349 604 282 628 q 483 550 417 581 q 597 452 550 519 q 644 281 644 385 q 561 63 644 136 q 340 -11 478 -11 q 131 42 217 -11 q 46 146 46 94 z "},"T":{"ha":686,"x_min":18,"x_max":667,"o":"m 18 963 q 29 999 18 983 q 60 1015 40 1015 l 625 1015 q 656 999 644 1015 q 667 963 667 983 q 656 924 667 940 q 625 907 644 907 l 401 907 l 401 42 q 384 11 401 22 q 343 0 367 0 q 302 11 319 0 q 285 42 285 22 l 285 907 l 60 907 q 29 923 40 907 q 18 963 18 939 z "},"U":{"ha":796,"x_min":94,"x_max":701,"o":"m 94 294 l 94 975 q 112 1005 94 994 q 153 1015 129 1015 q 194 1005 176 1015 q 211 975 211 994 l 211 294 q 397 97 211 97 q 536 147 488 97 q 585 294 585 196 l 585 975 q 643 1015 585 1015 q 684 1005 667 1015 q 701 975 701 994 l 701 294 q 618 65 701 138 q 397 -8 535 -8 q 177 65 260 -8 q 94 294 94 138 z "},"V":{"ha":763,"x_min":24,"x_max":739,"o":"m 24 967 q 47 1001 24 988 q 94 1015 69 1015 q 138 989 129 1015 l 382 164 l 625 989 q 667 1015 635 1015 q 716 1000 693 1015 q 739 965 739 985 q 738 961 739 964 q 738 956 738 958 l 456 32 q 382 -8 440 -8 q 311 32 324 -8 l 26 956 q 24 967 24 964 z "},"W":{"ha":1129,"x_min":24,"x_max":1104,"o":"m 24 968 q 47 1001 24 988 q 94 1015 69 1015 q 138 989 129 1015 l 372 164 l 504 672 q 565 708 514 708 q 624 672 614 708 l 757 164 l 990 989 q 1035 1015 999 1015 q 1082 1001 1060 1015 q 1104 968 1104 988 q 1103 956 1104 960 l 829 32 q 757 -8 817 -8 q 685 32 694 -8 l 565 490 l 444 32 q 374 -8 433 -8 q 301 32 314 -8 l 26 956 q 24 968 24 964 z "},"X":{"ha":701,"x_min":28,"x_max":674,"o":"m 28 54 q 36 79 28 67 l 275 508 l 42 935 q 32 965 32 950 q 53 1003 32 989 q 103 1018 75 1018 q 154 974 132 1018 l 350 604 l 547 974 q 599 1018 569 1018 q 648 1003 626 1018 q 669 965 669 989 q 660 935 669 950 l 425 508 l 665 79 q 674 54 674 67 q 649 15 674 32 q 600 -3 625 -3 q 556 36 576 -3 l 350 415 l 146 36 q 101 -3 125 -3 q 52 15 76 -3 q 28 54 28 32 z "},"Y":{"ha":757,"x_min":24,"x_max":733,"o":"m 24 967 q 47 1001 24 988 q 93 1015 69 1015 q 135 985 118 1015 l 379 508 l 622 985 q 664 1015 639 1015 q 711 1001 689 1015 q 733 967 733 988 q 728 943 733 956 l 440 407 q 438 393 438 403 l 438 42 q 420 11 438 22 q 379 0 403 0 q 338 11 356 0 q 321 42 321 22 l 321 393 q 317 407 321 400 l 29 943 q 24 967 24 956 z "},"Z":{"ha":688,"x_min":29,"x_max":660,"o":"m 29 38 q 40 78 29 56 l 489 910 l 89 910 q 59 925 69 910 q 49 963 49 940 q 59 1000 49 985 q 89 1015 69 1015 l 600 1015 q 640 981 640 1015 q 626 936 640 961 l 179 106 l 618 106 q 648 90 636 106 q 660 53 660 74 q 648 16 660 32 q 618 0 636 0 l 69 0 q 29 38 29 0 z "},"[":{"ha":436,"x_min":90,"x_max":411,"o":"m 90 11 l 90 1026 q 106 1056 90 1044 q 143 1067 122 1067 l 371 1067 q 400 1051 389 1067 q 411 1015 411 1036 q 400 978 411 993 q 371 963 389 963 l 207 963 l 207 75 l 371 75 q 400 60 389 75 q 411 22 411 44 q 400 -14 411 1 q 371 -29 389 -29 l 143 -29 q 106 -18 122 -29 q 90 11 90 -7 z "},"\\":{"ha":488,"x_min":29,"x_max":458,"o":"m 29 1004 q 43 1035 29 1022 q 76 1047 57 1047 q 113 1024 104 1047 l 456 54 q 458 42 458 50 q 444 13 458 25 q 413 0 431 0 q 374 28 382 0 l 32 989 q 29 1004 29 994 z "},"]":{"ha":436,"x_min":25,"x_max":346,"o":"m 25 22 q 36 60 25 44 q 65 75 47 75 l 229 75 l 229 963 l 65 963 q 36 978 47 963 q 25 1015 25 993 q 36 1051 25 1036 q 65 1067 47 1067 l 293 1067 q 330 1056 314 1067 q 346 1026 346 1044 l 346 11 q 330 -18 346 -7 q 293 -29 314 -29 l 65 -29 q 36 -14 47 -29 q 25 22 25 1 z "},"^":{"ha":379,"x_min":0,"x_max":379,"o":"m 0 857 q 21 893 0 883 l 165 971 q 189 978 179 978 q 213 971 201 978 l 357 894 q 379 856 379 882 q 370 828 379 840 q 347 817 361 817 q 339 818 344 817 q 333 821 336 821 l 189 899 l 44 821 q 32 817 39 817 q 10 829 19 817 q 0 857 0 842 z "},"_":{"ha":458,"x_min":-33,"x_max":493,"o":"m -33 -50 q -22 -15 -33 -29 q 7 0 -11 0 l 451 0 q 481 -15 468 0 q 493 -50 493 -29 q 481 -85 493 -71 q 451 -99 468 -99 l 7 -99 q -33 -50 -33 -99 z "},"`":{"ha":233,"x_min":0,"x_max":233,"o":"m 0 931 q 11 963 0 949 q 39 978 22 978 q 53 975 44 978 l 215 889 q 233 858 233 881 q 221 826 233 840 q 192 811 208 811 q 176 817 188 811 l 19 897 q 0 931 0 907 z "},"a":{"ha":622,"x_min":39,"x_max":546,"o":"m 39 174 q 122 324 39 282 q 364 367 206 367 l 431 367 l 431 396 q 392 517 431 465 q 278 568 354 568 q 175 548 219 568 q 126 528 131 528 q 95 547 107 528 q 83 586 83 565 q 147 642 83 618 q 281 667 210 667 q 481 590 417 667 q 546 397 546 513 l 546 42 q 530 12 546 24 q 489 0 514 0 q 451 12 467 0 q 436 42 436 24 l 436 97 q 226 -11 342 -11 q 91 36 143 -11 q 39 174 39 83 m 156 186 q 185 108 156 135 q 263 82 214 82 q 376 128 321 82 q 431 224 431 175 l 431 296 l 382 296 q 313 294 342 296 q 252 285 283 292 q 201 267 221 279 q 168 235 181 256 q 156 186 156 215 z "},"b":{"ha":686,"x_min":83,"x_max":629,"o":"m 83 42 l 83 1015 q 99 1044 83 1033 q 140 1056 115 1056 q 182 1044 165 1056 q 199 1015 199 1033 l 199 561 q 271 636 224 606 q 381 667 318 667 q 556 588 482 667 q 629 400 629 510 l 629 258 q 556 71 629 153 q 385 -11 482 -11 q 269 21 322 -11 q 193 97 217 53 l 193 42 q 177 13 193 25 q 140 0 161 0 q 100 13 117 0 q 83 42 83 25 m 199 221 q 247 140 199 186 q 357 93 296 93 q 467 144 419 93 q 514 258 514 194 l 514 400 q 467 513 514 463 q 356 563 419 563 q 246 517 293 563 q 199 400 199 472 l 199 221 z "},"c":{"ha":579,"x_min":58,"x_max":547,"o":"m 58 258 l 58 397 q 128 592 58 517 q 335 667 199 667 q 480 636 421 667 q 539 571 539 606 q 524 533 539 551 q 490 514 510 514 q 442 538 485 514 q 343 563 400 563 q 217 519 260 563 q 174 397 174 476 l 174 258 q 344 93 174 93 q 446 118 403 93 q 496 143 489 143 q 533 125 518 143 q 547 88 547 107 q 486 21 547 53 q 336 -11 425 -11 q 128 63 199 -11 q 58 258 58 138 z "},"d":{"ha":686,"x_min":57,"x_max":603,"o":"m 57 258 l 57 400 q 131 588 57 510 q 306 667 204 667 q 415 636 368 667 q 488 561 463 606 l 488 1015 q 504 1044 488 1033 q 546 1056 521 1056 q 587 1044 571 1056 q 603 1015 603 1033 l 603 42 q 586 13 603 25 q 546 0 569 0 q 509 13 525 0 q 493 42 493 25 l 493 97 q 417 21 469 53 q 301 -11 364 -11 q 131 71 204 -11 q 57 258 57 153 m 172 258 q 219 144 172 194 q 329 93 267 93 q 439 140 390 93 q 488 221 488 186 l 488 400 q 440 517 488 472 q 331 563 393 563 q 219 513 267 563 q 172 400 172 463 l 172 258 z "},"e":{"ha":646,"x_min":57,"x_max":600,"o":"m 57 258 l 57 404 q 138 589 57 511 q 333 667 219 667 q 521 594 442 667 q 600 411 600 521 q 590 347 600 371 q 560 312 581 322 q 523 299 540 301 q 476 296 506 296 l 172 296 l 172 254 q 227 132 172 178 q 369 86 282 86 q 449 100 415 86 q 504 127 483 114 q 538 140 525 140 q 571 123 557 140 q 585 88 585 106 q 522 22 585 56 q 365 -11 458 -11 q 143 63 229 -11 q 57 258 57 138 m 172 374 l 429 374 q 478 383 465 374 q 490 418 490 392 q 444 528 490 481 q 332 575 399 575 q 219 531 267 575 q 172 424 172 488 l 172 374 z "},"f":{"ha":438,"x_min":83,"x_max":425,"o":"m 83 40 l 83 796 q 156 980 83 904 q 329 1056 229 1056 l 378 1056 q 413 1040 400 1056 q 425 1004 425 1025 q 413 969 425 983 q 378 954 400 954 l 349 954 q 242 911 285 954 q 199 806 200 868 l 199 658 l 389 658 q 415 644 406 658 q 425 613 425 631 q 415 581 425 594 q 389 568 406 568 l 199 568 l 199 40 q 181 12 199 24 q 139 0 164 0 q 99 11 115 0 q 83 40 83 22 z "},"g":{"ha":635,"x_min":31,"x_max":617,"o":"m 31 -131 q 143 21 31 -29 q 72 114 72 47 q 142 217 72 178 q 63 392 63 281 l 63 438 q 131 603 63 539 q 310 667 199 667 q 472 613 404 667 q 567 703 514 703 q 603 690 589 703 q 617 660 617 676 q 593 628 617 639 q 518 569 546 615 q 561 438 561 518 l 561 392 q 490 226 561 292 q 310 161 419 161 q 207 182 253 161 q 172 135 172 161 q 204 94 172 108 q 283 76 236 79 q 386 63 331 72 q 489 38 442 53 q 568 -17 536 22 q 600 -115 600 -56 q 522 -266 600 -214 q 318 -318 443 -318 q 112 -267 193 -318 q 31 -131 31 -217 m 140 -118 q 188 -205 140 -172 q 317 -237 236 -237 q 441 -205 394 -237 q 488 -118 488 -172 q 480 -79 488 -96 q 456 -51 472 -62 q 422 -33 439 -40 q 379 -20 406 -25 q 335 -13 353 -15 q 290 -8 318 -11 q 250 -4 261 -6 q 140 -118 140 -40 m 175 393 q 212 283 175 326 q 313 240 249 240 q 411 283 374 240 q 449 392 449 325 l 449 438 q 411 544 449 501 q 311 588 374 588 q 211 545 247 588 q 175 438 175 503 l 175 393 z "},"h":{"ha":700,"x_min":83,"x_max":624,"o":"m 83 42 l 83 1015 q 99 1044 83 1033 q 140 1056 115 1056 q 182 1044 165 1056 q 199 1015 199 1033 l 199 561 q 269 636 222 606 q 379 667 315 667 q 551 588 478 667 q 624 400 624 510 l 624 42 q 606 11 624 22 q 565 0 589 0 q 526 11 543 0 q 508 42 508 22 l 508 400 q 461 513 508 463 q 350 563 414 563 q 244 517 290 563 q 199 400 199 472 l 199 42 q 181 13 199 26 q 140 0 164 0 q 100 13 117 0 q 83 42 83 25 z "},"i":{"ha":279,"x_min":67,"x_max":210,"o":"m 88 859 q 77 869 88 859 q 67 906 67 879 q 88 951 67 932 q 139 971 108 971 q 189 951 168 971 q 210 906 210 932 q 189 859 210 879 q 139 839 168 839 q 88 859 110 839 m 82 42 l 82 618 q 99 647 82 636 q 139 658 115 658 q 181 647 164 658 q 197 618 197 636 l 197 42 q 180 13 197 26 q 139 0 163 0 q 99 13 115 0 q 82 42 82 25 z "},"j":{"ha":282,"x_min":-51,"x_max":211,"o":"m -51 -268 q -37 -231 -51 -246 q -4 -217 -24 -217 q 67 -176 50 -217 q 83 -56 83 -136 l 83 618 q 99 647 83 636 q 140 658 115 658 q 182 647 165 658 q 199 618 199 636 l 199 -56 q 151 -247 199 -176 q 8 -318 104 -318 q -51 -268 -51 -318 m 90 859 q 79 869 90 859 q 68 906 68 879 q 89 951 68 932 q 140 971 110 971 q 190 951 169 971 q 211 906 211 932 q 190 859 211 879 q 140 839 169 839 q 90 859 111 839 z "},"k":{"ha":649,"x_min":83,"x_max":631,"o":"m 83 42 l 83 1015 q 99 1044 83 1033 q 140 1056 115 1056 q 182 1044 165 1056 q 199 1015 199 1033 l 199 365 l 515 651 q 540 661 528 661 q 580 644 561 661 q 599 607 599 628 q 586 579 599 590 l 393 408 l 624 74 q 631 53 631 63 q 610 13 631 32 q 567 -6 589 -6 q 535 13 547 -6 l 314 336 l 199 233 l 199 42 q 181 13 199 26 q 140 0 164 0 q 100 13 117 0 q 83 42 83 25 z "},"l":{"ha":304,"x_min":94,"x_max":210,"o":"m 94 42 l 94 1015 q 110 1044 94 1033 q 151 1056 126 1056 q 193 1044 176 1056 q 210 1015 210 1033 l 210 42 q 192 13 210 26 q 151 0 175 0 q 111 13 128 0 q 94 42 94 25 z "},"m":{"ha":1092,"x_min":82,"x_max":1015,"o":"m 82 42 l 82 618 q 98 647 82 636 q 139 658 114 658 q 176 647 161 658 q 192 618 192 636 l 192 561 q 265 637 217 607 q 376 667 313 667 q 491 628 440 667 q 567 528 542 590 q 658 631 601 596 q 778 667 715 667 q 945 594 875 667 q 1015 400 1015 522 l 1015 42 q 998 13 1015 26 q 957 0 981 0 q 917 13 935 0 q 900 42 900 26 l 900 400 q 856 519 900 475 q 754 563 813 563 q 651 518 696 563 q 606 404 606 474 l 606 40 q 588 10 606 21 q 547 0 571 0 q 508 10 525 0 q 490 40 490 21 l 490 403 q 448 517 490 472 q 346 563 406 563 q 242 518 286 563 q 197 400 197 474 l 197 42 q 180 13 197 26 q 139 0 163 0 q 99 13 115 0 q 82 42 82 25 z "},"n":{"ha":699,"x_min":82,"x_max":622,"o":"m 82 42 l 82 618 q 98 647 82 636 q 139 658 114 658 q 176 647 160 658 q 192 618 192 635 l 192 561 q 263 636 214 606 q 378 667 313 667 q 549 588 476 667 q 622 400 622 510 l 622 42 q 605 11 622 22 q 564 0 588 0 q 524 11 542 0 q 507 42 507 22 l 507 400 q 460 513 507 463 q 349 563 413 563 q 243 517 289 563 q 197 400 197 472 l 197 42 q 179 13 197 26 q 139 0 161 0 q 99 13 115 0 q 82 42 82 25 z "},"o":{"ha":663,"x_min":57,"x_max":606,"o":"m 57 258 l 57 400 q 138 587 57 507 q 331 667 219 667 q 524 588 442 667 q 606 400 606 508 l 606 258 q 523 71 606 153 q 331 -11 440 -11 q 139 70 221 -11 q 57 258 57 151 m 172 258 q 219 143 172 193 q 331 93 267 93 q 443 144 396 93 q 490 258 490 194 l 490 400 q 443 513 490 463 q 331 563 396 563 q 219 513 265 563 q 172 400 172 463 l 172 258 z "},"p":{"ha":686,"x_min":83,"x_max":629,"o":"m 83 -276 l 83 618 q 99 647 83 636 q 139 658 115 658 q 178 647 163 658 q 193 618 193 636 l 193 561 q 267 636 218 606 q 379 667 315 667 q 556 588 483 667 q 629 400 629 510 l 629 258 q 556 71 629 153 q 385 -11 482 -11 q 273 20 324 -11 q 199 97 222 51 l 199 -276 q 181 -305 199 -292 q 140 -318 164 -318 q 100 -306 117 -318 q 83 -276 83 -293 m 199 221 q 247 140 199 186 q 356 93 294 93 q 466 144 418 93 q 514 258 514 194 l 514 400 q 466 513 514 463 q 353 563 418 563 q 245 517 292 563 q 199 400 199 472 l 199 221 z "},"q":{"ha":686,"x_min":57,"x_max":603,"o":"m 57 258 l 57 400 q 130 588 57 510 q 307 667 203 667 q 419 636 371 667 q 493 561 468 606 l 493 618 q 508 647 493 636 q 547 658 524 658 q 587 647 571 658 q 603 618 603 636 l 603 -276 q 586 -306 603 -293 q 546 -318 569 -318 q 505 -305 522 -318 q 488 -276 488 -292 l 488 97 q 413 20 464 51 q 301 -11 363 -11 q 131 71 204 -11 q 57 258 57 153 m 172 258 q 220 144 172 194 q 331 93 268 93 q 440 140 392 93 q 488 221 488 186 l 488 400 q 441 517 488 472 q 333 563 394 563 q 220 513 268 563 q 172 400 172 463 l 172 258 z "},"r":{"ha":478,"x_min":82,"x_max":465,"o":"m 82 42 l 82 618 q 98 647 82 636 q 139 658 114 658 q 176 647 161 658 q 192 618 192 636 l 192 553 q 265 633 217 600 q 374 667 314 667 l 421 667 q 452 651 439 667 q 465 614 465 635 q 452 578 465 593 q 421 563 439 563 l 374 563 q 250 506 303 563 q 197 358 197 449 l 197 42 q 180 13 197 26 q 139 0 163 0 q 99 13 115 0 q 82 42 82 25 z "},"s":{"ha":544,"x_min":42,"x_max":501,"o":"m 42 94 q 53 130 42 113 q 82 147 65 147 q 114 131 93 147 q 174 98 135 114 q 265 82 213 82 q 366 107 335 82 q 397 169 397 132 q 363 242 397 215 q 278 283 328 269 q 178 314 228 297 q 93 369 128 331 q 58 472 58 408 q 115 609 58 551 q 286 667 171 667 q 421 644 360 667 q 482 592 482 621 q 469 554 482 575 q 436 533 456 533 q 383 553 431 533 q 288 574 335 574 q 192 544 224 574 q 161 476 161 514 q 196 415 161 438 q 281 381 231 393 q 382 350 332 368 q 467 288 432 332 q 501 175 501 244 q 440 39 501 89 q 269 -11 379 -11 q 108 23 175 -11 q 42 94 42 57 z "},"t":{"ha":431,"x_min":79,"x_max":404,"o":"m 79 210 l 79 925 q 97 953 79 942 q 136 965 115 965 q 176 953 158 965 q 194 925 194 942 l 194 658 l 369 658 q 394 644 385 658 q 404 613 404 631 q 394 581 404 594 q 369 568 385 568 l 194 568 l 194 210 q 220 126 194 150 q 310 101 246 101 l 353 101 q 390 87 376 101 q 403 51 403 72 q 389 15 403 31 q 353 0 375 0 l 310 0 q 79 210 79 0 z "},"u":{"ha":701,"x_min":76,"x_max":625,"o":"m 76 256 l 76 617 q 94 646 76 633 q 135 658 111 658 q 174 645 157 658 q 192 617 192 632 l 192 256 q 239 143 192 193 q 351 93 286 93 q 463 142 415 93 q 510 256 510 192 l 510 618 q 527 646 510 633 q 568 658 544 658 q 609 647 593 658 q 625 618 625 635 l 625 256 q 544 69 625 149 q 351 -11 463 -11 q 158 69 239 -11 q 76 256 76 149 z "},"v":{"ha":607,"x_min":17,"x_max":590,"o":"m 17 611 q 41 646 17 631 q 90 661 65 661 q 128 639 119 661 l 304 167 l 478 633 q 515 661 489 661 q 564 646 538 661 q 590 611 590 631 q 585 589 590 600 l 357 13 q 304 -12 346 -12 q 250 13 261 -12 l 22 589 q 17 611 17 606 z "},"w":{"ha":938,"x_min":19,"x_max":919,"o":"m 19 611 q 42 647 19 632 q 90 661 65 661 q 128 639 119 661 l 296 172 l 426 593 q 469 621 436 621 q 514 593 504 621 l 642 168 l 811 639 q 847 661 818 661 q 896 647 872 661 q 919 611 919 632 q 914 589 919 600 l 697 13 q 651 -12 688 -12 q 604 13 614 -12 l 469 421 l 338 17 q 288 -12 328 -12 q 240 17 251 -12 l 25 589 q 19 611 19 606 z "},"x":{"ha":592,"x_min":33,"x_max":560,"o":"m 33 46 q 40 69 33 58 l 219 333 l 47 586 q 39 608 39 597 q 64 648 39 629 q 113 667 89 667 q 143 650 132 667 l 296 411 l 451 650 q 482 667 461 667 q 529 647 504 667 q 554 608 554 628 q 547 586 554 597 l 372 333 l 553 69 q 560 46 560 60 q 536 8 560 28 q 489 -11 513 -11 q 457 6 467 -11 l 296 251 l 136 6 q 104 -11 125 -11 q 58 8 83 -11 q 33 46 33 26 z "},"y":{"ha":607,"x_min":17,"x_max":589,"o":"m 17 611 q 42 650 17 633 q 92 667 67 667 q 129 643 121 667 l 313 160 l 478 643 q 514 667 488 667 q 563 650 538 667 q 589 610 589 633 q 585 596 589 603 l 374 31 l 347 -39 q 319 -106 340 -58 q 285 -174 299 -153 q 246 -228 271 -194 q 197 -278 221 -262 q 141 -306 174 -293 q 72 -318 108 -318 q 18 -267 18 -318 q 51 -217 18 -217 q 173 -147 114 -217 q 253 33 232 -76 l 22 596 q 17 611 17 604 z "},"z":{"ha":571,"x_min":32,"x_max":540,"o":"m 32 43 q 50 89 32 65 l 371 560 l 83 560 q 56 574 68 560 q 44 608 44 589 q 56 644 44 629 q 83 658 67 658 l 481 658 q 510 646 497 658 q 522 614 522 633 q 506 569 522 590 l 183 99 l 501 99 q 528 84 517 99 q 540 49 540 69 q 529 14 540 28 q 501 0 518 0 l 75 0 q 43 13 54 0 q 32 43 32 26 z "},"{":{"ha":451,"x_min":39,"x_max":426,"o":"m 52 501 q 45 507 52 501 q 39 535 39 513 q 52 567 39 557 q 81 580 65 578 q 109 589 96 582 q 122 613 122 596 q 109 717 122 624 q 96 835 96 811 q 177 997 96 926 q 364 1067 258 1067 q 411 1051 396 1067 q 426 1015 426 1036 q 415 981 426 996 q 386 965 404 965 q 265 924 318 965 q 213 821 213 882 q 226 708 213 800 q 239 601 239 615 q 222 558 239 578 q 189 533 204 538 q 222 510 204 529 q 239 467 239 492 q 226 335 239 451 q 213 197 213 219 q 269 103 213 133 q 386 74 326 74 q 417 58 407 74 q 426 24 426 42 q 363 -28 426 -28 q 175 33 254 -28 q 96 188 96 94 q 109 329 96 214 q 122 457 122 444 q 109 481 122 474 q 81 489 96 488 q 52 501 65 490 z "},"|":{"ha":296,"x_min":90,"x_max":207,"o":"m 90 11 l 90 1026 q 107 1056 90 1044 q 149 1067 124 1067 q 190 1055 172 1067 q 207 1026 207 1043 l 207 11 q 189 -17 207 -4 q 149 -29 171 -29 q 107 -17 124 -29 q 90 11 90 -6 z "},"}":{"ha":451,"x_min":25,"x_max":413,"o":"m 25 24 q 65 74 25 74 q 182 103 125 74 q 239 197 239 133 q 226 335 239 219 q 213 467 213 451 q 229 510 213 492 q 263 533 246 529 q 230 558 247 538 q 213 601 213 578 q 226 708 213 615 q 239 821 239 800 q 185 924 239 882 q 65 965 132 965 q 36 981 47 965 q 25 1015 25 996 q 40 1051 25 1036 q 88 1067 56 1067 q 274 997 193 1067 q 356 835 356 926 q 342 717 356 811 q 329 613 329 624 q 342 589 329 596 q 371 580 356 582 q 399 567 386 578 q 413 535 413 557 q 399 501 413 513 q 371 489 386 490 q 342 481 356 488 q 329 457 329 474 q 342 329 329 444 q 356 188 356 214 q 276 33 356 94 q 89 -28 197 -28 q 25 24 25 -28 z "},"~":{"ha":558,"x_min":57,"x_max":500,"o":"m 57 339 q 98 401 57 379 q 178 424 139 424 q 272 401 215 424 q 365 378 329 378 q 429 397 400 378 q 467 415 458 415 q 491 402 482 415 q 500 376 500 389 q 461 313 500 333 q 383 293 422 293 q 286 316 342 293 q 194 339 231 339 q 128 319 160 339 q 89 299 97 299 q 65 312 74 299 q 57 339 57 325 z "}," ":{"ha":278,"x_min":0,"x_max":0,"o":""},"¡":{"ha":286,"x_min":69,"x_max":214,"o":"m 69 957 q 90 1008 69 986 q 142 1029 111 1029 q 193 1008 172 1029 q 214 957 214 986 q 193 905 214 926 q 142 883 172 883 q 90 905 111 883 q 69 957 69 926 m 81 51 q 89 396 81 160 q 97 740 97 632 q 111 768 97 758 q 142 778 125 778 q 174 768 161 778 q 188 740 188 758 q 197 396 188 632 q 206 51 206 160 q 188 8 206 24 q 142 -8 169 -8 q 98 8 115 -8 q 81 51 81 24 z "},"¢":{"ha":581,"x_min":44,"x_max":533,"o":"m 44 497 l 44 525 q 101 704 44 632 q 269 790 157 776 l 269 928 q 281 953 269 943 q 308 964 293 964 q 337 953 325 964 q 349 928 349 943 l 349 792 q 476 759 424 786 q 529 700 529 732 q 515 662 529 679 q 481 644 500 644 q 437 667 475 644 q 349 692 399 689 l 349 332 q 436 357 399 335 q 481 379 474 379 q 518 363 503 379 q 533 325 533 346 q 478 264 533 292 q 349 231 422 236 l 349 93 q 336 67 349 79 q 308 56 324 56 q 281 67 293 56 q 269 93 269 78 l 269 232 q 101 317 158 244 q 44 497 44 389 m 149 497 q 269 333 149 360 l 269 689 q 149 525 149 663 l 149 497 z "},"£":{"ha":697,"x_min":32,"x_max":646,"o":"m 42 15 q 37 23 42 15 q 32 53 32 31 q 42 90 32 75 q 72 106 53 106 l 151 106 l 208 510 l 110 510 q 84 523 93 510 q 75 554 75 536 q 85 587 75 574 q 110 600 94 600 l 221 600 l 249 794 q 358 988 265 908 q 568 1067 451 1067 l 601 1067 q 633 1051 621 1067 q 646 1014 646 1035 q 633 978 646 994 q 601 963 621 963 l 561 963 q 429 914 483 963 q 364 794 375 865 l 336 600 l 532 600 q 557 586 547 600 q 567 554 567 572 q 557 523 567 536 q 532 510 547 510 l 324 510 l 265 106 l 607 106 q 635 90 625 106 q 646 53 646 74 q 635 16 646 32 q 607 0 625 0 l 72 0 q 42 15 53 0 z "},"¤":{"ha":653,"x_min":81,"x_max":575,"o":"m 81 450 q 88 467 81 460 l 131 508 q 82 656 82 575 q 131 801 82 738 l 94 838 q 86 856 86 846 q 97 878 86 868 q 118 888 107 888 q 136 881 126 888 l 171 846 q 328 906 238 906 q 481 850 411 906 l 517 886 q 535 893 526 893 q 557 883 547 893 q 567 861 567 874 q 560 843 567 853 l 521 807 q 575 656 575 742 q 521 504 575 574 l 560 467 q 567 450 567 457 q 557 428 567 439 q 535 418 547 418 q 518 425 524 418 l 481 461 q 328 403 411 403 q 171 464 242 403 l 129 425 q 113 418 122 418 q 90 428 100 418 q 81 450 81 438 m 158 656 q 208 533 158 586 q 328 479 258 479 q 448 533 397 479 q 499 656 499 586 q 449 776 499 722 q 328 829 399 829 q 208 776 258 829 q 158 656 158 724 z "},"¥":{"ha":722,"x_min":32,"x_max":690,"o":"m 32 969 q 53 1003 32 988 q 99 1019 75 1019 q 136 990 122 1019 l 358 563 l 588 990 q 625 1019 603 1019 q 669 1003 649 1019 q 690 969 690 988 q 688 954 690 958 l 442 519 l 571 519 q 599 506 586 519 q 613 474 613 492 q 600 443 613 456 q 571 431 588 431 l 415 431 l 415 332 l 571 332 q 600 319 588 332 q 613 288 613 306 q 600 256 613 268 q 571 243 588 243 l 415 243 l 415 40 q 399 11 415 22 q 358 0 382 0 q 317 11 335 0 q 300 40 300 22 l 300 243 l 151 243 q 122 255 133 243 q 111 286 111 267 q 122 319 111 306 q 151 332 133 332 l 300 332 l 300 431 l 151 431 q 122 442 133 431 q 111 474 111 454 q 122 506 111 493 q 151 519 133 519 l 274 519 l 36 954 q 32 969 32 961 z "},"¦":{"ha":296,"x_min":90,"x_max":206,"o":"m 90 11 l 90 381 q 106 410 90 399 q 147 421 122 421 q 189 410 172 421 q 206 381 206 399 l 206 11 q 188 -17 206 -4 q 147 -29 171 -29 q 106 -17 122 -29 q 90 11 90 -6 m 90 657 l 90 1026 q 106 1056 90 1044 q 147 1067 122 1067 q 189 1056 172 1067 q 206 1026 206 1044 l 206 657 q 188 629 206 642 q 147 617 171 617 q 106 628 122 617 q 90 657 90 640 z "},"§":{"ha":651,"x_min":64,"x_max":586,"o":"m 64 138 q 115 188 64 188 q 167 150 167 188 q 199 52 167 97 q 313 7 232 7 q 429 47 389 7 q 469 156 469 86 q 429 249 469 214 q 332 303 389 283 q 217 349 275 324 q 119 432 160 375 q 79 578 79 489 l 79 743 q 102 878 79 822 q 165 963 125 935 q 244 1003 204 990 q 328 1015 283 1015 q 499 951 439 1015 q 560 790 560 888 q 513 739 560 739 q 460 786 460 739 q 431 876 460 835 q 332 917 401 917 q 229 878 271 917 q 188 763 188 840 q 217 680 188 714 q 291 630 247 646 q 387 592 335 614 q 483 546 439 571 q 556 468 526 521 q 586 340 586 415 l 586 176 q 510 -28 586 36 q 322 -93 435 -93 q 134 -25 204 -93 q 64 138 64 43 m 179 561 q 202 475 179 510 q 262 422 225 440 q 338 390 299 403 q 420 357 378 376 q 486 313 463 338 l 486 350 q 450 453 486 413 q 367 507 414 493 q 264 544 321 521 q 179 597 207 568 l 179 561 z "},"¨":{"ha":293,"x_min":0,"x_max":293,"o":"m 17 834 q 8 843 17 834 q 0 875 0 851 q 17 915 0 899 q 57 932 33 932 q 97 915 81 932 q 113 875 113 899 q 96 834 113 851 q 57 817 79 817 q 17 834 33 817 m 198 834 q 190 843 198 834 q 182 875 182 851 q 198 915 182 899 q 238 932 214 932 q 277 915 261 932 q 293 875 293 899 q 277 834 293 851 q 238 817 261 817 q 198 834 214 817 z "},"©":{"ha":986,"x_min":67,"x_max":919,"o":"m 67 497 q 106 698 67 608 q 210 841 146 788 q 348 923 274 894 q 497 951 422 951 q 646 923 572 951 q 781 841 719 894 q 881 699 843 788 q 919 503 919 611 q 880 302 919 392 q 776 159 840 213 q 638 77 713 106 q 489 49 564 49 q 340 77 414 49 q 205 159 267 106 q 105 301 143 213 q 67 497 67 389 m 135 497 q 233 224 135 331 q 489 117 331 117 q 750 224 649 117 q 851 503 851 332 q 753 776 851 669 q 497 883 656 883 q 236 776 338 883 q 135 497 135 668 m 343 404 l 343 615 q 385 744 343 703 q 494 785 428 785 q 606 747 564 785 q 649 647 649 708 q 640 615 649 624 q 611 607 632 607 q 574 633 574 607 q 497 715 569 715 q 418 615 418 715 l 418 404 q 497 303 418 303 q 536 310 521 303 q 559 335 551 318 q 569 361 567 351 q 574 390 571 371 q 611 417 575 417 q 640 408 632 417 q 649 375 649 399 q 606 274 649 313 q 493 235 563 235 q 385 276 426 235 q 343 404 343 317 z "},"ª":{"ha":443,"x_min":44,"x_max":379,"o":"m 44 718 q 98 817 44 789 q 254 844 151 844 l 294 844 l 294 861 q 272 933 294 903 q 203 964 249 964 q 135 951 164 964 q 103 938 106 938 q 81 951 89 938 q 72 981 72 964 q 115 1019 72 1001 q 204 1036 158 1036 q 336 986 293 1036 q 379 861 379 936 l 379 636 q 367 615 379 624 q 338 606 356 606 q 310 615 322 606 q 299 636 299 624 l 299 668 q 158 600 240 600 q 76 631 108 600 q 44 718 44 661 m 131 728 q 148 681 131 697 q 193 665 165 665 q 262 694 229 665 q 294 756 294 724 l 294 794 l 258 794 q 131 728 131 794 z "},"«":{"ha":603,"x_min":44,"x_max":547,"o":"m 64 338 q 44 385 44 374 q 64 432 44 396 l 181 650 q 218 668 192 668 q 265 649 244 668 q 286 610 286 629 q 282 594 286 603 l 169 385 l 282 175 q 286 160 286 169 q 265 122 286 140 q 217 103 243 103 q 181 121 190 103 l 64 338 m 306 385 q 325 432 306 396 l 442 650 q 479 668 450 668 q 526 649 506 668 q 547 610 547 629 q 543 594 547 603 l 431 385 l 543 175 q 547 160 547 169 q 526 122 547 140 q 478 103 504 103 q 442 121 451 103 l 325 338 q 306 385 306 372 z "},"¬":{"ha":675,"x_min":61,"x_max":590,"o":"m 61 333 q 72 369 61 354 q 101 383 83 383 l 549 383 q 578 369 565 383 q 590 333 590 354 l 590 128 q 574 100 590 113 q 533 88 557 88 q 492 99 508 88 q 475 128 475 111 l 475 285 l 101 285 q 61 333 61 285 z "},"­":{"ha":657,"x_min":65,"x_max":592,"o":"m 65 333 q 76 369 65 354 q 106 383 88 383 l 550 383 q 579 369 567 383 q 592 333 592 354 q 579 299 592 313 q 550 285 567 285 l 106 285 q 65 333 65 285 z "},"®":{"ha":986,"x_min":67,"x_max":919,"o":"m 67 497 q 106 698 67 608 q 210 841 146 788 q 348 923 274 894 q 497 951 422 951 q 646 923 572 951 q 781 841 719 894 q 881 699 843 788 q 919 503 919 611 q 880 302 919 392 q 776 159 840 213 q 638 77 713 106 q 489 49 564 49 q 340 77 414 49 q 205 159 267 106 q 105 301 143 213 q 67 497 67 389 m 135 497 q 233 224 135 331 q 489 117 331 117 q 750 224 649 117 q 851 503 851 332 q 753 776 851 669 q 497 883 656 883 q 236 776 338 883 q 135 497 135 668 m 357 268 l 357 749 q 364 766 357 758 q 382 774 371 774 l 507 774 q 660 625 660 774 q 567 482 660 507 l 657 289 q 658 279 658 285 q 646 253 658 265 q 618 240 633 240 q 592 265 604 240 l 496 471 l 429 471 l 429 268 q 394 242 429 242 q 357 268 357 242 m 429 532 l 507 532 q 588 618 588 532 q 507 708 588 708 l 429 708 l 429 532 z "},"¯":{"ha":376,"x_min":0,"x_max":376,"o":"m 11 884 q 6 890 11 884 q 0 914 0 896 q 11 944 0 932 q 40 957 22 957 l 335 957 q 363 944 350 957 q 376 914 376 931 q 364 884 376 896 q 335 872 351 872 l 40 872 q 11 884 22 872 z "},"°":{"ha":574,"x_min":40,"x_max":533,"o":"m 114 640 q 77 678 114 640 q 40 817 40 717 q 113 992 40 917 q 286 1067 186 1067 q 460 993 386 1067 q 533 817 533 919 q 459 640 533 717 q 286 564 385 564 q 114 640 188 564 m 117 817 q 167 694 117 747 q 286 640 217 640 q 406 694 356 640 q 457 817 457 747 q 407 937 457 883 q 286 990 357 990 q 167 938 217 990 q 117 817 117 885 z "},"±":{"ha":653,"x_min":64,"x_max":590,"o":"m 64 118 q 75 153 64 139 q 104 168 86 168 l 549 168 q 578 153 565 168 q 590 118 590 139 q 578 83 590 97 q 549 69 565 69 l 104 69 q 75 83 86 69 q 64 118 64 96 m 64 496 q 75 531 64 517 q 104 546 86 546 l 278 546 l 278 713 q 292 742 278 729 q 328 754 307 754 q 363 742 349 754 q 376 713 376 729 l 376 546 l 549 546 q 578 531 565 546 q 590 496 590 517 q 578 461 590 475 q 549 447 565 447 l 376 447 l 376 279 q 363 250 376 261 q 328 239 350 239 q 292 250 307 239 q 278 279 278 261 l 278 447 l 104 447 q 75 460 86 447 q 64 496 64 474 z "},"²":{"ha":431,"x_min":42,"x_max":392,"o":"m 42 511 l 42 581 q 83 660 42 619 q 173 728 124 700 q 263 793 222 756 q 304 867 304 831 q 282 917 304 894 q 217 939 260 939 q 136 869 136 939 q 124 848 136 857 q 92 839 111 839 q 54 883 54 839 q 101 978 54 942 q 217 1015 149 1015 q 338 975 289 1015 q 388 869 388 935 q 361 789 388 826 q 297 725 335 751 q 220 676 258 699 q 156 629 182 653 q 129 585 129 606 l 129 557 l 364 557 q 383 547 375 557 q 392 521 392 536 q 383 494 392 506 q 364 483 375 483 l 81 483 q 54 492 67 483 q 42 511 42 500 z "},"³":{"ha":440,"x_min":36,"x_max":394,"o":"m 36 608 q 44 635 36 628 q 75 642 53 642 q 110 635 100 642 q 119 613 119 629 q 144 570 119 588 q 214 553 168 553 q 288 573 264 553 q 311 639 311 593 l 311 651 q 214 728 311 728 q 186 760 186 728 q 214 794 186 794 q 275 810 254 794 q 296 871 296 826 q 217 942 296 942 q 132 886 132 942 q 93 854 132 854 q 58 861 65 854 q 50 890 50 868 q 89 976 50 938 q 217 1015 128 1015 q 378 885 378 1015 q 314 764 378 792 q 394 651 394 736 l 394 639 q 344 517 394 556 q 213 479 294 479 q 81 519 126 479 q 36 608 36 558 z "},"´":{"ha":233,"x_min":0,"x_max":233,"o":"m 0 858 q 18 889 0 879 l 181 975 q 194 978 189 978 q 222 963 211 978 q 233 931 233 949 q 214 897 233 907 l 57 817 q 42 811 46 811 q 13 826 25 811 q 0 858 0 840 z "},"µ":{"ha":690,"x_min":92,"x_max":635,"o":"m 92 -278 l 92 617 q 108 646 92 633 q 149 658 125 658 q 189 645 171 658 q 207 617 207 632 l 207 236 q 257 142 207 190 q 367 93 307 93 q 474 143 428 93 q 519 256 519 193 l 519 617 q 537 646 519 633 q 576 658 554 658 q 618 647 601 658 q 635 617 635 635 l 635 256 q 556 68 635 147 q 365 -11 478 -11 q 196 69 258 -11 l 196 -278 q 181 -306 196 -293 q 147 -318 167 -318 q 108 -306 124 -318 q 92 -278 92 -294 z "},"¶":{"ha":738,"x_min":40,"x_max":639,"o":"m 40 713 l 40 729 q 115 947 40 878 q 313 1015 189 1015 l 597 1015 q 626 1004 614 1015 q 639 974 639 993 l 639 40 q 626 10 639 21 q 597 0 614 0 q 568 10 581 0 q 556 40 556 21 l 556 949 l 446 949 l 446 42 q 433 11 446 22 q 404 0 421 0 q 375 11 388 0 q 363 42 363 22 l 363 425 l 313 425 q 115 494 189 425 q 40 713 40 564 z "},"·":{"ha":261,"x_min":56,"x_max":206,"o":"m 78 368 q 67 378 78 368 q 56 417 56 389 q 78 465 56 444 q 132 486 100 486 q 184 465 163 486 q 206 417 206 444 q 184 368 206 389 q 132 347 163 347 q 78 368 100 347 z "},"¸":{"ha":240,"x_min":0,"x_max":240,"o":"m 0 -257 q 7 -233 0 -247 q 25 -218 14 -218 q 52 -228 28 -218 q 103 -237 76 -237 q 175 -186 175 -237 q 93 -129 175 -136 l 33 -125 l 69 13 l 132 13 l 107 -81 q 207 -111 174 -82 q 240 -182 240 -140 q 208 -260 240 -226 q 111 -294 175 -294 q 37 -285 74 -294 q 0 -257 0 -275 z "},"¹":{"ha":243,"x_min":19,"x_max":178,"o":"m 19 907 q 36 938 19 928 l 119 1008 q 142 1017 128 1017 q 167 1009 156 1017 q 178 989 178 1001 l 178 511 q 136 483 178 483 q 94 511 94 483 l 94 908 l 67 881 q 49 874 58 874 q 28 884 36 874 q 19 907 19 894 z "},"º":{"ha":460,"x_min":49,"x_max":411,"o":"m 49 775 l 49 861 q 101 984 49 932 q 229 1036 154 1036 q 357 984 303 1036 q 411 861 411 932 l 411 775 q 356 652 411 706 q 229 599 301 599 q 103 652 157 599 q 49 775 49 706 m 135 775 q 163 706 135 736 q 229 675 190 675 q 297 706 268 675 q 326 775 326 736 l 326 861 q 298 929 326 900 q 229 958 269 958 q 163 929 190 958 q 135 861 135 900 l 135 775 z "},"»":{"ha":603,"x_min":56,"x_max":558,"o":"m 56 160 q 60 175 56 169 l 172 385 l 60 594 q 56 610 56 603 q 76 649 56 629 q 124 668 97 668 q 161 650 150 668 l 278 432 q 297 385 297 396 q 278 338 297 374 l 161 121 q 125 103 151 103 q 77 122 99 103 q 56 160 56 140 m 315 160 q 319 175 315 169 l 433 385 l 319 594 q 315 610 315 603 q 336 649 315 629 q 383 668 357 668 q 421 650 411 668 l 539 432 q 558 385 558 396 q 539 338 558 374 l 421 121 q 385 103 411 103 q 337 122 358 103 q 315 160 315 140 z "},"¼":{"ha":860,"x_min":38,"x_max":829,"o":"m 38 907 q 54 938 38 928 l 138 1008 q 160 1017 146 1017 q 185 1009 174 1017 q 196 989 196 1001 l 196 511 q 154 483 196 483 q 113 511 113 483 l 113 908 l 85 881 q 67 874 76 874 q 46 884 54 874 q 38 907 38 894 m 99 0 q 103 18 99 10 l 624 1049 q 658 1069 633 1069 q 691 1056 676 1069 q 706 1024 706 1043 q 701 1004 706 1014 l 182 -19 q 143 -42 172 -42 q 112 -29 125 -42 q 99 0 99 -17 m 451 149 q 456 165 451 157 l 649 510 q 686 532 663 532 q 714 523 700 532 q 728 500 728 514 q 725 488 728 496 l 558 196 l 678 196 l 678 288 q 718 314 678 314 q 761 288 761 314 l 761 196 l 801 196 q 829 157 829 196 q 820 130 829 142 q 801 118 811 118 l 761 118 l 761 28 q 718 0 761 0 q 678 28 678 0 l 678 118 l 481 118 q 451 149 451 118 z "},"½":{"ha":868,"x_min":36,"x_max":828,"o":"m 36 907 q 53 938 36 928 l 136 1008 q 158 1017 144 1017 q 183 1009 172 1017 q 194 989 194 1001 l 194 511 q 153 483 194 483 q 111 511 111 483 l 111 908 l 83 881 q 65 874 75 874 q 44 884 53 874 q 36 907 36 894 m 75 0 q 79 18 75 10 l 600 1049 q 635 1069 611 1069 q 667 1056 653 1069 q 682 1024 682 1043 q 678 1004 682 1014 l 158 -19 q 119 -42 149 -42 q 88 -29 101 -42 q 75 0 75 -17 m 478 28 l 478 99 q 519 177 478 138 q 609 244 560 217 q 699 310 658 272 q 740 383 740 347 q 718 433 740 411 q 653 456 696 456 q 572 386 572 456 q 560 365 572 374 q 528 356 547 356 q 490 400 490 356 q 538 496 490 460 q 653 532 585 532 q 774 492 725 532 q 824 386 824 451 q 797 306 824 343 q 733 242 771 268 q 656 192 694 215 q 592 146 618 169 q 565 101 565 122 l 565 74 l 800 74 q 819 63 811 74 q 828 38 828 53 q 819 11 828 22 q 800 0 811 0 l 517 0 q 490 8 503 0 q 478 28 478 17 z "},"¾":{"ha":1043,"x_min":42,"x_max":1013,"o":"m 42 608 q 50 635 42 628 q 81 642 58 642 q 115 635 106 642 q 125 613 125 629 q 149 570 125 588 q 219 553 174 553 q 293 573 269 553 q 317 639 317 593 l 317 651 q 219 728 317 728 q 192 760 192 728 q 219 794 192 794 q 281 810 260 794 q 301 871 301 826 q 222 942 301 942 q 138 886 138 942 q 99 854 138 854 q 63 861 71 854 q 56 890 56 868 q 94 976 56 938 q 222 1015 133 1015 q 383 885 383 1015 q 319 764 383 792 q 400 651 400 736 l 400 639 q 350 517 400 556 q 218 479 300 479 q 87 519 132 479 q 42 608 42 558 m 274 0 q 278 18 274 10 l 799 1049 q 833 1069 808 1069 q 866 1056 851 1069 q 881 1024 881 1043 q 876 1004 881 1014 l 357 -19 q 318 -42 347 -42 q 287 -29 300 -42 q 274 0 274 -17 m 635 149 q 639 165 635 157 l 832 510 q 869 532 846 532 q 897 523 883 532 q 911 500 911 514 q 908 488 911 496 l 742 196 l 861 196 l 861 288 q 901 314 861 314 q 944 288 944 314 l 944 196 l 985 196 q 1013 157 1013 196 q 1003 130 1013 142 q 985 118 994 118 l 944 118 l 944 28 q 901 0 944 0 q 861 28 861 0 l 861 118 l 664 118 q 635 149 635 118 z "},"¿":{"ha":567,"x_min":42,"x_max":536,"o":"m 42 235 q 65 345 42 292 q 111 426 88 399 q 174 492 135 454 l 221 538 q 266 614 257 572 q 275 742 275 656 q 322 778 275 778 q 367 726 367 778 q 349 576 367 626 q 300 492 332 526 q 253 447 289 479 q 198 394 218 415 q 159 331 178 372 q 140 246 140 290 q 186 127 140 169 q 315 85 232 85 q 390 97 358 85 q 434 122 421 108 q 462 148 447 136 q 490 160 476 160 q 522 147 508 160 q 536 114 536 135 q 471 32 536 72 q 311 -8 406 -8 q 113 60 185 -8 q 42 235 42 129 m 249 957 q 269 1008 249 986 q 321 1029 290 1029 q 372 1008 351 1029 q 393 957 393 986 q 372 905 393 926 q 321 883 351 883 q 270 905 292 883 q 249 957 249 926 z "},"À":{"ha":764,"x_min":24,"x_max":739,"o":"m 24 49 q 26 60 24 51 l 310 983 q 382 1024 322 1024 q 454 983 442 1024 l 738 60 q 738 54 738 57 q 739 50 739 51 q 716 15 739 31 q 667 0 693 0 q 625 26 633 0 l 564 233 l 199 233 l 138 26 q 94 0 129 0 q 47 14 69 0 q 24 49 24 28 m 225 329 l 536 329 l 382 851 l 225 329 m 256 1279 q 267 1312 256 1297 q 294 1326 278 1326 q 308 1324 300 1326 l 471 1238 q 489 1207 489 1228 q 476 1174 489 1189 q 447 1160 464 1160 q 432 1165 443 1160 l 275 1246 q 256 1279 256 1256 z "},"Á":{"ha":764,"x_min":24,"x_max":739,"o":"m 24 49 q 26 60 24 51 l 310 983 q 382 1024 322 1024 q 454 983 442 1024 l 738 60 q 738 54 738 57 q 739 50 739 51 q 716 15 739 31 q 667 0 693 0 q 625 26 633 0 l 564 233 l 199 233 l 138 26 q 94 0 129 0 q 47 14 69 0 q 24 49 24 28 m 225 329 l 536 329 l 382 851 l 225 329 m 286 1207 q 304 1238 286 1228 l 467 1324 q 481 1326 475 1326 q 508 1312 497 1326 q 519 1279 519 1297 q 500 1246 519 1256 l 343 1165 q 328 1160 332 1160 q 299 1174 311 1160 q 286 1207 286 1189 z "},"Â":{"ha":764,"x_min":24,"x_max":739,"o":"m 24 49 q 26 60 24 51 l 310 983 q 382 1024 322 1024 q 454 983 442 1024 l 738 60 q 738 54 738 57 q 739 50 739 51 q 716 15 739 31 q 667 0 693 0 q 625 26 633 0 l 564 233 l 199 233 l 138 26 q 94 0 129 0 q 47 14 69 0 q 24 49 24 28 m 192 1206 q 213 1242 192 1231 l 357 1319 q 381 1326 371 1326 q 404 1319 393 1326 l 549 1243 q 571 1204 571 1231 q 562 1177 571 1189 q 539 1165 553 1165 q 531 1167 536 1165 q 525 1169 528 1169 l 381 1247 l 236 1169 q 224 1165 231 1165 q 201 1178 211 1165 q 192 1206 192 1190 m 225 329 l 536 329 l 382 851 l 225 329 z "},"Ã":{"ha":764,"x_min":24,"x_max":739,"o":"m 24 49 q 26 60 24 51 l 310 983 q 382 1024 322 1024 q 454 983 442 1024 l 738 60 q 738 54 738 57 q 739 50 739 51 q 716 15 739 31 q 667 0 693 0 q 625 26 633 0 l 564 233 l 199 233 l 138 26 q 94 0 129 0 q 47 14 69 0 q 24 49 24 28 m 160 1232 q 201 1294 160 1272 q 281 1317 242 1317 q 375 1294 318 1317 q 468 1271 432 1271 q 532 1290 503 1271 q 569 1308 561 1308 q 594 1295 585 1308 q 603 1269 603 1282 q 564 1206 603 1226 q 486 1186 525 1186 q 389 1209 444 1186 q 297 1232 333 1232 q 231 1212 263 1232 q 192 1192 200 1192 q 168 1205 176 1192 q 160 1232 160 1218 m 225 329 l 536 329 l 382 851 l 225 329 z "},"Ä":{"ha":764,"x_min":24,"x_max":739,"o":"m 24 49 q 26 60 24 51 l 310 983 q 382 1024 322 1024 q 454 983 442 1024 l 738 60 q 738 54 738 57 q 739 50 739 51 q 716 15 739 31 q 667 0 693 0 q 625 26 633 0 l 564 233 l 199 233 l 138 26 q 94 0 129 0 q 47 14 69 0 q 24 49 24 28 m 225 329 l 536 329 l 382 851 l 225 329 m 251 1183 q 243 1191 251 1183 q 235 1224 235 1200 q 251 1264 235 1247 q 292 1281 268 1281 q 331 1264 315 1281 q 347 1224 347 1247 q 331 1183 347 1200 q 292 1165 314 1165 q 251 1183 268 1165 m 433 1183 q 425 1191 433 1183 q 417 1224 417 1200 q 433 1264 417 1247 q 472 1281 449 1281 q 512 1264 496 1281 q 528 1224 528 1247 q 512 1183 528 1200 q 472 1165 496 1165 q 433 1183 449 1165 z "},"Å":{"ha":764,"x_min":24,"x_max":739,"o":"m 24 49 q 26 60 24 51 l 310 983 q 382 1024 322 1024 q 454 983 442 1024 l 738 60 q 738 54 738 57 q 739 50 739 51 q 716 15 739 31 q 667 0 693 0 q 625 26 633 0 l 564 233 l 199 233 l 138 26 q 94 0 129 0 q 47 14 69 0 q 24 49 24 28 m 225 329 l 536 329 l 382 851 l 225 329 m 250 1283 q 288 1376 250 1336 q 381 1415 326 1415 q 472 1375 432 1415 q 511 1283 511 1335 q 472 1190 511 1231 q 381 1149 432 1149 q 288 1189 326 1149 q 250 1283 250 1229 m 303 1283 q 326 1227 303 1253 q 381 1201 349 1201 q 434 1227 411 1201 q 457 1283 457 1253 q 434 1336 457 1313 q 381 1360 411 1360 q 326 1335 349 1360 q 303 1283 303 1311 z "},"Æ":{"ha":1021,"x_min":94,"x_max":990,"o":"m 94 49 l 94 713 q 175 942 94 869 q 389 1015 256 1015 l 950 1015 q 980 1000 969 1015 q 990 964 990 985 q 980 925 990 940 q 950 910 969 910 l 626 910 l 626 557 l 821 557 q 850 542 839 557 q 861 507 861 528 q 851 474 861 489 q 821 460 840 460 l 626 460 l 626 106 l 950 106 q 980 90 969 106 q 990 51 990 75 q 980 15 990 31 q 950 0 969 0 l 563 0 q 526 11 542 0 q 510 42 510 22 l 510 460 l 206 460 l 206 49 q 194 12 206 24 q 147 0 183 0 q 94 49 94 0 m 206 557 l 510 557 l 510 910 l 389 910 q 253 860 301 910 q 206 713 206 811 l 206 557 z "},"Ç":{"ha":738,"x_min":89,"x_max":688,"o":"m 89 294 l 89 713 q 172 942 89 868 q 388 1015 254 1015 q 606 947 524 1015 q 688 774 688 878 q 674 723 688 736 q 629 710 660 710 q 571 750 574 710 q 390 910 563 910 q 206 713 206 910 l 206 294 q 394 97 206 97 q 485 113 449 97 q 538 157 521 128 q 561 207 556 186 q 571 263 567 228 q 629 303 575 303 q 674 289 660 303 q 688 238 688 275 q 619 74 688 142 q 435 -6 550 7 l 415 -81 q 515 -111 482 -82 q 549 -182 549 -140 q 516 -260 549 -226 q 419 -294 483 -294 q 345 -285 382 -294 q 308 -257 308 -275 q 315 -233 308 -247 q 333 -218 322 -218 q 360 -228 336 -218 q 411 -237 385 -237 q 483 -186 483 -237 q 401 -129 483 -136 l 342 -125 l 372 -8 q 167 69 244 -4 q 89 294 89 142 z "},"È":{"ha":714,"x_min":99,"x_max":686,"o":"m 99 42 l 99 974 q 115 1004 99 993 q 151 1015 131 1015 l 646 1015 q 676 1000 665 1015 q 686 964 686 985 q 675 926 686 942 q 646 910 664 910 l 215 910 l 215 557 l 432 557 q 461 542 450 557 q 472 507 472 528 q 462 474 472 489 q 432 460 451 460 l 215 460 l 215 106 l 646 106 q 675 90 664 106 q 686 51 686 74 q 676 15 686 31 q 646 0 665 0 l 151 0 q 115 11 131 0 q 99 42 99 22 m 272 1279 q 283 1312 272 1297 q 311 1326 294 1326 q 325 1324 317 1326 l 488 1238 q 506 1207 506 1228 q 493 1174 506 1189 q 464 1160 481 1160 q 449 1165 460 1160 l 292 1246 q 272 1279 272 1256 z "},"É":{"ha":714,"x_min":99,"x_max":686,"o":"m 99 42 l 99 974 q 115 1004 99 993 q 151 1015 131 1015 l 646 1015 q 676 1000 665 1015 q 686 964 686 985 q 675 926 686 942 q 646 910 664 910 l 215 910 l 215 557 l 432 557 q 461 542 450 557 q 472 507 472 528 q 462 474 472 489 q 432 460 451 460 l 215 460 l 215 106 l 646 106 q 675 90 664 106 q 686 51 686 74 q 676 15 686 31 q 646 0 665 0 l 151 0 q 115 11 131 0 q 99 42 99 22 m 289 1207 q 307 1238 289 1228 l 469 1324 q 483 1326 478 1326 q 511 1312 500 1326 q 522 1279 522 1297 q 503 1246 522 1256 l 346 1165 q 331 1160 335 1160 q 301 1174 314 1160 q 289 1207 289 1189 z "},"Ê":{"ha":714,"x_min":99,"x_max":686,"o":"m 99 42 l 99 974 q 115 1004 99 993 q 151 1015 131 1015 l 646 1015 q 676 1000 665 1015 q 686 964 686 985 q 675 926 686 942 q 646 910 664 910 l 215 910 l 215 557 l 432 557 q 461 542 450 557 q 472 507 472 528 q 462 474 472 489 q 432 460 451 460 l 215 460 l 215 106 l 646 106 q 675 90 664 106 q 686 51 686 74 q 676 15 686 31 q 646 0 665 0 l 151 0 q 115 11 131 0 q 99 42 99 22 m 207 1206 q 228 1242 207 1231 l 372 1319 q 396 1326 386 1326 q 419 1319 408 1326 l 564 1243 q 586 1204 586 1231 q 576 1177 586 1189 q 554 1165 567 1165 q 546 1167 551 1165 q 540 1169 543 1169 l 396 1247 l 251 1169 q 239 1165 244 1165 q 217 1178 226 1165 q 207 1206 207 1190 z "},"Ë":{"ha":714,"x_min":99,"x_max":686,"o":"m 99 42 l 99 974 q 115 1004 99 993 q 151 1015 131 1015 l 646 1015 q 676 1000 665 1015 q 686 964 686 985 q 675 926 686 942 q 646 910 664 910 l 215 910 l 215 557 l 432 557 q 461 542 450 557 q 472 507 472 528 q 462 474 472 489 q 432 460 451 460 l 215 460 l 215 106 l 646 106 q 675 90 664 106 q 686 51 686 74 q 676 15 686 31 q 646 0 665 0 l 151 0 q 115 11 131 0 q 99 42 99 22 m 263 1183 q 254 1191 263 1183 q 246 1224 246 1200 q 263 1264 246 1247 q 303 1281 279 1281 q 342 1264 326 1281 q 358 1224 358 1247 q 342 1183 358 1200 q 303 1165 325 1165 q 263 1183 279 1165 m 444 1183 q 436 1191 444 1183 q 428 1224 428 1200 q 444 1264 428 1247 q 483 1281 460 1281 q 523 1264 507 1281 q 539 1224 539 1247 q 523 1183 539 1200 q 483 1165 507 1165 q 444 1183 460 1165 z "},"Ì":{"ha":314,"x_min":35,"x_max":268,"o":"m 35 1279 q 46 1312 35 1297 q 74 1326 57 1326 q 88 1324 79 1326 l 250 1238 q 268 1207 268 1228 q 256 1174 268 1189 q 226 1160 243 1160 q 211 1165 222 1160 l 54 1246 q 35 1279 35 1256 m 99 42 l 99 975 q 116 1005 99 994 q 157 1015 133 1015 q 198 1005 181 1015 q 215 975 215 994 l 215 42 q 198 11 215 22 q 157 0 181 0 q 116 11 133 0 q 99 42 99 22 z "},"Í":{"ha":314,"x_min":44,"x_max":278,"o":"m 44 1207 q 63 1238 44 1228 l 225 1324 q 239 1326 233 1326 q 267 1312 256 1326 q 278 1279 278 1297 q 258 1246 278 1256 l 101 1165 q 86 1160 90 1160 q 57 1174 69 1160 q 44 1207 44 1189 m 99 42 l 99 975 q 116 1005 99 994 q 157 1015 133 1015 q 198 1005 181 1015 q 215 975 215 994 l 215 42 q 198 11 215 22 q 157 0 181 0 q 116 11 133 0 q 99 42 99 22 z "},"Î":{"ha":314,"x_min":-32,"x_max":347,"o":"m -32 1206 q -11 1242 -32 1231 l 133 1319 q 157 1326 147 1326 q 181 1319 169 1326 l 325 1243 q 347 1204 347 1231 q 338 1177 347 1189 q 315 1165 328 1165 q 307 1167 313 1165 q 301 1169 304 1169 l 157 1247 l 13 1169 q 0 1165 6 1165 q -22 1178 -12 1165 q -32 1206 -32 1190 m 99 42 l 99 975 q 116 1005 99 994 q 157 1015 133 1015 q 198 1005 181 1015 q 215 975 215 994 l 215 42 q 198 11 215 22 q 157 0 181 0 q 116 11 133 0 q 99 42 99 22 z "},"Ï":{"ha":314,"x_min":11,"x_max":304,"o":"m 28 1183 q 19 1191 28 1183 q 11 1224 11 1200 q 28 1264 11 1247 q 68 1281 44 1281 q 108 1264 92 1281 q 124 1224 124 1247 q 107 1183 124 1200 q 68 1165 90 1165 q 28 1183 44 1165 m 99 42 l 99 975 q 116 1005 99 994 q 157 1015 133 1015 q 198 1005 181 1015 q 215 975 215 994 l 215 42 q 198 11 215 22 q 157 0 181 0 q 116 11 133 0 q 99 42 99 22 m 209 1183 q 201 1191 209 1183 q 193 1224 193 1200 q 209 1264 193 1247 q 249 1281 225 1281 q 288 1264 272 1281 q 304 1224 304 1247 q 288 1183 304 1200 q 249 1165 272 1165 q 209 1183 225 1165 z "},"Ð":{"ha":797,"x_min":-4,"x_max":708,"o":"m -4 532 q 6 565 -4 551 q 31 578 15 578 l 110 578 l 110 975 q 124 1003 110 992 q 163 1015 139 1015 l 408 1015 q 626 942 544 1015 q 708 713 708 869 l 708 303 q 626 73 708 146 q 408 0 544 0 l 163 0 q 124 12 139 0 q 110 40 110 24 l 110 488 l 31 488 q 5 501 14 488 q -4 532 -4 514 m 226 106 l 408 106 q 544 155 496 106 q 592 303 592 204 l 592 713 q 544 860 592 811 q 408 910 496 910 l 226 910 l 226 578 l 369 578 q 395 564 385 578 q 406 532 406 550 q 395 501 406 514 q 369 488 385 488 l 226 488 l 226 106 z "},"Ñ":{"ha":807,"x_min":99,"x_max":708,"o":"m 99 42 l 99 975 q 157 1015 99 1015 q 206 998 186 1015 q 246 942 226 981 l 592 265 l 592 975 q 609 1005 592 994 q 650 1015 626 1015 q 691 1005 674 1015 q 708 975 708 994 l 708 42 q 691 11 708 22 q 650 0 674 0 q 576 53 606 0 l 215 751 l 215 42 q 198 11 215 22 q 157 0 181 0 q 116 11 133 0 q 99 42 99 22 m 176 1232 q 217 1294 176 1272 q 297 1317 258 1317 q 392 1294 335 1317 q 485 1271 449 1271 q 549 1290 519 1271 q 586 1308 578 1308 q 610 1295 601 1308 q 619 1269 619 1282 q 581 1206 619 1226 q 503 1186 542 1186 q 406 1209 461 1186 q 314 1232 350 1232 q 248 1212 279 1232 q 208 1192 217 1192 q 185 1205 193 1192 q 176 1232 176 1218 z "},"Ò":{"ha":776,"x_min":89,"x_max":688,"o":"m 89 294 l 89 713 q 170 942 89 869 q 388 1015 251 1015 q 606 942 524 1015 q 688 713 688 869 l 688 294 q 606 65 688 138 q 388 -8 524 -8 q 170 65 251 -8 q 89 294 89 138 m 206 294 q 388 97 206 97 q 523 147 475 97 q 571 294 571 196 l 571 713 q 523 860 571 811 q 388 910 475 910 q 206 713 206 910 l 206 294 m 263 1279 q 274 1312 263 1297 q 301 1326 285 1326 q 315 1324 307 1326 l 478 1238 q 496 1207 496 1228 q 483 1174 496 1189 q 454 1160 471 1160 q 439 1165 450 1160 l 282 1246 q 263 1279 263 1256 z "},"Ó":{"ha":776,"x_min":89,"x_max":688,"o":"m 89 294 l 89 713 q 170 942 89 869 q 388 1015 251 1015 q 606 942 524 1015 q 688 713 688 869 l 688 294 q 606 65 688 138 q 388 -8 524 -8 q 170 65 251 -8 q 89 294 89 138 m 206 294 q 388 97 206 97 q 523 147 475 97 q 571 294 571 196 l 571 713 q 523 860 571 811 q 388 910 475 910 q 206 713 206 910 l 206 294 m 296 1207 q 314 1238 296 1228 l 476 1324 q 490 1326 485 1326 q 518 1312 507 1326 q 529 1279 529 1297 q 510 1246 529 1256 l 353 1165 q 338 1160 342 1160 q 308 1174 321 1160 q 296 1207 296 1189 z "},"Ô":{"ha":776,"x_min":89,"x_max":688,"o":"m 89 294 l 89 713 q 170 942 89 869 q 388 1015 251 1015 q 606 942 524 1015 q 688 713 688 869 l 688 294 q 606 65 688 138 q 388 -8 524 -8 q 170 65 251 -8 q 89 294 89 138 m 199 1206 q 219 1242 199 1231 l 364 1319 q 388 1326 378 1326 q 411 1319 400 1326 l 556 1243 q 578 1204 578 1231 q 568 1177 578 1189 q 546 1165 558 1165 q 538 1167 543 1165 q 532 1169 535 1169 l 388 1247 l 243 1169 q 231 1165 236 1165 q 208 1178 218 1165 q 199 1206 199 1190 m 206 294 q 388 97 206 97 q 523 147 475 97 q 571 294 571 196 l 571 713 q 523 860 571 811 q 388 910 475 910 q 206 713 206 910 l 206 294 z "},"Õ":{"ha":776,"x_min":89,"x_max":688,"o":"m 89 294 l 89 713 q 170 942 89 869 q 388 1015 251 1015 q 606 942 524 1015 q 688 713 688 869 l 688 294 q 606 65 688 138 q 388 -8 524 -8 q 170 65 251 -8 q 89 294 89 138 m 167 1232 q 208 1294 167 1272 q 288 1317 249 1317 q 382 1294 325 1317 q 475 1271 439 1271 q 539 1290 510 1271 q 576 1308 568 1308 q 601 1295 592 1308 q 610 1269 610 1282 q 571 1206 610 1226 q 493 1186 532 1186 q 396 1209 451 1186 q 304 1232 340 1232 q 238 1212 269 1232 q 199 1192 207 1192 q 175 1205 183 1192 q 167 1232 167 1218 m 206 294 q 388 97 206 97 q 523 147 475 97 q 571 294 571 196 l 571 713 q 523 860 571 811 q 388 910 475 910 q 206 713 206 910 l 206 294 z "},"Ö":{"ha":776,"x_min":89,"x_max":688,"o":"m 89 294 l 89 713 q 170 942 89 869 q 388 1015 251 1015 q 606 942 524 1015 q 688 713 688 869 l 688 294 q 606 65 688 138 q 388 -8 524 -8 q 170 65 251 -8 q 89 294 89 138 m 206 294 q 388 97 206 97 q 523 147 475 97 q 571 294 571 196 l 571 713 q 523 860 571 811 q 388 910 475 910 q 206 713 206 910 l 206 294 m 258 1183 q 250 1191 258 1183 q 242 1224 242 1200 q 258 1264 242 1247 q 299 1281 275 1281 q 338 1264 322 1281 q 354 1224 354 1247 q 338 1183 354 1200 q 299 1165 321 1165 q 258 1183 275 1165 m 440 1183 q 432 1191 440 1183 q 424 1224 424 1200 q 440 1264 424 1247 q 479 1281 456 1281 q 519 1264 503 1281 q 535 1224 535 1247 q 519 1183 535 1200 q 479 1165 503 1165 q 440 1183 456 1165 z "},"×":{"ha":556,"x_min":75,"x_max":482,"o":"m 75 233 q 85 260 75 249 l 214 382 l 86 503 q 75 531 75 514 q 92 568 75 551 q 129 585 110 585 q 157 574 146 585 l 278 453 l 399 574 q 426 585 410 585 q 464 568 447 585 q 481 531 481 551 q 469 503 481 514 l 343 382 l 471 260 q 482 233 482 246 q 465 197 482 214 q 426 179 447 179 q 400 189 411 179 l 278 313 l 156 189 q 129 179 144 179 q 92 197 110 179 q 75 233 75 214 z "},"Ø":{"ha":776,"x_min":86,"x_max":693,"o":"m 86 0 q 90 18 86 13 l 135 107 q 89 294 89 179 l 89 713 q 170 942 89 869 q 388 1015 251 1015 q 571 968 494 1015 l 611 1049 q 644 1069 622 1069 q 678 1056 663 1069 q 693 1024 693 1043 q 688 1004 693 1014 l 638 904 q 688 713 688 832 l 688 294 q 606 65 688 138 q 388 -8 524 -8 q 200 40 272 -8 l 169 -19 q 131 -42 160 -42 q 99 -29 111 -42 q 86 0 86 -17 m 206 294 q 208 251 206 276 l 518 865 q 388 910 471 910 q 206 713 206 910 l 206 294 m 253 146 q 388 97 297 97 q 523 147 475 97 q 571 294 571 196 l 571 713 q 567 765 571 740 l 253 146 z "},"Ù":{"ha":796,"x_min":94,"x_max":701,"o":"m 94 294 l 94 975 q 112 1005 94 994 q 153 1015 129 1015 q 194 1005 176 1015 q 211 975 211 994 l 211 294 q 397 97 211 97 q 536 147 488 97 q 585 294 585 196 l 585 975 q 643 1015 585 1015 q 684 1005 667 1015 q 701 975 701 994 l 701 294 q 618 65 701 138 q 397 -8 535 -8 q 177 65 260 -8 q 94 294 94 138 m 268 1279 q 279 1312 268 1297 q 307 1326 290 1326 q 321 1324 313 1326 l 483 1238 q 501 1207 501 1228 q 489 1174 501 1189 q 460 1160 476 1160 q 444 1165 456 1160 l 288 1246 q 268 1279 268 1256 z "},"Ú":{"ha":796,"x_min":94,"x_max":701,"o":"m 94 294 l 94 975 q 112 1005 94 994 q 153 1015 129 1015 q 194 1005 176 1015 q 211 975 211 994 l 211 294 q 397 97 211 97 q 536 147 488 97 q 585 294 585 196 l 585 975 q 643 1015 585 1015 q 684 1005 667 1015 q 701 975 701 994 l 701 294 q 618 65 701 138 q 397 -8 535 -8 q 177 65 260 -8 q 94 294 94 138 m 296 1207 q 314 1238 296 1228 l 476 1324 q 490 1326 485 1326 q 518 1312 507 1326 q 529 1279 529 1297 q 510 1246 529 1256 l 353 1165 q 338 1160 342 1160 q 308 1174 321 1160 q 296 1207 296 1189 z "},"Û":{"ha":796,"x_min":94,"x_max":701,"o":"m 94 294 l 94 975 q 112 1005 94 994 q 153 1015 129 1015 q 194 1005 176 1015 q 211 975 211 994 l 211 294 q 397 97 211 97 q 536 147 488 97 q 585 294 585 196 l 585 975 q 643 1015 585 1015 q 684 1005 667 1015 q 701 975 701 994 l 701 294 q 618 65 701 138 q 397 -8 535 -8 q 177 65 260 -8 q 94 294 94 138 m 204 1206 q 225 1242 204 1231 l 369 1319 q 393 1326 383 1326 q 417 1319 406 1326 l 561 1243 q 583 1204 583 1231 q 574 1177 583 1189 q 551 1165 564 1165 q 543 1167 549 1165 q 538 1169 540 1169 l 393 1247 l 249 1169 q 236 1165 242 1165 q 214 1178 224 1165 q 204 1206 204 1190 z "},"Ü":{"ha":796,"x_min":94,"x_max":701,"o":"m 94 294 l 94 975 q 112 1005 94 994 q 153 1015 129 1015 q 194 1005 176 1015 q 211 975 211 994 l 211 294 q 397 97 211 97 q 536 147 488 97 q 585 294 585 196 l 585 975 q 643 1015 585 1015 q 684 1005 667 1015 q 701 975 701 994 l 701 294 q 618 65 701 138 q 397 -8 535 -8 q 177 65 260 -8 q 94 294 94 138 m 267 1183 q 258 1191 267 1183 q 250 1224 250 1200 q 267 1264 250 1247 q 307 1281 283 1281 q 347 1264 331 1281 q 363 1224 363 1247 q 346 1183 363 1200 q 307 1165 329 1165 q 267 1183 283 1165 m 448 1183 q 440 1191 448 1183 q 432 1224 432 1200 q 448 1264 432 1247 q 488 1281 464 1281 q 527 1264 511 1281 q 543 1224 543 1247 q 527 1183 543 1200 q 488 1165 511 1165 q 448 1183 464 1165 z "},"Ý":{"ha":757,"x_min":24,"x_max":733,"o":"m 24 967 q 47 1001 24 988 q 93 1015 69 1015 q 135 985 118 1015 l 379 508 l 622 985 q 664 1015 639 1015 q 711 1001 689 1015 q 733 967 733 988 q 728 943 733 956 l 440 407 q 438 393 438 403 l 438 42 q 420 11 438 22 q 379 0 403 0 q 338 11 356 0 q 321 42 321 22 l 321 393 q 317 407 321 400 l 29 943 q 24 967 24 956 m 272 1207 q 290 1238 272 1228 l 453 1324 q 467 1326 461 1326 q 494 1312 483 1326 q 506 1279 506 1297 q 486 1246 506 1256 l 329 1165 q 314 1160 318 1160 q 285 1174 297 1160 q 272 1207 272 1189 z "},"Þ":{"ha":696,"x_min":99,"x_max":644,"o":"m 99 42 l 99 985 q 115 1014 99 1003 q 154 1025 131 1025 q 197 1014 181 1025 q 214 985 214 1003 l 214 756 q 403 861 275 861 q 574 795 503 861 q 644 624 644 729 l 644 425 q 573 253 644 322 q 410 185 501 185 q 290 217 346 185 q 214 294 233 249 l 214 42 q 197 13 214 25 q 157 0 181 0 q 116 13 133 0 q 99 42 99 25 m 214 418 q 262 331 214 374 q 376 289 310 289 q 483 326 438 289 q 529 425 529 364 l 529 624 q 484 720 529 683 q 376 757 439 757 q 263 719 311 757 q 214 624 214 682 l 214 418 z "},"ß":{"ha":786,"x_min":8,"x_max":736,"o":"m 18 581 q 13 588 18 581 q 8 613 8 594 q 18 644 8 631 q 44 658 28 658 l 139 658 l 139 803 q 198 993 139 919 q 382 1067 257 1067 q 560 1003 492 1067 q 628 814 628 939 q 602 672 628 738 q 531 583 576 606 q 672 489 607 568 q 736 304 736 410 l 736 282 q 658 53 736 133 q 468 -28 581 -28 q 324 39 324 -28 q 333 76 324 58 q 356 94 342 94 q 394 83 361 94 q 460 71 426 71 q 581 124 538 71 q 625 275 625 176 l 625 296 q 574 447 625 386 q 425 521 524 508 q 399 527 407 524 q 383 541 390 531 q 376 569 376 551 q 384 597 376 588 q 400 610 392 607 q 426 617 408 613 q 529 785 529 628 q 494 915 529 868 q 388 963 458 963 q 285 917 317 963 q 254 803 254 872 l 254 40 q 237 12 254 24 q 194 0 219 0 q 155 11 171 0 q 139 40 139 22 l 139 568 l 44 568 q 18 581 28 568 z "},"à":{"ha":622,"x_min":39,"x_max":546,"o":"m 39 174 q 122 324 39 282 q 364 367 206 367 l 431 367 l 431 396 q 392 517 431 465 q 278 568 354 568 q 175 548 219 568 q 126 528 131 528 q 95 547 107 528 q 83 586 83 565 q 147 642 83 618 q 281 667 210 667 q 481 590 417 667 q 546 397 546 513 l 546 42 q 530 12 546 24 q 489 0 514 0 q 451 12 467 0 q 436 42 436 24 l 436 97 q 226 -11 342 -11 q 91 36 143 -11 q 39 174 39 83 m 156 186 q 185 108 156 135 q 263 82 214 82 q 376 128 321 82 q 431 224 431 175 l 431 296 l 382 296 q 313 294 342 296 q 252 285 283 292 q 201 267 221 279 q 168 235 181 256 q 156 186 156 215 m 178 931 q 189 963 178 949 q 217 978 200 978 q 231 975 222 978 l 393 889 q 411 858 411 881 q 399 826 411 840 q 369 811 386 811 q 354 817 365 811 l 197 897 q 178 931 178 907 z "},"á":{"ha":622,"x_min":39,"x_max":546,"o":"m 39 174 q 122 324 39 282 q 364 367 206 367 l 431 367 l 431 396 q 392 517 431 465 q 278 568 354 568 q 175 548 219 568 q 126 528 131 528 q 95 547 107 528 q 83 586 83 565 q 147 642 83 618 q 281 667 210 667 q 481 590 417 667 q 546 397 546 513 l 546 42 q 530 12 546 24 q 489 0 514 0 q 451 12 467 0 q 436 42 436 24 l 436 97 q 226 -11 342 -11 q 91 36 143 -11 q 39 174 39 83 m 156 186 q 185 108 156 135 q 263 82 214 82 q 376 128 321 82 q 431 224 431 175 l 431 296 l 382 296 q 313 294 342 296 q 252 285 283 292 q 201 267 221 279 q 168 235 181 256 q 156 186 156 215 m 189 858 q 207 889 189 879 l 369 975 q 383 978 378 978 q 411 963 400 978 q 422 931 422 949 q 403 897 422 907 l 246 817 q 231 811 235 811 q 201 826 214 811 q 189 858 189 840 z "},"â":{"ha":622,"x_min":39,"x_max":546,"o":"m 39 174 q 122 324 39 282 q 364 367 206 367 l 431 367 l 431 396 q 392 517 431 465 q 278 568 354 568 q 175 548 219 568 q 126 528 131 528 q 95 547 107 528 q 83 586 83 565 q 147 642 83 618 q 281 667 210 667 q 481 590 417 667 q 546 397 546 513 l 546 42 q 530 12 546 24 q 489 0 514 0 q 451 12 467 0 q 436 42 436 24 l 436 97 q 226 -11 342 -11 q 91 36 143 -11 q 39 174 39 83 m 104 857 q 125 893 104 883 l 269 971 q 293 978 283 978 q 317 971 306 978 l 461 894 q 483 856 483 882 q 474 828 483 840 q 451 817 464 817 q 443 818 449 817 q 438 821 440 821 l 293 899 l 149 821 q 136 817 142 817 q 114 829 124 817 q 104 857 104 842 m 156 186 q 185 108 156 135 q 263 82 214 82 q 376 128 321 82 q 431 224 431 175 l 431 296 l 382 296 q 313 294 342 296 q 252 285 283 292 q 201 267 221 279 q 168 235 181 256 q 156 186 156 215 z "},"ã":{"ha":622,"x_min":39,"x_max":546,"o":"m 39 174 q 122 324 39 282 q 364 367 206 367 l 431 367 l 431 396 q 392 517 431 465 q 278 568 354 568 q 175 548 219 568 q 126 528 131 528 q 95 547 107 528 q 83 586 83 565 q 147 642 83 618 q 281 667 210 667 q 481 590 417 667 q 546 397 546 513 l 546 42 q 530 12 546 24 q 489 0 514 0 q 451 12 467 0 q 436 42 436 24 l 436 97 q 226 -11 342 -11 q 91 36 143 -11 q 39 174 39 83 m 74 883 q 115 946 74 924 q 194 968 156 968 q 289 945 232 968 q 382 922 346 922 q 446 941 417 922 q 483 960 475 960 q 508 947 499 960 q 517 921 517 933 q 478 858 517 878 q 400 838 439 838 q 303 860 358 838 q 211 883 247 883 q 145 863 176 883 q 106 843 114 843 q 82 856 90 843 q 74 883 74 869 m 156 186 q 185 108 156 135 q 263 82 214 82 q 376 128 321 82 q 431 224 431 175 l 431 296 l 382 296 q 313 294 342 296 q 252 285 283 292 q 201 267 221 279 q 168 235 181 256 q 156 186 156 215 z "},"ä":{"ha":622,"x_min":39,"x_max":546,"o":"m 39 174 q 122 324 39 282 q 364 367 206 367 l 431 367 l 431 396 q 392 517 431 465 q 278 568 354 568 q 175 548 219 568 q 126 528 131 528 q 95 547 107 528 q 83 586 83 565 q 147 642 83 618 q 281 667 210 667 q 481 590 417 667 q 546 397 546 513 l 546 42 q 530 12 546 24 q 489 0 514 0 q 451 12 467 0 q 436 42 436 24 l 436 97 q 226 -11 342 -11 q 91 36 143 -11 q 39 174 39 83 m 164 834 q 156 843 164 834 q 147 875 147 851 q 164 915 147 899 q 204 932 181 932 q 244 915 228 932 q 260 875 260 899 q 243 834 260 851 q 204 817 226 817 q 164 834 181 817 m 156 186 q 185 108 156 135 q 263 82 214 82 q 376 128 321 82 q 431 224 431 175 l 431 296 l 382 296 q 313 294 342 296 q 252 285 283 292 q 201 267 221 279 q 168 235 181 256 q 156 186 156 215 m 345 834 q 337 843 345 834 q 329 875 329 851 q 345 915 329 899 q 385 932 361 932 q 424 915 408 932 q 440 875 440 899 q 424 834 440 851 q 385 817 408 817 q 345 834 361 817 z "},"å":{"ha":622,"x_min":39,"x_max":546,"o":"m 39 174 q 122 324 39 282 q 364 367 206 367 l 431 367 l 431 396 q 392 517 431 465 q 278 568 354 568 q 175 548 219 568 q 126 528 131 528 q 95 547 107 528 q 83 586 83 565 q 147 642 83 618 q 281 667 210 667 q 481 590 417 667 q 546 397 546 513 l 546 42 q 530 12 546 24 q 489 0 514 0 q 451 12 467 0 q 436 42 436 24 l 436 97 q 226 -11 342 -11 q 91 36 143 -11 q 39 174 39 83 m 156 186 q 185 108 156 135 q 263 82 214 82 q 376 128 321 82 q 431 224 431 175 l 431 296 l 382 296 q 313 294 342 296 q 252 285 283 292 q 201 267 221 279 q 168 235 181 256 q 156 186 156 215 m 165 935 q 203 1027 165 988 q 296 1067 242 1067 q 387 1026 347 1067 q 426 935 426 986 q 387 841 426 882 q 296 800 347 800 q 203 840 242 800 q 165 935 165 881 m 218 935 q 241 878 218 904 q 296 853 264 853 q 349 878 326 853 q 372 935 372 904 q 349 988 372 964 q 296 1011 326 1011 q 241 987 264 1011 q 218 935 218 963 z "},"æ":{"ha":1018,"x_min":39,"x_max":974,"o":"m 39 172 q 122 324 39 282 q 361 367 204 367 l 428 367 l 428 397 q 390 519 428 468 q 274 569 353 569 q 173 549 218 569 q 124 528 128 528 q 93 547 106 528 q 81 588 81 565 q 144 642 81 618 q 279 667 208 667 q 493 543 429 667 q 585 633 529 599 q 706 667 640 667 q 892 597 811 667 q 974 399 974 526 q 946 315 974 335 q 850 296 918 296 l 547 296 l 547 254 q 601 132 547 178 q 742 86 656 86 q 852 113 801 86 q 911 140 903 140 q 943 123 929 140 q 957 88 957 106 q 885 21 957 53 q 729 -11 814 -11 q 583 26 650 -11 q 479 128 517 63 q 372 24 436 60 q 240 -11 307 -11 q 97 36 154 -11 q 39 172 39 83 m 156 183 q 185 108 156 135 q 261 82 214 82 q 376 128 325 82 q 428 224 428 175 l 428 296 l 381 296 q 293 292 328 296 q 224 278 258 289 q 172 243 189 267 q 156 183 156 219 m 547 374 l 801 374 q 852 383 840 374 q 864 417 864 392 q 818 528 864 482 q 704 575 772 575 q 593 531 639 575 q 547 424 547 488 l 547 374 z "},"ç":{"ha":579,"x_min":58,"x_max":547,"o":"m 58 258 l 58 397 q 128 592 58 517 q 335 667 199 667 q 480 636 421 667 q 539 571 539 606 q 524 533 539 551 q 490 514 510 514 q 442 538 485 514 q 343 563 400 563 q 217 519 260 563 q 174 397 174 476 l 174 258 q 344 93 174 93 q 446 118 403 93 q 496 143 489 143 q 533 125 518 143 q 547 88 547 107 q 494 26 547 56 q 363 -10 442 -4 l 344 -81 q 444 -111 411 -82 q 478 -182 478 -140 q 445 -260 478 -226 q 349 -294 413 -294 q 274 -285 311 -294 q 238 -257 238 -275 q 244 -233 238 -247 q 263 -218 251 -218 q 290 -228 265 -218 q 340 -237 314 -237 q 413 -186 413 -237 q 331 -129 413 -136 l 271 -125 l 301 -10 q 119 72 181 -1 q 58 258 58 146 z "},"è":{"ha":646,"x_min":57,"x_max":600,"o":"m 57 258 l 57 404 q 138 589 57 511 q 333 667 219 667 q 521 594 442 667 q 600 411 600 521 q 590 347 600 371 q 560 312 581 322 q 523 299 540 301 q 476 296 506 296 l 172 296 l 172 254 q 227 132 172 178 q 369 86 282 86 q 449 100 415 86 q 504 127 483 114 q 538 140 525 140 q 571 123 557 140 q 585 88 585 106 q 522 22 585 56 q 365 -11 458 -11 q 143 63 229 -11 q 57 258 57 138 m 172 374 l 429 374 q 478 383 465 374 q 490 418 490 392 q 444 528 490 481 q 332 575 399 575 q 219 531 267 575 q 172 424 172 488 l 172 374 m 206 931 q 217 963 206 949 q 244 978 228 978 q 258 975 250 978 l 421 889 q 439 858 439 881 q 426 826 439 840 q 397 811 414 811 q 382 817 393 811 l 225 897 q 206 931 206 907 z "},"é":{"ha":646,"x_min":57,"x_max":600,"o":"m 57 258 l 57 404 q 138 589 57 511 q 333 667 219 667 q 521 594 442 667 q 600 411 600 521 q 590 347 600 371 q 560 312 581 322 q 523 299 540 301 q 476 296 506 296 l 172 296 l 172 254 q 227 132 172 178 q 369 86 282 86 q 449 100 415 86 q 504 127 483 114 q 538 140 525 140 q 571 123 557 140 q 585 88 585 106 q 522 22 585 56 q 365 -11 458 -11 q 143 63 229 -11 q 57 258 57 138 m 172 374 l 429 374 q 478 383 465 374 q 490 418 490 392 q 444 528 490 481 q 332 575 399 575 q 219 531 267 575 q 172 424 172 488 l 172 374 m 217 858 q 235 889 217 879 l 397 975 q 411 978 406 978 q 439 963 428 978 q 450 931 450 949 q 431 897 450 907 l 274 817 q 258 811 263 811 q 229 826 242 811 q 217 858 217 840 z "},"ê":{"ha":646,"x_min":57,"x_max":600,"o":"m 57 258 l 57 404 q 138 589 57 511 q 333 667 219 667 q 521 594 442 667 q 600 411 600 521 q 590 347 600 371 q 560 312 581 322 q 523 299 540 301 q 476 296 506 296 l 172 296 l 172 254 q 227 132 172 178 q 369 86 282 86 q 449 100 415 86 q 504 127 483 114 q 538 140 525 140 q 571 123 557 140 q 585 88 585 106 q 522 22 585 56 q 365 -11 458 -11 q 143 63 229 -11 q 57 258 57 138 m 142 857 q 163 893 142 883 l 307 971 q 331 978 321 978 q 354 971 343 978 l 499 894 q 521 856 521 882 q 512 828 521 840 q 489 817 503 817 q 481 818 486 817 q 475 821 478 821 l 331 899 l 186 821 q 174 817 181 817 q 151 829 161 817 q 142 857 142 842 m 172 374 l 429 374 q 478 383 465 374 q 490 418 490 392 q 444 528 490 481 q 332 575 399 575 q 219 531 267 575 q 172 424 172 488 l 172 374 z "},"ë":{"ha":646,"x_min":57,"x_max":600,"o":"m 57 258 l 57 404 q 138 589 57 511 q 333 667 219 667 q 521 594 442 667 q 600 411 600 521 q 590 347 600 371 q 560 312 581 322 q 523 299 540 301 q 476 296 506 296 l 172 296 l 172 254 q 227 132 172 178 q 369 86 282 86 q 449 100 415 86 q 504 127 483 114 q 538 140 525 140 q 571 123 557 140 q 585 88 585 106 q 522 22 585 56 q 365 -11 458 -11 q 143 63 229 -11 q 57 258 57 138 m 172 374 l 429 374 q 478 383 465 374 q 490 418 490 392 q 444 528 490 481 q 332 575 399 575 q 219 531 267 575 q 172 424 172 488 l 172 374 m 200 834 q 192 843 200 834 q 183 875 183 851 q 200 915 183 899 q 240 932 217 932 q 280 915 264 932 q 296 875 296 899 q 279 834 296 851 q 240 817 263 817 q 200 834 217 817 m 381 834 q 373 843 381 834 q 365 875 365 851 q 381 915 365 899 q 421 932 397 932 q 460 915 444 932 q 476 875 476 899 q 460 834 476 851 q 421 817 444 817 q 381 834 397 817 z "},"ì":{"ha":279,"x_min":11,"x_max":244,"o":"m 11 931 q 22 963 11 949 q 50 978 33 978 q 64 975 56 978 l 226 889 q 244 858 244 881 q 232 826 244 840 q 203 811 219 811 q 188 817 199 811 l 31 897 q 11 931 11 907 m 82 42 l 82 618 q 99 647 82 636 q 139 658 115 658 q 181 647 164 658 q 197 618 197 636 l 197 42 q 180 13 197 26 q 139 0 163 0 q 99 13 115 0 q 82 42 82 25 z "},"í":{"ha":279,"x_min":33,"x_max":267,"o":"m 33 858 q 51 889 33 879 l 214 975 q 228 978 222 978 q 256 963 244 978 q 267 931 267 949 q 247 897 267 907 l 90 817 q 75 811 79 811 q 46 826 58 811 q 33 858 33 840 m 82 42 l 82 618 q 99 647 82 636 q 139 658 115 658 q 181 647 164 658 q 197 618 197 636 l 197 42 q 180 13 197 26 q 139 0 163 0 q 99 13 115 0 q 82 42 82 25 z "},"î":{"ha":279,"x_min":-50,"x_max":329,"o":"m -50 857 q -29 893 -50 883 l 115 971 q 139 978 129 978 q 163 971 151 978 l 307 894 q 329 856 329 882 q 320 828 329 840 q 297 817 311 817 q 289 818 294 817 q 283 821 286 821 l 139 899 l -6 821 q -18 817 -11 817 q -40 829 -31 817 q -50 857 -50 842 m 82 42 l 82 618 q 99 647 82 636 q 139 658 115 658 q 181 647 164 658 q 197 618 197 636 l 197 42 q 180 13 197 26 q 139 0 163 0 q 99 13 115 0 q 82 42 82 25 z "},"ï":{"ha":279,"x_min":-4,"x_max":289,"o":"m 13 834 q 4 843 13 834 q -4 875 -4 851 q 13 915 -4 899 q 53 932 29 932 q 92 915 76 932 q 108 875 108 899 q 92 834 108 851 q 53 817 75 817 q 13 834 29 817 m 82 42 l 82 618 q 99 647 82 636 q 139 658 115 658 q 181 647 164 658 q 197 618 197 636 l 197 42 q 180 13 197 26 q 139 0 163 0 q 99 13 115 0 q 82 42 82 25 m 194 834 q 186 843 194 834 q 178 875 178 851 q 194 915 178 899 q 233 932 210 932 q 273 915 257 932 q 289 875 289 899 q 273 834 289 851 q 233 817 257 817 q 194 834 210 817 z "},"ð":{"ha":683,"x_min":57,"x_max":608,"o":"m 57 258 l 57 400 q 130 588 57 508 q 303 667 203 667 q 419 635 365 667 q 493 553 474 603 q 404 829 482 717 l 300 768 q 285 764 294 764 q 256 780 269 764 q 242 814 242 796 q 257 840 242 833 l 353 896 q 233 956 297 953 q 206 999 206 969 q 221 1038 206 1019 q 268 1056 236 1056 q 453 956 365 1056 l 547 1011 q 561 1015 553 1015 q 592 1000 578 1015 q 606 967 606 985 q 589 939 606 947 l 501 886 q 608 494 608 714 l 608 258 q 526 71 608 153 q 333 -11 443 -11 q 140 70 222 -11 q 57 258 57 151 m 172 258 q 220 143 172 193 q 333 93 268 93 q 446 144 399 93 q 493 258 493 194 l 493 404 q 444 515 493 468 q 332 563 396 563 q 219 513 265 563 q 172 400 172 463 l 172 258 z "},"ñ":{"ha":699,"x_min":82,"x_max":622,"o":"m 82 42 l 82 618 q 98 647 82 636 q 139 658 114 658 q 176 647 160 658 q 192 618 192 635 l 192 561 q 263 636 214 606 q 378 667 313 667 q 549 588 476 667 q 622 400 622 510 l 622 42 q 605 11 622 22 q 564 0 588 0 q 524 11 542 0 q 507 42 507 22 l 507 400 q 460 513 507 463 q 349 563 413 563 q 243 517 289 563 q 197 400 197 472 l 197 42 q 179 13 197 26 q 139 0 161 0 q 99 13 115 0 q 82 42 82 25 m 124 883 q 165 946 124 924 q 244 968 206 968 q 339 945 282 968 q 432 922 396 922 q 496 941 467 922 q 533 960 525 960 q 558 947 549 960 q 567 921 567 933 q 528 858 567 878 q 450 838 489 838 q 353 860 408 838 q 261 883 297 883 q 195 863 226 883 q 156 843 164 843 q 132 856 140 843 q 124 883 124 869 z "},"ò":{"ha":663,"x_min":57,"x_max":606,"o":"m 57 258 l 57 400 q 138 587 57 507 q 331 667 219 667 q 524 588 442 667 q 606 400 606 508 l 606 258 q 523 71 606 153 q 331 -11 440 -11 q 139 70 221 -11 q 57 258 57 151 m 172 258 q 219 143 172 193 q 331 93 267 93 q 443 144 396 93 q 490 258 490 194 l 490 400 q 443 513 490 463 q 331 563 396 563 q 219 513 265 563 q 172 400 172 463 l 172 258 m 206 931 q 217 963 206 949 q 244 978 228 978 q 258 975 250 978 l 421 889 q 439 858 439 881 q 426 826 439 840 q 397 811 414 811 q 382 817 393 811 l 225 897 q 206 931 206 907 z "},"ó":{"ha":663,"x_min":57,"x_max":606,"o":"m 57 258 l 57 400 q 138 587 57 507 q 331 667 219 667 q 524 588 442 667 q 606 400 606 508 l 606 258 q 523 71 606 153 q 331 -11 440 -11 q 139 70 221 -11 q 57 258 57 151 m 172 258 q 219 143 172 193 q 331 93 267 93 q 443 144 396 93 q 490 258 490 194 l 490 400 q 443 513 490 463 q 331 563 396 563 q 219 513 265 563 q 172 400 172 463 l 172 258 m 217 858 q 235 889 217 879 l 397 975 q 411 978 406 978 q 439 963 428 978 q 450 931 450 949 q 431 897 450 907 l 274 817 q 258 811 263 811 q 229 826 242 811 q 217 858 217 840 z "},"ô":{"ha":663,"x_min":57,"x_max":606,"o":"m 57 258 l 57 400 q 138 587 57 507 q 331 667 219 667 q 524 588 442 667 q 606 400 606 508 l 606 258 q 523 71 606 153 q 331 -11 440 -11 q 139 70 221 -11 q 57 258 57 151 m 142 857 q 163 893 142 883 l 307 971 q 331 978 321 978 q 354 971 343 978 l 499 894 q 521 856 521 882 q 512 828 521 840 q 489 817 503 817 q 481 818 486 817 q 475 821 478 821 l 331 899 l 186 821 q 174 817 181 817 q 151 829 161 817 q 142 857 142 842 m 172 258 q 219 143 172 193 q 331 93 267 93 q 443 144 396 93 q 490 258 490 194 l 490 400 q 443 513 490 463 q 331 563 396 563 q 219 513 265 563 q 172 400 172 463 l 172 258 z "},"õ":{"ha":663,"x_min":57,"x_max":606,"o":"m 57 258 l 57 400 q 138 587 57 507 q 331 667 219 667 q 524 588 442 667 q 606 400 606 508 l 606 258 q 523 71 606 153 q 331 -11 440 -11 q 139 70 221 -11 q 57 258 57 151 m 110 883 q 151 946 110 924 q 231 968 192 968 q 325 945 268 968 q 418 922 382 922 q 482 941 453 922 q 519 960 511 960 q 544 947 535 960 q 553 921 553 933 q 514 858 553 878 q 436 838 475 838 q 339 860 394 838 q 247 883 283 883 q 181 863 213 883 q 142 843 150 843 q 118 856 126 843 q 110 883 110 869 m 172 258 q 219 143 172 193 q 331 93 267 93 q 443 144 396 93 q 490 258 490 194 l 490 400 q 443 513 490 463 q 331 563 396 563 q 219 513 265 563 q 172 400 172 463 l 172 258 z "},"ö":{"ha":663,"x_min":57,"x_max":606,"o":"m 57 258 l 57 400 q 138 587 57 507 q 331 667 219 667 q 524 588 442 667 q 606 400 606 508 l 606 258 q 523 71 606 153 q 331 -11 440 -11 q 139 70 221 -11 q 57 258 57 151 m 172 258 q 219 143 172 193 q 331 93 267 93 q 443 144 396 93 q 490 258 490 194 l 490 400 q 443 513 490 463 q 331 563 396 563 q 219 513 265 563 q 172 400 172 463 l 172 258 m 201 834 q 193 843 201 834 q 185 875 185 851 q 201 915 185 899 q 242 932 218 932 q 281 915 265 932 q 297 875 297 899 q 281 834 297 851 q 242 817 264 817 q 201 834 218 817 m 383 834 q 375 843 383 834 q 367 875 367 851 q 383 915 367 899 q 422 932 399 932 q 462 915 446 932 q 478 875 478 899 q 462 834 478 851 q 422 817 446 817 q 383 834 399 817 z "},"÷":{"ha":624,"x_min":49,"x_max":575,"o":"m 60 298 q 55 305 60 298 q 49 332 49 311 q 60 367 49 353 q 90 381 72 381 l 532 381 q 562 367 549 381 q 575 332 575 353 q 562 298 575 311 q 532 285 549 285 l 90 285 q 60 298 72 285 m 233 103 q 256 153 233 132 q 307 174 278 174 q 358 153 336 174 q 379 103 379 132 q 357 53 379 75 q 307 32 335 32 q 256 53 278 32 q 233 103 233 75 m 256 513 q 244 523 256 513 q 233 563 233 533 q 256 613 233 592 q 307 633 278 633 q 358 613 336 633 q 379 563 379 592 q 358 513 379 533 q 307 492 336 492 q 256 513 278 492 z "},"ø":{"ha":663,"x_min":57,"x_max":606,"o":"m 57 258 l 57 400 q 138 587 57 507 q 331 667 219 667 q 472 626 406 667 l 513 693 q 536 707 521 707 q 559 697 549 707 q 569 674 569 688 q 563 653 569 664 l 522 589 q 606 400 606 510 l 606 258 q 523 71 606 153 q 331 -11 440 -11 q 182 35 250 -11 l 142 -31 q 118 -44 133 -44 q 97 -36 107 -44 q 88 -15 88 -28 q 93 3 88 -8 l 136 72 q 57 258 57 154 m 172 258 q 196 172 172 213 l 417 535 q 331 563 375 563 q 219 513 265 563 q 172 400 172 463 l 172 258 m 238 125 q 331 93 281 93 q 443 144 396 93 q 490 258 490 194 l 490 400 q 461 489 490 446 l 238 125 z "},"ù":{"ha":701,"x_min":76,"x_max":625,"o":"m 76 256 l 76 617 q 94 646 76 633 q 135 658 111 658 q 174 645 157 658 q 192 617 192 632 l 192 256 q 239 143 192 193 q 351 93 286 93 q 463 142 415 93 q 510 256 510 192 l 510 618 q 527 646 510 633 q 568 658 544 658 q 609 647 593 658 q 625 618 625 635 l 625 256 q 544 69 625 149 q 351 -11 463 -11 q 158 69 239 -11 q 76 256 76 149 m 225 931 q 236 963 225 949 q 264 978 247 978 q 278 975 269 978 l 440 889 q 458 858 458 881 q 446 826 458 840 q 417 811 433 811 q 401 817 413 811 l 244 897 q 225 931 225 907 z "},"ú":{"ha":701,"x_min":76,"x_max":625,"o":"m 76 256 l 76 617 q 94 646 76 633 q 135 658 111 658 q 174 645 157 658 q 192 617 192 632 l 192 256 q 239 143 192 193 q 351 93 286 93 q 463 142 415 93 q 510 256 510 192 l 510 618 q 527 646 510 633 q 568 658 544 658 q 609 647 593 658 q 625 618 625 635 l 625 256 q 544 69 625 149 q 351 -11 463 -11 q 158 69 239 -11 q 76 256 76 149 m 242 858 q 260 889 242 879 l 422 975 q 436 978 431 978 q 464 963 453 978 q 475 931 475 949 q 456 897 475 907 l 299 817 q 283 811 288 811 q 254 826 267 811 q 242 858 242 840 z "},"û":{"ha":701,"x_min":76,"x_max":625,"o":"m 76 256 l 76 617 q 94 646 76 633 q 135 658 111 658 q 174 645 157 658 q 192 617 192 632 l 192 256 q 239 143 192 193 q 351 93 286 93 q 463 142 415 93 q 510 256 510 192 l 510 618 q 527 646 510 633 q 568 658 544 658 q 609 647 593 658 q 625 618 625 635 l 625 256 q 544 69 625 149 q 351 -11 463 -11 q 158 69 239 -11 q 76 256 76 149 m 161 857 q 182 893 161 883 l 326 971 q 350 978 340 978 q 374 971 363 978 l 518 894 q 540 856 540 882 q 531 828 540 840 q 508 817 522 817 q 500 818 506 817 q 494 821 497 821 l 350 899 l 206 821 q 193 817 200 817 q 171 829 181 817 q 161 857 161 842 z "},"ü":{"ha":701,"x_min":76,"x_max":625,"o":"m 76 256 l 76 617 q 94 646 76 633 q 135 658 111 658 q 174 645 157 658 q 192 617 192 632 l 192 256 q 239 143 192 193 q 351 93 286 93 q 463 142 415 93 q 510 256 510 192 l 510 618 q 527 646 510 633 q 568 658 544 658 q 609 647 593 658 q 625 618 625 635 l 625 256 q 544 69 625 149 q 351 -11 463 -11 q 158 69 239 -11 q 76 256 76 149 m 221 834 q 213 843 221 834 q 204 875 204 851 q 221 915 204 899 q 261 932 238 932 q 301 915 285 932 q 317 875 317 899 q 300 834 317 851 q 261 817 283 817 q 221 834 238 817 m 402 834 q 394 843 402 834 q 386 875 386 851 q 402 915 386 899 q 442 932 418 932 q 481 915 465 932 q 497 875 497 899 q 481 834 497 851 q 442 817 465 817 q 402 834 418 817 z "},"ý":{"ha":607,"x_min":17,"x_max":589,"o":"m 17 611 q 42 650 17 633 q 92 667 67 667 q 129 643 121 667 l 313 160 l 478 643 q 514 667 488 667 q 563 650 538 667 q 589 610 589 633 q 585 596 589 603 l 374 31 l 347 -39 q 319 -106 340 -58 q 285 -174 299 -153 q 246 -228 271 -194 q 197 -278 221 -262 q 141 -306 174 -293 q 72 -318 108 -318 q 18 -267 18 -318 q 51 -217 18 -217 q 173 -147 114 -217 q 253 33 232 -76 l 22 596 q 17 611 17 604 m 214 858 q 232 889 214 879 l 394 975 q 408 978 403 978 q 436 963 425 978 q 447 931 447 949 q 428 897 447 907 l 271 817 q 256 811 260 811 q 226 826 239 811 q 214 858 214 840 z "},"þ":{"ha":686,"x_min":83,"x_max":629,"o":"m 83 -276 l 83 1015 q 99 1044 83 1033 q 139 1056 115 1056 q 182 1044 165 1056 q 199 1015 199 1033 l 199 561 q 271 636 224 606 q 379 667 318 667 q 556 588 483 667 q 629 400 629 510 l 629 258 q 556 71 629 153 q 385 -11 482 -11 q 273 20 324 -11 q 199 97 222 51 l 199 -276 q 181 -305 199 -292 q 140 -318 164 -318 q 100 -306 117 -318 q 83 -276 83 -293 m 199 221 q 247 140 199 186 q 356 93 294 93 q 466 144 418 93 q 514 258 514 194 l 514 400 q 466 513 514 463 q 353 563 418 563 q 245 517 292 563 q 199 400 199 472 l 199 221 z "},"ÿ":{"ha":607,"x_min":17,"x_max":589,"o":"m 17 611 q 42 650 17 633 q 92 667 67 667 q 129 643 121 667 l 313 160 l 478 643 q 514 667 488 667 q 563 650 538 667 q 589 610 589 633 q 585 596 589 603 l 374 31 l 347 -39 q 319 -106 340 -58 q 285 -174 299 -153 q 246 -228 271 -194 q 197 -278 221 -262 q 141 -306 174 -293 q 72 -318 108 -318 q 18 -267 18 -318 q 51 -217 18 -217 q 173 -147 114 -217 q 253 33 232 -76 l 22 596 q 17 611 17 604 m 181 834 q 172 843 181 834 q 164 875 164 851 q 181 915 164 899 q 221 932 197 932 q 260 915 244 932 q 276 875 276 899 q 260 834 276 851 q 221 817 243 817 q 181 834 197 817 m 362 834 q 354 843 362 834 q 346 875 346 851 q 362 915 346 899 q 401 932 378 932 q 441 915 425 932 q 457 875 457 899 q 441 834 457 851 q 401 817 425 817 q 362 834 378 817 z "},"Ā":{"ha":764,"x_min":24,"x_max":739,"o":"m 24 49 q 26 60 24 51 l 310 983 q 382 1024 322 1024 q 454 983 442 1024 l 738 60 q 738 54 738 57 q 739 50 739 51 q 716 15 739 31 q 667 0 693 0 q 625 26 633 0 l 564 233 l 199 233 l 138 26 q 94 0 129 0 q 47 14 69 0 q 24 49 24 28 m 204 1233 q 199 1239 204 1233 q 193 1263 193 1244 q 204 1293 193 1281 q 233 1306 215 1306 l 528 1306 q 557 1293 544 1306 q 569 1263 569 1281 q 557 1233 569 1244 q 528 1221 544 1221 l 233 1221 q 204 1233 215 1221 m 225 329 l 536 329 l 382 851 l 225 329 z "},"ā":{"ha":622,"x_min":39,"x_max":546,"o":"m 39 174 q 122 324 39 282 q 364 367 206 367 l 431 367 l 431 396 q 392 517 431 465 q 278 568 354 568 q 175 548 219 568 q 126 528 131 528 q 95 547 107 528 q 83 586 83 565 q 147 642 83 618 q 281 667 210 667 q 481 590 417 667 q 546 397 546 513 l 546 42 q 530 12 546 24 q 489 0 514 0 q 451 12 467 0 q 436 42 436 24 l 436 97 q 226 -11 342 -11 q 91 36 143 -11 q 39 174 39 83 m 128 884 q 122 890 128 884 q 117 914 117 896 q 128 944 117 932 q 157 957 139 957 l 451 957 q 480 944 467 957 q 493 914 493 931 q 481 884 493 896 q 451 872 468 872 l 157 872 q 128 884 139 872 m 156 186 q 185 108 156 135 q 263 82 214 82 q 376 128 321 82 q 431 224 431 175 l 431 296 l 382 296 q 313 294 342 296 q 252 285 283 292 q 201 267 221 279 q 168 235 181 256 q 156 186 156 215 z "},"Ă":{"ha":764,"x_min":24,"x_max":739,"o":"m 24 49 q 26 60 24 51 l 310 983 q 382 1024 322 1024 q 454 983 442 1024 l 738 60 q 738 54 738 57 q 739 50 739 51 q 716 15 739 31 q 667 0 693 0 q 625 26 633 0 l 564 233 l 199 233 l 138 26 q 94 0 129 0 q 47 14 69 0 q 24 49 24 28 m 213 1343 l 283 1343 q 313 1265 283 1297 q 381 1233 342 1233 q 449 1265 419 1233 q 478 1343 478 1297 l 549 1343 q 498 1226 549 1276 q 381 1175 447 1175 q 263 1226 314 1175 q 213 1343 213 1276 m 225 329 l 536 329 l 382 851 l 225 329 z "},"ă":{"ha":622,"x_min":39,"x_max":546,"o":"m 39 174 q 122 324 39 282 q 364 367 206 367 l 431 367 l 431 396 q 392 517 431 465 q 278 568 354 568 q 175 548 219 568 q 126 528 131 528 q 95 547 107 528 q 83 586 83 565 q 147 642 83 618 q 281 667 210 667 q 481 590 417 667 q 546 397 546 513 l 546 42 q 530 12 546 24 q 489 0 514 0 q 451 12 467 0 q 436 42 436 24 l 436 97 q 226 -11 342 -11 q 91 36 143 -11 q 39 174 39 83 m 133 994 l 204 994 q 233 917 204 949 q 301 885 263 885 q 369 917 340 885 q 399 994 399 949 l 469 994 q 419 877 469 928 q 301 826 368 826 q 184 877 235 826 q 133 994 133 928 m 156 186 q 185 108 156 135 q 263 82 214 82 q 376 128 321 82 q 431 224 431 175 l 431 296 l 382 296 q 313 294 342 296 q 252 285 283 292 q 201 267 221 279 q 168 235 181 256 q 156 186 156 215 z "},"Ą":{"ha":764,"x_min":24,"x_max":739,"o":"m 24 49 q 26 60 24 51 l 310 983 q 382 1024 322 1024 q 454 983 442 1024 l 738 60 q 738 54 738 57 q 739 50 739 51 q 696 6 739 21 q 596 -164 596 -78 q 681 -226 596 -226 q 708 -257 708 -226 q 672 -283 708 -283 q 570 -256 610 -283 q 531 -174 531 -228 q 629 15 531 -69 l 564 233 l 199 233 l 138 26 q 94 0 129 0 q 47 14 69 0 q 24 49 24 28 m 225 329 l 536 329 l 382 851 l 225 329 z "},"ą":{"ha":622,"x_min":39,"x_max":546,"o":"m 39 174 q 122 324 39 282 q 364 367 206 367 l 431 367 l 431 396 q 392 517 431 465 q 278 568 354 568 q 175 548 219 568 q 126 528 131 528 q 95 547 107 528 q 83 586 83 565 q 147 642 83 618 q 281 667 210 667 q 481 590 417 667 q 546 397 546 513 l 546 42 q 517 6 546 17 q 417 -164 417 -78 q 501 -226 417 -226 q 529 -257 529 -226 q 493 -283 529 -283 q 391 -256 431 -283 q 351 -174 351 -228 q 449 14 351 -69 q 436 42 436 25 l 436 97 q 226 -11 342 -11 q 91 36 143 -11 q 39 174 39 83 m 156 186 q 185 108 156 135 q 263 82 214 82 q 376 128 321 82 q 431 224 431 175 l 431 296 l 382 296 q 313 294 342 296 q 252 285 283 292 q 201 267 221 279 q 168 235 181 256 q 156 186 156 215 z "},"Ć":{"ha":738,"x_min":89,"x_max":688,"o":"m 89 294 l 89 713 q 172 942 89 868 q 388 1015 254 1015 q 606 947 524 1015 q 688 774 688 878 q 674 723 688 736 q 629 710 660 710 q 571 750 574 710 q 390 910 563 910 q 206 713 206 910 l 206 294 q 394 97 206 97 q 485 113 449 97 q 538 157 521 128 q 561 207 556 186 q 571 263 567 228 q 629 303 575 303 q 674 289 660 303 q 688 238 688 275 q 605 62 688 132 q 386 -8 522 -8 q 172 65 254 -8 q 89 294 89 139 m 285 1207 q 303 1238 285 1228 l 465 1324 q 479 1326 474 1326 q 507 1312 496 1326 q 518 1279 518 1297 q 499 1246 518 1256 l 342 1165 q 326 1160 331 1160 q 297 1174 310 1160 q 285 1207 285 1189 z "},"ć":{"ha":579,"x_min":58,"x_max":547,"o":"m 58 258 l 58 397 q 128 592 58 517 q 335 667 199 667 q 480 636 421 667 q 539 571 539 606 q 524 533 539 551 q 490 514 510 514 q 442 538 485 514 q 343 563 400 563 q 217 519 260 563 q 174 397 174 476 l 174 258 q 344 93 174 93 q 446 118 403 93 q 496 143 489 143 q 533 125 518 143 q 547 88 547 107 q 486 21 547 53 q 336 -11 425 -11 q 128 63 199 -11 q 58 258 58 138 m 199 858 q 217 889 199 879 l 379 975 q 393 978 388 978 q 421 963 410 978 q 432 931 432 949 q 413 897 432 907 l 256 817 q 240 811 244 811 q 211 826 224 811 q 199 858 199 840 z "},"Ĉ":{"ha":738,"x_min":89,"x_max":688,"o":"m 89 294 l 89 713 q 172 942 89 868 q 388 1015 254 1015 q 606 947 524 1015 q 688 774 688 878 q 674 723 688 736 q 629 710 660 710 q 571 750 574 710 q 390 910 563 910 q 206 713 206 910 l 206 294 q 394 97 206 97 q 485 113 449 97 q 538 157 521 128 q 561 207 556 186 q 571 263 567 228 q 629 303 575 303 q 674 289 660 303 q 688 238 688 275 q 605 62 688 132 q 386 -8 522 -8 q 172 65 254 -8 q 89 294 89 139 m 199 1206 q 219 1242 199 1231 l 364 1319 q 388 1326 378 1326 q 411 1319 400 1326 l 556 1243 q 578 1204 578 1231 q 568 1177 578 1189 q 546 1165 558 1165 q 538 1167 543 1165 q 532 1169 535 1169 l 388 1247 l 243 1169 q 231 1165 236 1165 q 208 1178 218 1165 q 199 1206 199 1190 z "},"ĉ":{"ha":579,"x_min":58,"x_max":547,"o":"m 58 258 l 58 397 q 128 592 58 517 q 335 667 199 667 q 480 636 421 667 q 539 571 539 606 q 524 533 539 551 q 490 514 510 514 q 442 538 485 514 q 343 563 400 563 q 217 519 260 563 q 174 397 174 476 l 174 258 q 344 93 174 93 q 446 118 403 93 q 496 143 489 143 q 533 125 518 143 q 547 88 547 107 q 486 21 547 53 q 336 -11 425 -11 q 128 63 199 -11 q 58 258 58 138 m 121 857 q 142 893 121 883 l 286 971 q 310 978 300 978 q 333 971 322 978 l 478 894 q 500 856 500 882 q 490 828 500 840 q 468 817 481 817 q 460 818 465 817 q 454 821 457 821 l 310 899 l 165 821 q 153 817 158 817 q 131 829 140 817 q 121 857 121 842 z "},"Ċ":{"ha":738,"x_min":89,"x_max":688,"o":"m 89 294 l 89 713 q 172 942 89 868 q 388 1015 254 1015 q 606 947 524 1015 q 688 774 688 878 q 674 723 688 736 q 629 710 660 710 q 571 750 574 710 q 390 910 563 910 q 206 713 206 910 l 206 294 q 394 97 206 97 q 485 113 449 97 q 538 157 521 128 q 561 207 556 186 q 571 263 567 228 q 629 303 575 303 q 674 289 660 303 q 688 238 688 275 q 605 62 688 132 q 386 -8 522 -8 q 172 65 254 -8 q 89 294 89 139 m 350 1183 q 342 1191 350 1183 q 333 1224 333 1200 q 350 1264 333 1247 q 390 1281 367 1281 q 430 1264 414 1281 q 446 1224 446 1247 q 429 1183 446 1200 q 390 1165 413 1165 q 350 1183 367 1165 z "},"ċ":{"ha":579,"x_min":58,"x_max":547,"o":"m 58 258 l 58 397 q 128 592 58 517 q 335 667 199 667 q 480 636 421 667 q 539 571 539 606 q 524 533 539 551 q 490 514 510 514 q 442 538 485 514 q 343 563 400 563 q 217 519 260 563 q 174 397 174 476 l 174 258 q 344 93 174 93 q 446 118 403 93 q 496 143 489 143 q 533 125 518 143 q 547 88 547 107 q 486 21 547 53 q 336 -11 425 -11 q 128 63 199 -11 q 58 258 58 138 m 268 834 q 260 843 268 834 q 251 875 251 851 q 268 915 251 899 q 308 932 285 932 q 348 915 332 932 q 364 875 364 899 q 347 834 364 851 q 308 817 331 817 q 268 834 285 817 z "},"Č":{"ha":738,"x_min":89,"x_max":688,"o":"m 89 294 l 89 713 q 172 942 89 868 q 388 1015 254 1015 q 606 947 524 1015 q 688 774 688 878 q 674 723 688 736 q 629 710 660 710 q 571 750 574 710 q 390 910 563 910 q 206 713 206 910 l 206 294 q 394 97 206 97 q 485 113 449 97 q 538 157 521 128 q 561 207 556 186 q 571 263 567 228 q 629 303 575 303 q 674 289 660 303 q 688 238 688 275 q 605 62 688 132 q 386 -8 522 -8 q 172 65 254 -8 q 89 294 89 139 m 199 1326 q 207 1352 199 1340 q 228 1364 215 1364 q 247 1356 239 1364 l 386 1239 l 526 1356 q 546 1364 533 1364 q 567 1352 558 1364 q 575 1326 575 1340 q 554 1289 575 1303 l 414 1174 q 386 1161 400 1161 q 360 1174 372 1161 l 218 1289 q 199 1326 199 1303 z "},"č":{"ha":579,"x_min":58,"x_max":547,"o":"m 58 258 l 58 397 q 128 592 58 517 q 335 667 199 667 q 480 636 421 667 q 539 571 539 606 q 524 533 539 551 q 490 514 510 514 q 442 538 485 514 q 343 563 400 563 q 217 519 260 563 q 174 397 174 476 l 174 258 q 344 93 174 93 q 446 118 403 93 q 496 143 489 143 q 533 125 518 143 q 547 88 547 107 q 486 21 547 53 q 336 -11 425 -11 q 128 63 199 -11 q 58 258 58 138 m 117 978 q 125 1003 117 992 q 146 1015 133 1015 q 165 1007 157 1015 l 304 890 l 444 1007 q 464 1015 451 1015 q 485 1003 476 1015 q 493 978 493 992 q 472 940 493 954 l 332 825 q 304 813 317 813 q 278 825 290 813 l 136 940 q 117 978 117 954 z "},"Ď":{"ha":786,"x_min":99,"x_max":697,"o":"m 99 40 l 99 975 q 113 1003 99 992 q 151 1015 128 1015 l 397 1015 q 615 942 533 1015 q 697 713 697 869 l 697 303 q 615 73 697 146 q 397 0 533 0 l 151 0 q 113 12 128 0 q 99 40 99 24 m 194 1326 q 203 1352 194 1340 q 224 1364 211 1364 q 243 1356 235 1364 l 382 1239 l 522 1356 q 542 1364 529 1364 q 563 1352 554 1364 q 571 1326 571 1340 q 550 1289 571 1303 l 410 1174 q 382 1161 394 1161 q 356 1174 368 1161 l 214 1289 q 194 1326 194 1303 m 215 106 l 397 106 q 533 155 485 106 q 581 303 581 204 l 581 713 q 533 860 581 811 q 397 910 485 910 l 215 910 l 215 106 z "},"ď":{"ha":686,"x_min":57,"x_max":826,"o":"m 57 258 l 57 400 q 131 588 57 510 q 306 667 204 667 q 415 636 368 667 q 488 561 463 606 l 488 1015 q 504 1044 488 1033 q 546 1056 521 1056 q 587 1044 571 1056 q 603 1015 603 1033 l 603 42 q 586 13 603 25 q 546 0 569 0 q 509 13 525 0 q 493 42 493 25 l 493 97 q 417 21 469 53 q 301 -11 364 -11 q 131 71 204 -11 q 57 258 57 153 m 172 258 q 219 144 172 194 q 329 93 267 93 q 439 140 390 93 q 488 221 488 186 l 488 400 q 440 517 488 472 q 331 563 393 563 q 219 513 267 563 q 172 400 172 463 l 172 258 m 682 957 q 703 1008 682 986 q 754 1029 724 1029 q 805 1008 783 1029 q 826 957 826 986 q 764 788 826 928 q 736 769 756 769 q 708 778 721 769 q 694 803 694 788 q 697 817 694 808 l 726 889 q 682 957 682 907 z "},"Đ":{"ha":797,"x_min":-4,"x_max":708,"o":"m -4 532 q 6 565 -4 551 q 31 578 15 578 l 110 578 l 110 975 q 124 1003 110 992 q 163 1015 139 1015 l 408 1015 q 626 942 544 1015 q 708 713 708 869 l 708 303 q 626 73 708 146 q 408 0 544 0 l 163 0 q 124 12 139 0 q 110 40 110 24 l 110 488 l 31 488 q 5 501 14 488 q -4 532 -4 514 m 226 106 l 408 106 q 544 155 496 106 q 592 303 592 204 l 592 713 q 544 860 592 811 q 408 910 496 910 l 226 910 l 226 578 l 369 578 q 395 564 385 578 q 406 532 406 550 q 395 501 406 514 q 369 488 385 488 l 226 488 l 226 106 z "},"đ":{"ha":686,"x_min":57,"x_max":699,"o":"m 57 258 l 57 400 q 131 588 57 510 q 306 667 204 667 q 415 636 368 667 q 488 561 463 606 l 488 789 l 339 789 q 313 802 322 789 q 303 833 303 815 q 313 865 303 851 q 339 879 322 879 l 488 879 l 488 1015 q 504 1044 488 1033 q 546 1056 521 1056 q 587 1044 571 1056 q 603 1015 603 1033 l 603 879 l 663 879 q 688 865 678 879 q 699 833 699 851 q 688 801 699 814 q 663 789 678 789 l 603 789 l 603 42 q 586 13 603 25 q 546 0 569 0 q 509 13 525 0 q 493 42 493 25 l 493 97 q 417 21 469 53 q 301 -11 364 -11 q 131 71 204 -11 q 57 258 57 153 m 172 258 q 219 144 172 194 q 329 93 267 93 q 439 140 390 93 q 488 221 488 186 l 488 400 q 440 517 488 472 q 331 563 393 563 q 219 513 267 563 q 172 400 172 463 l 172 258 z "},"Ē":{"ha":714,"x_min":99,"x_max":686,"o":"m 99 42 l 99 974 q 115 1004 99 993 q 151 1015 131 1015 l 646 1015 q 676 1000 665 1015 q 686 964 686 985 q 675 926 686 942 q 646 910 664 910 l 215 910 l 215 557 l 432 557 q 461 542 450 557 q 472 507 472 528 q 462 474 472 489 q 432 460 451 460 l 215 460 l 215 106 l 646 106 q 675 90 664 106 q 686 51 686 74 q 676 15 686 31 q 646 0 665 0 l 151 0 q 115 11 131 0 q 99 42 99 22 m 218 1233 q 213 1239 218 1233 q 207 1263 207 1244 q 218 1293 207 1281 q 247 1306 229 1306 l 542 1306 q 571 1293 558 1306 q 583 1263 583 1281 q 571 1233 583 1244 q 542 1221 558 1221 l 247 1221 q 218 1233 229 1221 z "},"ē":{"ha":646,"x_min":57,"x_max":600,"o":"m 57 258 l 57 404 q 138 589 57 511 q 333 667 219 667 q 521 594 442 667 q 600 411 600 521 q 590 347 600 371 q 560 312 581 322 q 523 299 540 301 q 476 296 506 296 l 172 296 l 172 254 q 227 132 172 178 q 369 86 282 86 q 449 100 415 86 q 504 127 483 114 q 538 140 525 140 q 571 123 557 140 q 585 88 585 106 q 522 22 585 56 q 365 -11 458 -11 q 143 63 229 -11 q 57 258 57 138 m 156 884 q 150 890 156 884 q 144 914 144 896 q 156 944 144 932 q 185 957 167 957 l 479 957 q 508 944 494 957 q 521 914 521 931 q 508 884 521 896 q 479 872 496 872 l 185 872 q 156 884 167 872 m 172 374 l 429 374 q 478 383 465 374 q 490 418 490 392 q 444 528 490 481 q 332 575 399 575 q 219 531 267 575 q 172 424 172 488 l 172 374 z "},"Ĕ":{"ha":714,"x_min":99,"x_max":686,"o":"m 99 42 l 99 974 q 115 1004 99 993 q 151 1015 131 1015 l 646 1015 q 676 1000 665 1015 q 686 964 686 985 q 675 926 686 942 q 646 910 664 910 l 215 910 l 215 557 l 432 557 q 461 542 450 557 q 472 507 472 528 q 462 474 472 489 q 432 460 451 460 l 215 460 l 215 106 l 646 106 q 675 90 664 106 q 686 51 686 74 q 676 15 686 31 q 646 0 665 0 l 151 0 q 115 11 131 0 q 99 42 99 22 m 222 1343 l 293 1343 q 322 1265 293 1297 q 390 1233 351 1233 q 458 1265 429 1233 q 488 1343 488 1297 l 558 1343 q 508 1226 558 1276 q 390 1175 457 1175 q 273 1226 324 1175 q 222 1343 222 1276 z "},"ĕ":{"ha":646,"x_min":57,"x_max":600,"o":"m 57 258 l 57 404 q 138 589 57 511 q 333 667 219 667 q 521 594 442 667 q 600 411 600 521 q 590 347 600 371 q 560 312 581 322 q 523 299 540 301 q 476 296 506 296 l 172 296 l 172 254 q 227 132 172 178 q 369 86 282 86 q 449 100 415 86 q 504 127 483 114 q 538 140 525 140 q 571 123 557 140 q 585 88 585 106 q 522 22 585 56 q 365 -11 458 -11 q 143 63 229 -11 q 57 258 57 138 m 163 994 l 233 994 q 263 917 233 949 q 331 885 292 885 q 399 917 369 885 q 428 994 428 949 l 499 994 q 448 877 499 928 q 331 826 397 826 q 213 877 264 826 q 163 994 163 928 m 172 374 l 429 374 q 478 383 465 374 q 490 418 490 392 q 444 528 490 481 q 332 575 399 575 q 219 531 267 575 q 172 424 172 488 l 172 374 z "},"Ė":{"ha":714,"x_min":99,"x_max":686,"o":"m 99 42 l 99 974 q 115 1004 99 993 q 151 1015 131 1015 l 646 1015 q 676 1000 665 1015 q 686 964 686 985 q 675 926 686 942 q 646 910 664 910 l 215 910 l 215 557 l 432 557 q 461 542 450 557 q 472 507 472 528 q 462 474 472 489 q 432 460 451 460 l 215 460 l 215 106 l 646 106 q 675 90 664 106 q 686 51 686 74 q 676 15 686 31 q 646 0 665 0 l 151 0 q 115 11 131 0 q 99 42 99 22 m 360 1183 q 351 1191 360 1183 q 343 1224 343 1200 q 360 1264 343 1247 q 400 1281 376 1281 q 440 1264 424 1281 q 456 1224 456 1247 q 439 1183 456 1200 q 400 1165 422 1165 q 360 1183 376 1165 z "},"ė":{"ha":646,"x_min":57,"x_max":600,"o":"m 57 258 l 57 404 q 138 589 57 511 q 333 667 219 667 q 521 594 442 667 q 600 411 600 521 q 590 347 600 371 q 560 312 581 322 q 523 299 540 301 q 476 296 506 296 l 172 296 l 172 254 q 227 132 172 178 q 369 86 282 86 q 449 100 415 86 q 504 127 483 114 q 538 140 525 140 q 571 123 557 140 q 585 88 585 106 q 522 22 585 56 q 365 -11 458 -11 q 143 63 229 -11 q 57 258 57 138 m 172 374 l 429 374 q 478 383 465 374 q 490 418 490 392 q 444 528 490 481 q 332 575 399 575 q 219 531 267 575 q 172 424 172 488 l 172 374 m 292 834 q 283 843 292 834 q 275 875 275 851 q 292 915 275 899 q 332 932 308 932 q 372 915 356 932 q 388 875 388 899 q 371 834 388 851 q 332 817 354 817 q 292 834 308 817 z "},"Ę":{"ha":714,"x_min":99,"x_max":686,"o":"m 99 42 l 99 974 q 115 1004 99 993 q 151 1015 131 1015 l 646 1015 q 676 1000 665 1015 q 686 964 686 985 q 675 926 686 942 q 646 910 664 910 l 215 910 l 215 557 l 432 557 q 461 542 450 557 q 472 507 472 528 q 462 474 472 489 q 432 460 451 460 l 215 460 l 215 106 l 646 106 q 675 90 664 106 q 686 51 686 74 q 660 1 686 11 q 563 -164 563 -79 q 647 -226 563 -226 q 675 -257 675 -226 q 639 -283 675 -283 q 537 -256 576 -283 q 497 -174 497 -228 q 579 0 497 -79 l 151 0 q 115 11 131 0 q 99 42 99 22 z "},"ę":{"ha":646,"x_min":57,"x_max":600,"o":"m 57 258 l 57 404 q 138 589 57 511 q 333 667 219 667 q 521 594 442 667 q 600 411 600 521 q 590 347 600 371 q 560 312 581 322 q 523 299 540 301 q 476 296 506 296 l 172 296 l 172 254 q 227 132 172 178 q 369 86 282 86 q 449 100 415 86 q 504 127 483 114 q 538 140 525 140 q 571 123 557 140 q 585 88 585 106 q 565 52 585 71 q 511 18 546 33 q 421 -143 421 -62 q 506 -206 421 -206 q 533 -236 533 -206 q 497 -262 533 -262 q 395 -235 435 -262 q 356 -153 356 -207 q 411 -8 356 -78 q 365 -11 381 -11 q 143 63 229 -11 q 57 258 57 138 m 172 374 l 429 374 q 478 383 465 374 q 490 418 490 392 q 444 528 490 481 q 332 575 399 575 q 219 531 267 575 q 172 424 172 488 l 172 374 z "},"Ě":{"ha":714,"x_min":99,"x_max":686,"o":"m 99 42 l 99 974 q 115 1004 99 993 q 151 1015 131 1015 l 646 1015 q 676 1000 665 1015 q 686 964 686 985 q 675 926 686 942 q 646 910 664 910 l 215 910 l 215 557 l 432 557 q 461 542 450 557 q 472 507 472 528 q 462 474 472 489 q 432 460 451 460 l 215 460 l 215 106 l 646 106 q 675 90 664 106 q 686 51 686 74 q 676 15 686 31 q 646 0 665 0 l 151 0 q 115 11 131 0 q 99 42 99 22 m 201 1326 q 210 1352 201 1340 q 231 1364 218 1364 q 250 1356 242 1364 l 389 1239 l 529 1356 q 549 1364 536 1364 q 569 1352 561 1364 q 578 1326 578 1340 q 557 1289 578 1303 l 417 1174 q 389 1161 403 1161 q 363 1174 375 1161 l 221 1289 q 201 1326 201 1303 z "},"ě":{"ha":646,"x_min":57,"x_max":600,"o":"m 57 258 l 57 404 q 138 589 57 511 q 333 667 219 667 q 521 594 442 667 q 600 411 600 521 q 590 347 600 371 q 560 312 581 322 q 523 299 540 301 q 476 296 506 296 l 172 296 l 172 254 q 227 132 172 178 q 369 86 282 86 q 449 100 415 86 q 504 127 483 114 q 538 140 525 140 q 571 123 557 140 q 585 88 585 106 q 522 22 585 56 q 365 -11 458 -11 q 143 63 229 -11 q 57 258 57 138 m 143 978 q 151 1003 143 992 q 172 1015 160 1015 q 192 1007 183 1015 l 331 890 l 471 1007 q 490 1015 478 1015 q 511 1003 503 1015 q 519 978 519 992 q 499 940 519 954 l 358 825 q 331 813 344 813 q 304 825 317 813 l 163 940 q 143 978 143 954 m 172 374 l 429 374 q 478 383 465 374 q 490 418 490 392 q 444 528 490 481 q 332 575 399 575 q 219 531 267 575 q 172 424 172 488 l 172 374 z "},"Ĝ":{"ha":761,"x_min":89,"x_max":688,"o":"m 89 294 l 89 713 q 170 942 89 869 q 385 1015 251 1015 q 604 947 521 1015 q 688 767 688 878 q 673 722 688 735 q 629 710 658 710 q 571 750 572 710 q 388 910 553 910 q 206 713 206 910 l 206 294 q 388 97 206 97 q 523 147 475 97 q 571 294 571 196 l 571 436 l 406 436 q 376 451 386 436 q 365 485 365 465 q 376 519 365 504 q 406 533 388 533 l 647 533 q 677 521 667 533 q 688 490 688 508 l 688 294 q 606 65 688 138 q 388 -8 524 -8 q 170 65 251 -8 q 89 294 89 138 m 190 1206 q 211 1242 190 1231 l 356 1319 q 379 1326 369 1326 q 403 1319 392 1326 l 547 1243 q 569 1204 569 1231 q 560 1177 569 1189 q 538 1165 550 1165 q 529 1167 535 1165 q 524 1169 526 1169 l 379 1247 l 235 1169 q 222 1165 228 1165 q 200 1178 210 1165 q 190 1206 190 1190 z "},"ĝ":{"ha":635,"x_min":31,"x_max":617,"o":"m 31 -131 q 143 21 31 -29 q 72 114 72 47 q 142 217 72 178 q 63 392 63 281 l 63 438 q 131 603 63 539 q 310 667 199 667 q 472 613 404 667 q 567 703 514 703 q 603 690 589 703 q 617 660 617 676 q 593 628 617 639 q 518 569 546 615 q 561 438 561 518 l 561 392 q 490 226 561 292 q 310 161 419 161 q 207 182 253 161 q 172 135 172 161 q 204 94 172 108 q 283 76 236 79 q 386 63 331 72 q 489 38 442 53 q 568 -17 536 22 q 600 -115 600 -56 q 522 -266 600 -214 q 318 -318 443 -318 q 112 -267 193 -318 q 31 -131 31 -217 m 133 857 q 154 893 133 883 l 299 971 q 322 978 313 978 q 346 971 335 978 l 490 894 q 513 856 513 882 q 503 828 513 840 q 481 817 494 817 q 472 818 478 817 q 467 821 469 821 l 322 899 l 178 821 q 165 817 172 817 q 143 829 153 817 q 133 857 133 842 m 140 -118 q 188 -205 140 -172 q 317 -237 236 -237 q 441 -205 394 -237 q 488 -118 488 -172 q 480 -79 488 -96 q 456 -51 472 -62 q 422 -33 439 -40 q 379 -20 406 -25 q 335 -13 353 -15 q 290 -8 318 -11 q 250 -4 261 -6 q 140 -118 140 -40 m 175 393 q 212 283 175 326 q 313 240 249 240 q 411 283 374 240 q 449 392 449 325 l 449 438 q 411 544 449 501 q 311 588 374 588 q 211 545 247 588 q 175 438 175 503 l 175 393 z "},"Ğ":{"ha":761,"x_min":89,"x_max":688,"o":"m 89 294 l 89 713 q 170 942 89 869 q 385 1015 251 1015 q 604 947 521 1015 q 688 767 688 878 q 673 722 688 735 q 629 710 658 710 q 571 750 572 710 q 388 910 553 910 q 206 713 206 910 l 206 294 q 388 97 206 97 q 523 147 475 97 q 571 294 571 196 l 571 436 l 406 436 q 376 451 386 436 q 365 485 365 465 q 376 519 365 504 q 406 533 388 533 l 647 533 q 677 521 667 533 q 688 490 688 508 l 688 294 q 606 65 688 138 q 388 -8 524 -8 q 170 65 251 -8 q 89 294 89 138 m 218 1343 l 289 1343 q 318 1265 289 1297 q 386 1233 347 1233 q 454 1265 425 1233 q 483 1343 483 1297 l 554 1343 q 503 1226 554 1276 q 386 1175 453 1175 q 269 1226 319 1175 q 218 1343 218 1276 z "},"ğ":{"ha":635,"x_min":31,"x_max":617,"o":"m 31 -131 q 143 21 31 -29 q 72 114 72 47 q 142 217 72 178 q 63 392 63 281 l 63 438 q 131 603 63 539 q 310 667 199 667 q 472 613 404 667 q 567 703 514 703 q 603 690 589 703 q 617 660 617 676 q 593 628 617 639 q 518 569 546 615 q 561 438 561 518 l 561 392 q 490 226 561 292 q 310 161 419 161 q 207 182 253 161 q 172 135 172 161 q 204 94 172 108 q 283 76 236 79 q 386 63 331 72 q 489 38 442 53 q 568 -17 536 22 q 600 -115 600 -56 q 522 -266 600 -214 q 318 -318 443 -318 q 112 -267 193 -318 q 31 -131 31 -217 m 140 -118 q 188 -205 140 -172 q 317 -237 236 -237 q 441 -205 394 -237 q 488 -118 488 -172 q 480 -79 488 -96 q 456 -51 472 -62 q 422 -33 439 -40 q 379 -20 406 -25 q 335 -13 353 -15 q 290 -8 318 -11 q 250 -4 261 -6 q 140 -118 140 -40 m 154 994 l 225 994 q 254 917 225 949 q 322 885 283 885 q 390 917 361 885 q 419 994 419 949 l 490 994 q 440 877 490 928 q 322 826 389 826 q 205 877 256 826 q 154 994 154 928 m 175 393 q 212 283 175 326 q 313 240 249 240 q 411 283 374 240 q 449 392 449 325 l 449 438 q 411 544 449 501 q 311 588 374 588 q 211 545 247 588 q 175 438 175 503 l 175 393 z "},"Ġ":{"ha":761,"x_min":89,"x_max":688,"o":"m 89 294 l 89 713 q 170 942 89 869 q 385 1015 251 1015 q 604 947 521 1015 q 688 767 688 878 q 673 722 688 735 q 629 710 658 710 q 571 750 572 710 q 388 910 553 910 q 206 713 206 910 l 206 294 q 388 97 206 97 q 523 147 475 97 q 571 294 571 196 l 571 436 l 406 436 q 376 451 386 436 q 365 485 365 465 q 376 519 365 504 q 406 533 388 533 l 647 533 q 677 521 667 533 q 688 490 688 508 l 688 294 q 606 65 688 138 q 388 -8 524 -8 q 170 65 251 -8 q 89 294 89 138 m 346 1183 q 338 1191 346 1183 q 329 1224 329 1200 q 346 1264 329 1247 q 386 1281 363 1281 q 426 1264 410 1281 q 442 1224 442 1247 q 425 1183 442 1200 q 386 1165 408 1165 q 346 1183 363 1165 z "},"ġ":{"ha":635,"x_min":31,"x_max":617,"o":"m 31 -131 q 143 21 31 -29 q 72 114 72 47 q 142 217 72 178 q 63 392 63 281 l 63 438 q 131 603 63 539 q 310 667 199 667 q 472 613 404 667 q 567 703 514 703 q 603 690 589 703 q 617 660 617 676 q 593 628 617 639 q 518 569 546 615 q 561 438 561 518 l 561 392 q 490 226 561 292 q 310 161 419 161 q 207 182 253 161 q 172 135 172 161 q 204 94 172 108 q 283 76 236 79 q 386 63 331 72 q 489 38 442 53 q 568 -17 536 22 q 600 -115 600 -56 q 522 -266 600 -214 q 318 -318 443 -318 q 112 -267 193 -318 q 31 -131 31 -217 m 140 -118 q 188 -205 140 -172 q 317 -237 236 -237 q 441 -205 394 -237 q 488 -118 488 -172 q 480 -79 488 -96 q 456 -51 472 -62 q 422 -33 439 -40 q 379 -20 406 -25 q 335 -13 353 -15 q 290 -8 318 -11 q 250 -4 261 -6 q 140 -118 140 -40 m 175 393 q 212 283 175 326 q 313 240 249 240 q 411 283 374 240 q 449 392 449 325 l 449 438 q 411 544 449 501 q 311 588 374 588 q 211 545 247 588 q 175 438 175 503 l 175 393 m 283 834 q 275 843 283 834 q 267 875 267 851 q 283 915 267 899 q 324 932 300 932 q 363 915 347 932 q 379 875 379 899 q 363 834 379 851 q 324 817 346 817 q 283 834 300 817 z "},"Ģ":{"ha":761,"x_min":89,"x_max":688,"o":"m 89 294 l 89 713 q 170 942 89 869 q 385 1015 251 1015 q 604 947 521 1015 q 688 767 688 878 q 673 722 688 735 q 629 710 658 710 q 571 750 572 710 q 388 910 553 910 q 206 713 206 910 l 206 294 q 388 97 206 97 q 523 147 475 97 q 571 294 571 196 l 571 436 l 406 436 q 376 451 386 436 q 365 485 365 465 q 376 519 365 504 q 406 533 388 533 l 647 533 q 677 521 667 533 q 688 490 688 508 l 688 294 q 606 65 688 138 q 388 -8 524 -8 q 170 65 251 -8 q 89 294 89 138 m 268 -186 q 286 -156 268 -165 l 449 -69 q 463 -67 460 -67 q 491 -81 479 -67 q 503 -114 503 -96 q 483 -147 503 -136 l 326 -229 q 310 -233 318 -233 q 281 -219 293 -233 q 268 -186 268 -204 z "},"ģ":{"ha":635,"x_min":31,"x_max":617,"o":"m 31 -131 q 143 21 31 -29 q 72 114 72 47 q 142 217 72 178 q 63 392 63 281 l 63 438 q 131 603 63 539 q 310 667 199 667 q 472 613 404 667 q 567 703 514 703 q 603 690 589 703 q 617 660 617 676 q 593 628 617 639 q 518 569 546 615 q 561 438 561 518 l 561 392 q 490 226 561 292 q 310 161 419 161 q 207 182 253 161 q 172 135 172 161 q 204 94 172 108 q 283 76 236 79 q 386 63 331 72 q 489 38 442 53 q 568 -17 536 22 q 600 -115 600 -56 q 522 -266 600 -214 q 318 -318 443 -318 q 112 -267 193 -318 q 31 -131 31 -217 m 140 -118 q 188 -205 140 -172 q 317 -237 236 -237 q 441 -205 394 -237 q 488 -118 488 -172 q 480 -79 488 -96 q 456 -51 472 -62 q 422 -33 439 -40 q 379 -20 406 -25 q 335 -13 353 -15 q 290 -8 318 -11 q 250 -4 261 -6 q 140 -118 140 -40 m 175 393 q 212 283 175 326 q 313 240 249 240 q 411 283 374 240 q 449 392 449 325 l 449 438 q 411 544 449 501 q 311 588 374 588 q 211 545 247 588 q 175 438 175 503 l 175 393 m 210 858 q 228 889 210 879 l 390 975 q 404 978 399 978 q 432 963 421 978 q 443 931 443 949 q 424 897 443 907 l 267 817 q 251 811 256 811 q 222 826 235 811 q 210 858 210 840 m 246 1201 q 308 1371 246 1231 q 336 1389 317 1389 q 365 1379 351 1389 q 378 1354 378 1369 q 375 1340 378 1346 l 346 1268 q 390 1201 390 1250 q 369 1150 390 1171 q 318 1129 349 1129 q 267 1150 289 1129 q 246 1201 246 1171 z "},"Ĥ":{"ha":807,"x_min":99,"x_max":708,"o":"m 99 42 l 99 975 q 116 1005 99 994 q 157 1015 133 1015 q 198 1005 181 1015 q 215 975 215 994 l 215 575 l 592 575 l 592 975 q 609 1005 592 994 q 650 1015 626 1015 q 691 1005 674 1015 q 708 975 708 994 l 708 42 q 691 11 708 22 q 650 0 674 0 q 609 11 626 0 q 592 42 592 22 l 592 478 l 215 478 l 215 42 q 198 11 215 22 q 157 0 181 0 q 116 11 133 0 q 99 42 99 22 m 214 1206 q 235 1242 214 1231 l 379 1319 q 403 1326 393 1326 q 426 1319 415 1326 l 571 1243 q 593 1204 593 1231 q 584 1177 593 1189 q 561 1165 575 1165 q 553 1167 558 1165 q 547 1169 550 1169 l 403 1247 l 258 1169 q 246 1165 253 1165 q 224 1178 233 1165 q 214 1206 214 1190 z "},"ĥ":{"ha":700,"x_min":-49,"x_max":624,"o":"m -49 1211 q -28 1247 -49 1236 l 117 1325 q 140 1332 131 1332 q 164 1325 153 1332 l 308 1249 q 331 1210 331 1236 q 321 1183 331 1194 q 299 1171 311 1171 q 290 1172 296 1171 q 285 1175 288 1175 l 140 1253 l -4 1175 q -17 1171 -11 1171 q -39 1183 -29 1171 q -49 1211 -49 1196 m 83 42 l 83 1015 q 99 1044 83 1033 q 140 1056 115 1056 q 182 1044 165 1056 q 199 1015 199 1033 l 199 561 q 269 636 222 606 q 379 667 315 667 q 551 588 478 667 q 624 400 624 510 l 624 42 q 606 11 624 22 q 565 0 589 0 q 526 11 543 0 q 508 42 508 22 l 508 400 q 461 513 508 463 q 350 563 414 563 q 244 517 290 563 q 199 400 199 472 l 199 42 q 181 13 199 26 q 140 0 164 0 q 100 13 117 0 q 83 42 83 25 z "},"Ħ":{"ha":813,"x_min":26,"x_max":785,"o":"m 26 789 q 36 819 26 807 q 63 832 46 832 l 101 832 l 101 975 q 119 1005 101 994 q 160 1015 136 1015 q 201 1005 183 1015 q 218 975 218 994 l 218 832 l 594 832 l 594 975 q 612 1005 594 994 q 653 1015 629 1015 q 694 1005 676 1015 q 711 975 711 994 l 711 832 l 749 832 q 775 819 765 832 q 785 789 785 807 q 775 760 785 772 q 749 749 765 749 l 711 749 l 711 42 q 694 11 711 22 q 653 0 676 0 q 612 11 629 0 q 594 42 594 22 l 594 478 l 218 478 l 218 42 q 201 11 218 22 q 160 0 183 0 q 119 11 136 0 q 101 42 101 22 l 101 749 l 63 749 q 36 760 46 749 q 26 789 26 772 m 218 575 l 594 575 l 594 749 l 218 749 l 218 575 z "},"ħ":{"ha":700,"x_min":4,"x_max":624,"o":"m 15 808 q 10 814 15 808 q 4 838 4 819 q 15 868 4 856 q 44 881 26 881 l 83 881 l 83 1015 q 99 1044 83 1033 q 140 1056 115 1056 q 182 1044 165 1056 q 199 1015 199 1033 l 199 881 l 339 881 q 368 868 356 881 q 381 838 381 856 q 368 808 381 819 q 339 796 356 796 l 199 796 l 199 561 q 269 636 222 606 q 379 667 315 667 q 551 588 478 667 q 624 400 624 510 l 624 42 q 606 11 624 22 q 565 0 589 0 q 526 11 543 0 q 508 42 508 22 l 508 400 q 461 513 508 463 q 350 563 414 563 q 244 517 290 563 q 199 400 199 472 l 199 42 q 181 13 199 26 q 140 0 164 0 q 100 13 117 0 q 83 42 83 25 l 83 796 l 44 796 q 15 808 26 796 z "},"Ĩ":{"ha":314,"x_min":-65,"x_max":378,"o":"m -65 1232 q -24 1294 -65 1272 q 56 1317 17 1317 q 150 1294 93 1317 q 243 1271 207 1271 q 307 1290 278 1271 q 344 1308 336 1308 q 369 1295 360 1308 q 378 1269 378 1282 q 339 1206 378 1226 q 261 1186 300 1186 q 164 1209 219 1186 q 72 1232 108 1232 q 6 1212 38 1232 q -33 1192 -25 1192 q -57 1205 -49 1192 q -65 1232 -65 1218 m 99 42 l 99 975 q 116 1005 99 994 q 157 1015 133 1015 q 198 1005 181 1015 q 215 975 215 994 l 215 42 q 198 11 215 22 q 157 0 181 0 q 116 11 133 0 q 99 42 99 22 z "},"ĩ":{"ha":279,"x_min":-82,"x_max":361,"o":"m -82 883 q -41 946 -82 924 q 39 968 0 968 q 133 945 76 968 q 226 922 190 922 q 290 941 261 922 q 328 960 319 960 q 352 947 343 960 q 361 921 361 933 q 322 858 361 878 q 244 838 283 838 q 147 860 203 838 q 56 883 92 883 q -10 863 21 883 q -50 843 -42 843 q -74 856 -65 843 q -82 883 -82 869 m 82 42 l 82 618 q 99 647 82 636 q 139 658 115 658 q 181 647 164 658 q 197 618 197 636 l 197 42 q 180 13 197 26 q 139 0 163 0 q 99 13 115 0 q 82 42 82 25 z "},"Ī":{"ha":314,"x_min":-32,"x_max":344,"o":"m -21 1233 q -26 1239 -21 1233 q -32 1263 -32 1244 q -21 1293 -32 1281 q 8 1306 -10 1306 l 303 1306 q 332 1293 319 1306 q 344 1263 344 1281 q 332 1233 344 1244 q 303 1221 319 1221 l 8 1221 q -21 1233 -10 1221 m 99 42 l 99 975 q 116 1005 99 994 q 157 1015 133 1015 q 198 1005 181 1015 q 215 975 215 994 l 215 42 q 198 11 215 22 q 157 0 181 0 q 116 11 133 0 q 99 42 99 22 z "},"ī":{"ha":279,"x_min":-49,"x_max":328,"o":"m -37 884 q -43 890 -37 884 q -49 914 -49 896 q -37 944 -49 932 q -8 957 -26 957 l 286 957 q 315 944 303 957 q 328 914 328 931 q 315 884 328 896 q 286 872 303 872 l -8 872 q -37 884 -26 872 m 82 42 l 82 618 q 99 647 82 636 q 139 658 115 658 q 181 647 164 658 q 197 618 197 636 l 197 42 q 180 13 197 26 q 139 0 163 0 q 99 13 115 0 q 82 42 82 25 z "},"Ĭ":{"ha":314,"x_min":-11,"x_max":325,"o":"m -11 1343 l 60 1343 q 89 1265 60 1297 q 157 1233 118 1233 q 225 1265 196 1233 q 254 1343 254 1297 l 325 1343 q 274 1226 325 1276 q 157 1175 224 1175 q 40 1226 90 1175 q -11 1343 -11 1276 m 99 42 l 99 975 q 116 1005 99 994 q 157 1015 133 1015 q 198 1005 181 1015 q 215 975 215 994 l 215 42 q 198 11 215 22 q 157 0 181 0 q 116 11 133 0 q 99 42 99 22 z "},"ĭ":{"ha":279,"x_min":-28,"x_max":308,"o":"m -28 994 l 43 994 q 72 917 43 949 q 140 885 101 885 q 208 917 179 885 q 238 994 238 949 l 308 994 q 258 877 308 928 q 140 826 207 826 q 23 877 74 826 q -28 994 -28 928 m 82 42 l 82 618 q 99 647 82 636 q 139 658 115 658 q 181 647 164 658 q 197 618 197 636 l 197 42 q 180 13 197 26 q 139 0 163 0 q 99 13 115 0 q 82 42 82 25 z "},"Į":{"ha":314,"x_min":25,"x_max":215,"o":"m 25 -169 q 115 11 25 -69 q 99 42 99 24 l 99 975 q 116 1005 99 994 q 157 1015 133 1015 q 198 1005 181 1015 q 215 975 215 994 l 215 42 q 185 4 215 14 q 90 -160 90 -76 q 175 -222 90 -222 q 203 -253 203 -222 q 167 -279 203 -279 q 65 -251 104 -279 q 25 -169 25 -224 z "},"į":{"ha":279,"x_min":4,"x_max":210,"o":"m 4 -172 q 99 13 4 -71 q 82 42 82 22 l 82 618 q 99 647 82 636 q 139 658 115 658 q 181 647 164 658 q 197 618 197 636 l 197 42 q 171 7 197 21 q 69 -162 69 -72 q 154 -225 69 -225 q 182 -256 182 -225 q 146 -282 182 -282 q 44 -254 83 -282 q 4 -172 4 -226 m 88 859 q 77 869 88 859 q 67 906 67 879 q 88 951 67 932 q 139 971 108 971 q 189 951 168 971 q 210 906 210 932 q 189 859 210 879 q 139 839 168 839 q 88 859 110 839 z "},"İ":{"ha":314,"x_min":99,"x_max":215,"o":"m 99 42 l 99 975 q 116 1005 99 994 q 157 1015 133 1015 q 198 1005 181 1015 q 215 975 215 994 l 215 42 q 198 11 215 22 q 157 0 181 0 q 116 11 133 0 q 99 42 99 22 m 117 1183 q 108 1191 117 1183 q 100 1224 100 1200 q 117 1264 100 1247 q 157 1281 133 1281 q 197 1264 181 1281 q 213 1224 213 1247 q 196 1183 213 1200 q 157 1165 179 1165 q 117 1183 133 1165 z "},"ı":{"ha":279,"x_min":82,"x_max":197,"o":"m 82 42 l 82 618 q 99 647 82 636 q 139 658 115 658 q 181 647 164 658 q 197 618 197 636 l 197 42 q 180 13 197 26 q 139 0 163 0 q 99 13 115 0 q 82 42 82 25 z "},"Ĳ":{"ha":1026,"x_min":99,"x_max":932,"o":"m 99 42 l 99 975 q 116 1005 99 994 q 157 1015 133 1015 q 198 1005 181 1015 q 215 975 215 994 l 215 42 q 198 11 215 22 q 157 0 181 0 q 116 11 133 0 q 99 42 99 22 m 333 246 q 348 290 333 278 q 392 303 363 303 q 450 263 450 303 q 498 143 450 189 q 632 97 546 97 q 815 294 815 97 l 815 910 l 635 910 q 605 925 615 910 q 594 964 594 940 q 635 1015 594 1015 l 879 1015 q 916 1004 900 1015 q 932 974 932 993 l 932 294 q 851 65 932 138 q 636 -8 769 -8 q 417 62 500 -8 q 333 246 333 132 z "},"ĳ":{"ha":546,"x_min":67,"x_max":475,"o":"m 88 859 q 77 869 88 859 q 67 906 67 879 q 88 951 67 932 q 139 971 108 971 q 189 951 168 971 q 210 906 210 932 q 189 859 210 879 q 139 839 168 839 q 88 859 110 839 m 82 42 l 82 618 q 99 647 82 636 q 139 658 115 658 q 181 647 164 658 q 197 618 197 636 l 197 42 q 180 13 197 26 q 139 0 163 0 q 99 13 115 0 q 82 42 82 25 m 213 -268 q 226 -231 213 -246 q 260 -217 240 -217 q 331 -176 314 -217 q 347 -56 347 -136 l 347 618 q 363 647 347 636 q 404 658 379 658 q 446 647 429 658 q 463 618 463 636 l 463 -56 q 415 -247 463 -176 q 272 -318 368 -318 q 213 -268 213 -318 m 353 859 q 343 869 353 859 q 332 906 332 879 q 353 951 332 932 q 404 971 374 971 q 454 951 433 971 q 475 906 475 932 q 454 859 475 879 q 404 839 433 839 q 353 859 375 839 z "},"Ĵ":{"ha":721,"x_min":28,"x_max":626,"o":"m 28 246 q 42 290 28 278 q 86 303 57 303 q 144 263 144 303 q 192 143 144 189 q 326 97 240 97 q 510 294 510 97 l 510 910 l 329 910 q 299 925 310 910 q 289 964 289 940 q 329 1015 289 1015 l 574 1015 q 610 1004 594 1015 q 626 974 626 993 l 626 294 q 545 65 626 138 q 331 -8 464 -8 q 111 62 194 -8 q 28 246 28 132 m 172 1206 q 193 1242 172 1231 l 338 1319 q 361 1326 351 1326 q 385 1319 374 1326 l 529 1243 q 551 1204 551 1231 q 542 1177 551 1189 q 519 1165 533 1165 q 511 1167 517 1165 q 506 1169 508 1169 l 361 1247 l 217 1169 q 204 1165 211 1165 q 182 1178 192 1165 q 172 1206 172 1190 z "},"ĵ":{"ha":282,"x_min":-51,"x_max":332,"o":"m -51 -268 q -37 -231 -51 -246 q -4 -217 -24 -217 q 67 -176 50 -217 q 83 -56 83 -136 l 83 618 q 99 647 83 636 q 140 658 115 658 q 182 647 165 658 q 199 618 199 636 l 199 -56 q 151 -247 199 -176 q 8 -318 104 -318 q -51 -268 -51 -318 m -47 857 q -26 893 -47 883 l 118 971 q 142 978 132 978 q 165 971 154 978 l 310 894 q 332 856 332 882 q 323 828 332 840 q 300 817 314 817 q 292 818 297 817 q 286 821 289 821 l 142 899 l -3 821 q -15 817 -8 817 q -37 829 -28 817 q -47 857 -47 842 z "},"Ķ":{"ha":735,"x_min":99,"x_max":733,"o":"m 99 42 l 99 975 q 116 1005 99 994 q 157 1015 133 1015 q 198 1005 181 1015 q 215 975 215 994 l 215 515 l 588 999 q 622 1015 600 1015 q 667 996 644 1015 q 689 956 689 976 q 679 931 689 942 l 396 576 l 726 76 q 733 56 733 65 q 712 15 733 33 q 665 -3 690 -3 q 622 21 638 -3 l 318 478 l 215 349 l 215 42 q 198 11 215 22 q 157 0 181 0 q 116 11 133 0 q 99 42 99 22 m 253 -186 q 271 -156 253 -165 l 433 -69 q 447 -67 444 -67 q 476 -81 464 -67 q 488 -114 488 -96 q 468 -147 488 -136 l 311 -229 q 294 -233 303 -233 q 265 -219 278 -233 q 253 -186 253 -204 z "},"ķ":{"ha":649,"x_min":83,"x_max":631,"o":"m 83 42 l 83 1015 q 99 1044 83 1033 q 140 1056 115 1056 q 182 1044 165 1056 q 199 1015 199 1033 l 199 365 l 515 651 q 540 661 528 661 q 580 644 561 661 q 599 607 599 628 q 586 579 599 590 l 393 408 l 624 74 q 631 53 631 63 q 610 13 631 32 q 567 -6 589 -6 q 535 13 547 -6 l 314 336 l 199 233 l 199 42 q 181 13 199 26 q 140 0 164 0 q 100 13 117 0 q 83 42 83 25 m 206 -186 q 224 -156 206 -165 l 386 -69 q 400 -67 397 -67 q 428 -81 417 -67 q 440 -114 440 -96 q 421 -147 440 -136 l 264 -229 q 247 -233 256 -233 q 218 -219 231 -233 q 206 -186 206 -204 z "},"ĸ":{"ha":647,"x_min":82,"x_max":629,"o":"m 82 42 l 82 618 q 98 647 82 636 q 139 658 114 658 q 181 647 164 658 q 197 618 197 636 l 197 365 l 514 651 q 539 661 526 661 q 578 644 560 661 q 597 607 597 628 q 585 579 597 590 l 392 408 l 622 74 q 629 53 629 63 q 608 13 629 32 q 565 -6 588 -6 q 533 13 546 -6 l 313 336 l 197 233 l 197 42 q 180 13 197 26 q 139 0 163 0 q 99 13 115 0 q 82 42 82 25 z "},"Ĺ":{"ha":650,"x_min":99,"x_max":632,"o":"m 99 42 l 99 975 q 116 1005 99 994 q 157 1015 133 1015 q 198 1005 181 1015 q 215 975 215 994 l 215 106 l 594 106 q 622 90 613 106 q 632 53 632 74 q 622 16 632 32 q 594 0 613 0 l 151 0 q 115 11 131 0 q 99 42 99 22 m 242 1207 q 260 1238 242 1228 l 422 1324 q 436 1326 431 1326 q 464 1312 453 1326 q 475 1279 475 1297 q 456 1246 475 1256 l 299 1165 q 283 1160 288 1160 q 254 1174 267 1160 q 242 1207 242 1189 z "},"ĺ":{"ha":304,"x_min":51,"x_max":285,"o":"m 51 1161 q 69 1192 51 1182 l 232 1278 q 246 1281 240 1281 q 274 1266 263 1281 q 285 1233 285 1251 q 265 1200 285 1210 l 108 1119 q 93 1114 97 1114 q 64 1128 76 1114 q 51 1161 51 1143 m 94 42 l 94 1015 q 110 1044 94 1033 q 151 1056 126 1056 q 193 1044 176 1056 q 210 1015 210 1033 l 210 42 q 192 13 210 26 q 151 0 175 0 q 111 13 128 0 q 94 42 94 25 z "},"Ļ":{"ha":650,"x_min":99,"x_max":632,"o":"m 99 42 l 99 975 q 116 1005 99 994 q 157 1015 133 1015 q 198 1005 181 1015 q 215 975 215 994 l 215 106 l 594 106 q 622 90 613 106 q 632 53 632 74 q 622 16 632 32 q 594 0 613 0 l 151 0 q 115 11 131 0 q 99 42 99 22 m 236 -186 q 254 -156 236 -165 l 417 -69 q 431 -67 428 -67 q 459 -81 447 -67 q 471 -114 471 -96 q 451 -147 471 -136 l 294 -229 q 278 -233 286 -233 q 249 -219 261 -233 q 236 -186 236 -204 z "},"ļ":{"ha":304,"x_min":38,"x_max":272,"o":"m 38 -186 q 56 -156 38 -165 l 218 -69 q 232 -67 229 -67 q 260 -81 249 -67 q 272 -114 272 -96 q 253 -147 272 -136 l 96 -229 q 79 -233 88 -233 q 50 -219 63 -233 q 38 -186 38 -204 m 94 42 l 94 1015 q 110 1044 94 1033 q 151 1056 126 1056 q 193 1044 176 1056 q 210 1015 210 1033 l 210 42 q 192 13 210 26 q 151 0 175 0 q 111 13 128 0 q 94 42 94 25 z "},"Ľ":{"ha":651,"x_min":99,"x_max":632,"o":"m 99 42 l 99 975 q 116 1005 99 994 q 157 1015 133 1015 q 198 1005 181 1015 q 215 975 215 994 l 215 106 l 594 106 q 622 90 613 106 q 632 53 632 74 q 622 16 632 32 q 594 0 613 0 l 151 0 q 115 11 131 0 q 99 42 99 22 m 413 957 q 433 1008 413 986 q 485 1029 454 1029 q 535 1008 514 1029 q 557 957 557 986 q 494 788 557 928 q 467 769 486 769 q 438 778 451 769 q 425 803 425 788 q 428 817 425 808 l 457 889 q 413 957 413 907 z "},"ľ":{"ha":304,"x_min":94,"x_max":439,"o":"m 94 42 l 94 1015 q 110 1044 94 1033 q 151 1056 126 1056 q 193 1044 176 1056 q 210 1015 210 1033 l 210 42 q 192 13 210 26 q 151 0 175 0 q 111 13 128 0 q 94 42 94 25 m 294 957 q 315 1008 294 986 q 367 1029 336 1029 q 417 1008 396 1029 q 439 957 439 986 q 376 788 439 928 q 349 769 368 769 q 320 778 333 769 q 307 803 307 788 q 310 817 307 808 l 339 889 q 294 957 294 907 z "},"Ŀ":{"ha":651,"x_min":99,"x_max":632,"o":"m 99 42 l 99 975 q 116 1005 99 994 q 157 1015 133 1015 q 198 1005 181 1015 q 215 975 215 994 l 215 106 l 594 106 q 622 90 613 106 q 632 53 632 74 q 622 16 632 32 q 594 0 613 0 l 151 0 q 115 11 131 0 q 99 42 99 22 m 425 536 q 414 547 425 536 q 403 585 403 557 q 425 633 403 613 q 479 654 447 654 q 531 633 510 654 q 553 585 553 613 q 531 536 553 557 q 479 515 510 515 q 425 536 447 515 z "},"ŀ":{"ha":457,"x_min":94,"x_max":449,"o":"m 94 42 l 94 1015 q 110 1044 94 1033 q 151 1056 126 1056 q 193 1044 176 1056 q 210 1015 210 1033 l 210 42 q 192 13 210 26 q 151 0 175 0 q 111 13 128 0 q 94 42 94 25 m 321 368 q 310 378 321 368 q 299 417 299 389 q 321 465 299 444 q 375 486 343 486 q 427 465 406 486 q 449 417 449 444 q 427 368 449 389 q 375 347 406 347 q 321 368 343 347 z "},"Ł":{"ha":658,"x_min":-1,"x_max":640,"o":"m -1 414 q 17 444 -1 436 l 107 492 l 107 975 q 124 1005 107 994 q 165 1015 142 1015 q 206 1005 189 1015 q 224 975 224 994 l 224 554 l 344 619 q 358 622 349 622 q 389 606 375 622 q 403 571 403 589 q 385 539 403 547 l 224 453 l 224 106 l 603 106 q 631 90 621 106 q 640 53 640 74 q 631 16 640 32 q 603 0 621 0 l 160 0 q 123 11 139 0 q 107 42 107 22 l 107 390 l 57 364 q 42 360 49 360 q 12 377 25 360 q -1 414 -1 394 z "},"ł":{"ha":431,"x_min":22,"x_max":411,"o":"m 22 414 q 39 444 22 436 l 153 506 l 153 1015 q 169 1044 153 1033 q 210 1056 185 1056 q 251 1044 235 1056 q 268 1015 268 1033 l 268 567 l 353 613 q 367 615 358 615 q 397 599 383 615 q 411 564 411 582 q 393 532 411 542 l 268 465 l 268 42 q 251 13 268 26 q 210 0 233 0 q 169 13 186 0 q 153 42 153 25 l 153 403 l 79 364 q 65 360 72 360 q 35 377 49 360 q 22 414 22 394 z "},"Ń":{"ha":807,"x_min":99,"x_max":708,"o":"m 99 42 l 99 975 q 157 1015 99 1015 q 206 998 186 1015 q 246 942 226 981 l 592 265 l 592 975 q 609 1005 592 994 q 650 1015 626 1015 q 691 1005 674 1015 q 708 975 708 994 l 708 42 q 691 11 708 22 q 650 0 674 0 q 576 53 606 0 l 215 751 l 215 42 q 198 11 215 22 q 157 0 181 0 q 116 11 133 0 q 99 42 99 22 m 278 1207 q 296 1238 278 1228 l 458 1324 q 472 1326 467 1326 q 500 1312 489 1326 q 511 1279 511 1297 q 492 1246 511 1256 l 335 1165 q 319 1160 324 1160 q 290 1174 303 1160 q 278 1207 278 1189 z "},"ń":{"ha":699,"x_min":82,"x_max":622,"o":"m 82 42 l 82 618 q 98 647 82 636 q 139 658 114 658 q 176 647 160 658 q 192 618 192 635 l 192 561 q 263 636 214 606 q 378 667 313 667 q 549 588 476 667 q 622 400 622 510 l 622 42 q 605 11 622 22 q 564 0 588 0 q 524 11 542 0 q 507 42 507 22 l 507 400 q 460 513 507 463 q 349 563 413 563 q 243 517 289 563 q 197 400 197 472 l 197 42 q 179 13 197 26 q 139 0 161 0 q 99 13 115 0 q 82 42 82 25 m 235 858 q 253 889 235 879 l 415 975 q 429 978 424 978 q 457 963 446 978 q 468 931 468 949 q 449 897 468 907 l 292 817 q 276 811 281 811 q 247 826 260 811 q 235 858 235 840 z "},"Ņ":{"ha":807,"x_min":99,"x_max":708,"o":"m 99 42 l 99 975 q 157 1015 99 1015 q 206 998 186 1015 q 246 942 226 981 l 592 265 l 592 975 q 609 1005 592 994 q 650 1015 626 1015 q 691 1005 674 1015 q 708 975 708 994 l 708 42 q 691 11 708 22 q 650 0 674 0 q 576 53 606 0 l 215 751 l 215 42 q 198 11 215 22 q 157 0 181 0 q 116 11 133 0 q 99 42 99 22 m 283 -186 q 301 -156 283 -165 l 464 -69 q 478 -67 475 -67 q 506 -81 494 -67 q 518 -114 518 -96 q 499 -147 518 -136 l 342 -229 q 325 -233 333 -233 q 296 -219 308 -233 q 283 -186 283 -204 z "},"ņ":{"ha":699,"x_min":82,"x_max":622,"o":"m 82 42 l 82 618 q 98 647 82 636 q 139 658 114 658 q 176 647 160 658 q 192 618 192 635 l 192 561 q 263 636 214 606 q 378 667 313 667 q 549 588 476 667 q 622 400 622 510 l 622 42 q 605 11 622 22 q 564 0 588 0 q 524 11 542 0 q 507 42 507 22 l 507 400 q 460 513 507 463 q 349 563 413 563 q 243 517 289 563 q 197 400 197 472 l 197 42 q 179 13 197 26 q 139 0 161 0 q 99 13 115 0 q 82 42 82 25 m 222 -186 q 240 -156 222 -165 l 403 -69 q 417 -67 414 -67 q 445 -81 433 -67 q 457 -114 457 -96 q 438 -147 457 -136 l 281 -229 q 264 -233 272 -233 q 235 -219 247 -233 q 222 -186 222 -204 z "},"Ň":{"ha":807,"x_min":99,"x_max":708,"o":"m 99 42 l 99 975 q 157 1015 99 1015 q 206 998 186 1015 q 246 942 226 981 l 592 265 l 592 975 q 609 1005 592 994 q 650 1015 626 1015 q 691 1005 674 1015 q 708 975 708 994 l 708 42 q 691 11 708 22 q 650 0 674 0 q 576 53 606 0 l 215 751 l 215 42 q 198 11 215 22 q 157 0 181 0 q 116 11 133 0 q 99 42 99 22 m 214 1326 q 222 1352 214 1340 q 243 1364 231 1364 q 263 1356 254 1364 l 401 1239 l 542 1356 q 561 1364 549 1364 q 582 1352 574 1364 q 590 1326 590 1340 q 569 1289 590 1303 l 429 1174 q 401 1161 414 1161 q 375 1174 388 1161 l 233 1289 q 214 1326 214 1303 z "},"ň":{"ha":699,"x_min":82,"x_max":622,"o":"m 82 42 l 82 618 q 98 647 82 636 q 139 658 114 658 q 176 647 160 658 q 192 618 192 635 l 192 561 q 263 636 214 606 q 378 667 313 667 q 549 588 476 667 q 622 400 622 510 l 622 42 q 605 11 622 22 q 564 0 588 0 q 524 11 542 0 q 507 42 507 22 l 507 400 q 460 513 507 463 q 349 563 413 563 q 243 517 289 563 q 197 400 197 472 l 197 42 q 179 13 197 26 q 139 0 161 0 q 99 13 115 0 q 82 42 82 25 m 156 978 q 164 1003 156 992 q 185 1015 172 1015 q 204 1007 196 1015 l 343 890 l 483 1007 q 503 1015 490 1015 q 524 1003 515 1015 q 532 978 532 992 q 511 940 532 954 l 371 825 q 343 813 356 813 q 317 825 329 813 l 175 940 q 156 978 156 954 z "},"Ŋ":{"ha":808,"x_min":99,"x_max":708,"o":"m 99 42 l 99 975 q 157 1015 99 1015 q 206 998 186 1015 q 246 942 226 981 l 592 265 l 592 975 q 609 1005 592 994 q 650 1015 626 1015 q 691 1005 674 1015 q 708 975 708 994 l 708 -56 q 661 -247 708 -176 q 518 -318 614 -318 q 458 -268 458 -318 q 472 -231 458 -246 q 506 -217 486 -217 q 575 -176 558 -217 q 592 -56 592 -136 l 592 4 q 576 53 592 24 l 215 751 l 215 42 q 198 11 215 22 q 157 0 181 0 q 116 11 133 0 q 99 42 99 22 z "},"ŋ":{"ha":699,"x_min":82,"x_max":622,"o":"m 82 42 l 82 618 q 98 647 82 636 q 139 658 114 658 q 176 647 160 658 q 192 618 192 635 l 192 561 q 263 636 214 606 q 378 667 313 667 q 549 588 476 667 q 622 400 622 510 l 622 -56 q 575 -247 622 -176 q 432 -318 528 -318 q 372 -268 372 -318 q 386 -231 372 -246 q 419 -217 400 -217 q 490 -176 472 -217 q 507 -56 507 -136 l 507 400 q 460 513 507 463 q 349 563 413 563 q 243 517 289 563 q 197 400 197 472 l 197 42 q 179 13 197 26 q 139 0 161 0 q 99 13 115 0 q 82 42 82 25 z "},"Ō":{"ha":776,"x_min":89,"x_max":688,"o":"m 89 294 l 89 713 q 170 942 89 869 q 388 1015 251 1015 q 606 942 524 1015 q 688 713 688 869 l 688 294 q 606 65 688 138 q 388 -8 524 -8 q 170 65 251 -8 q 89 294 89 138 m 211 1233 q 206 1239 211 1233 q 200 1263 200 1244 q 211 1293 200 1281 q 240 1306 222 1306 l 535 1306 q 563 1293 550 1306 q 576 1263 576 1281 q 564 1233 576 1244 q 535 1221 551 1221 l 240 1221 q 211 1233 222 1221 m 206 294 q 388 97 206 97 q 523 147 475 97 q 571 294 571 196 l 571 713 q 523 860 571 811 q 388 910 475 910 q 206 713 206 910 l 206 294 z "},"ō":{"ha":663,"x_min":57,"x_max":606,"o":"m 57 258 l 57 400 q 138 587 57 507 q 331 667 219 667 q 524 588 442 667 q 606 400 606 508 l 606 258 q 523 71 606 153 q 331 -11 440 -11 q 139 70 221 -11 q 57 258 57 151 m 154 884 q 149 890 154 884 q 143 914 143 896 q 154 944 143 932 q 183 957 165 957 l 478 957 q 507 944 494 957 q 519 914 519 931 q 507 884 519 896 q 478 872 494 872 l 183 872 q 154 884 165 872 m 172 258 q 219 143 172 193 q 331 93 267 93 q 443 144 396 93 q 490 258 490 194 l 490 400 q 443 513 490 463 q 331 563 396 563 q 219 513 265 563 q 172 400 172 463 l 172 258 z "},"Ŏ":{"ha":776,"x_min":89,"x_max":688,"o":"m 89 294 l 89 713 q 170 942 89 869 q 388 1015 251 1015 q 606 942 524 1015 q 688 713 688 869 l 688 294 q 606 65 688 138 q 388 -8 524 -8 q 170 65 251 -8 q 89 294 89 138 m 206 294 q 388 97 206 97 q 523 147 475 97 q 571 294 571 196 l 571 713 q 523 860 571 811 q 388 910 475 910 q 206 713 206 910 l 206 294 m 219 1343 l 290 1343 q 319 1265 290 1297 q 388 1233 349 1233 q 456 1265 426 1233 q 485 1343 485 1297 l 556 1343 q 505 1226 556 1276 q 388 1175 454 1175 q 270 1226 321 1175 q 219 1343 219 1276 z "},"ŏ":{"ha":663,"x_min":57,"x_max":606,"o":"m 57 258 l 57 400 q 138 587 57 507 q 331 667 219 667 q 524 588 442 667 q 606 400 606 508 l 606 258 q 523 71 606 153 q 331 -11 440 -11 q 139 70 221 -11 q 57 258 57 151 m 163 994 l 233 994 q 263 917 233 949 q 331 885 292 885 q 399 917 369 885 q 428 994 428 949 l 499 994 q 448 877 499 928 q 331 826 397 826 q 213 877 264 826 q 163 994 163 928 m 172 258 q 219 143 172 193 q 331 93 267 93 q 443 144 396 93 q 490 258 490 194 l 490 400 q 443 513 490 463 q 331 563 396 563 q 219 513 265 563 q 172 400 172 463 l 172 258 z "},"Ő":{"ha":776,"x_min":89,"x_max":688,"o":"m 89 294 l 89 713 q 170 942 89 869 q 388 1015 251 1015 q 606 942 524 1015 q 688 713 688 869 l 688 294 q 606 65 688 138 q 388 -8 524 -8 q 170 65 251 -8 q 89 294 89 138 m 206 294 q 388 97 206 97 q 523 147 475 97 q 571 294 571 196 l 571 713 q 523 860 571 811 q 388 910 475 910 q 206 713 206 910 l 206 294 m 245 1171 q 239 1177 245 1171 q 232 1197 232 1183 q 243 1218 232 1211 l 371 1321 q 389 1328 378 1328 q 416 1315 404 1328 q 428 1289 428 1303 q 415 1265 428 1274 l 293 1167 q 274 1158 283 1158 q 245 1171 258 1158 m 456 1171 q 450 1177 456 1171 q 443 1197 443 1183 q 454 1218 443 1211 l 583 1321 q 601 1328 589 1328 q 627 1315 615 1328 q 639 1289 639 1303 q 626 1265 639 1274 l 504 1167 q 485 1158 496 1158 q 456 1171 469 1158 z "},"ő":{"ha":663,"x_min":57,"x_max":606,"o":"m 57 258 l 57 400 q 138 587 57 507 q 331 667 219 667 q 524 588 442 667 q 606 400 606 508 l 606 258 q 523 71 606 153 q 331 -11 440 -11 q 139 70 221 -11 q 57 258 57 151 m 180 824 q 173 830 180 824 q 167 850 167 836 q 178 871 167 864 l 306 974 q 324 981 313 981 q 351 968 339 981 q 363 942 363 956 q 350 918 363 926 l 228 819 q 208 811 217 811 q 180 824 193 811 m 172 258 q 219 143 172 193 q 331 93 267 93 q 443 144 396 93 q 490 258 490 194 l 490 400 q 443 513 490 463 q 331 563 396 563 q 219 513 265 563 q 172 400 172 463 l 172 258 m 391 824 q 384 830 391 824 q 378 850 378 836 q 389 871 378 864 l 518 974 q 536 981 524 981 q 562 968 550 981 q 574 942 574 956 q 561 918 574 926 l 439 819 q 419 811 431 811 q 391 824 404 811 z "},"Œ":{"ha":1163,"x_min":89,"x_max":1135,"o":"m 89 294 l 89 713 q 165 942 89 869 q 371 1015 242 1015 q 495 990 438 1015 q 583 914 553 964 l 583 974 q 599 1004 583 993 q 636 1015 615 1015 l 1094 1015 q 1124 1000 1114 1015 q 1135 964 1135 985 q 1124 925 1135 940 q 1094 910 1114 910 l 688 910 l 688 557 l 881 557 q 910 542 900 557 q 921 507 921 528 q 910 474 921 489 q 881 460 900 460 l 688 460 l 688 106 l 1094 106 q 1124 90 1114 106 q 1135 51 1135 75 q 1124 15 1135 31 q 1094 0 1114 0 l 636 0 q 599 11 615 0 q 583 42 583 22 l 583 93 q 371 -8 522 -8 q 165 65 242 -8 q 89 294 89 138 m 206 294 q 388 97 206 97 q 523 147 475 97 q 571 294 571 196 l 571 713 q 523 860 571 811 q 388 910 475 910 q 206 713 206 910 l 206 294 z "},"œ":{"ha":1079,"x_min":57,"x_max":1033,"o":"m 57 258 l 57 400 q 138 587 57 507 q 331 667 219 667 q 458 632 399 667 q 551 540 517 597 q 643 633 586 599 q 767 667 700 667 q 954 594 875 667 q 1033 413 1033 521 q 1024 347 1033 372 q 995 312 1015 322 q 958 299 975 301 q 910 296 940 296 l 606 296 l 606 254 q 660 132 606 178 q 806 86 715 86 q 883 100 850 86 q 937 127 917 114 q 969 140 957 140 q 1003 123 989 140 q 1018 86 1018 106 q 953 22 1018 56 q 799 -11 889 -11 q 652 23 717 -11 q 551 117 588 57 q 456 24 515 58 q 331 -11 397 -11 q 139 70 221 -11 q 57 258 57 151 m 172 258 q 219 143 172 193 q 331 93 267 93 q 443 144 396 93 q 490 258 490 194 l 490 400 q 443 513 490 463 q 331 563 396 563 q 219 513 265 563 q 172 400 172 463 l 172 258 m 606 374 l 863 374 q 911 383 899 374 q 924 418 924 392 q 878 528 924 481 q 765 575 832 575 q 652 532 699 575 q 606 426 606 489 l 606 374 z "},"Ŕ":{"ha":754,"x_min":99,"x_max":707,"o":"m 99 42 l 99 975 q 110 1003 99 992 q 140 1015 122 1014 l 394 1015 q 618 951 533 1015 q 703 738 703 886 q 496 467 703 508 l 701 76 q 707 57 707 67 q 685 16 707 35 q 638 -3 663 -3 q 585 43 608 -3 l 375 450 l 215 450 l 215 42 q 198 11 215 22 q 157 0 181 0 q 116 11 133 0 q 99 42 99 22 m 215 547 l 394 547 q 586 729 586 547 q 394 910 586 910 l 215 910 l 215 547 m 297 1207 q 315 1238 297 1228 l 478 1324 q 492 1326 486 1326 q 519 1312 508 1326 q 531 1279 531 1297 q 511 1246 531 1256 l 354 1165 q 339 1160 343 1160 q 310 1174 322 1160 q 297 1207 297 1189 z "},"ŕ":{"ha":478,"x_min":82,"x_max":465,"o":"m 82 42 l 82 618 q 98 647 82 636 q 139 658 114 658 q 176 647 161 658 q 192 618 192 636 l 192 553 q 265 633 217 600 q 374 667 314 667 l 421 667 q 452 651 439 667 q 465 614 465 635 q 452 578 465 593 q 421 563 439 563 l 374 563 q 250 506 303 563 q 197 358 197 449 l 197 42 q 180 13 197 26 q 139 0 163 0 q 99 13 115 0 q 82 42 82 25 m 129 858 q 147 889 129 879 l 310 975 q 324 978 318 978 q 351 963 340 978 q 363 931 363 949 q 343 897 363 907 l 186 817 q 171 811 175 811 q 142 826 154 811 q 129 858 129 840 z "},"Ŗ":{"ha":754,"x_min":99,"x_max":707,"o":"m 99 42 l 99 975 q 110 1003 99 992 q 140 1015 122 1014 l 394 1015 q 618 951 533 1015 q 703 738 703 886 q 496 467 703 508 l 701 76 q 707 57 707 67 q 685 16 707 35 q 638 -3 663 -3 q 585 43 608 -3 l 375 450 l 215 450 l 215 42 q 198 11 215 22 q 157 0 181 0 q 116 11 133 0 q 99 42 99 22 m 215 547 l 394 547 q 586 729 586 547 q 394 910 586 910 l 215 910 l 215 547 m 246 -186 q 264 -156 246 -165 l 426 -69 q 440 -67 438 -67 q 469 -81 457 -67 q 481 -114 481 -96 q 461 -147 481 -136 l 304 -229 q 288 -233 296 -233 q 258 -219 271 -233 q 246 -186 246 -204 z "},"ŗ":{"ha":478,"x_min":0,"x_max":465,"o":"m 0 -186 q 18 -156 0 -165 l 181 -69 q 194 -67 192 -67 q 223 -81 211 -67 q 235 -114 235 -96 q 215 -147 235 -136 l 58 -229 q 42 -233 50 -233 q 13 -219 25 -233 q 0 -186 0 -204 m 82 42 l 82 618 q 98 647 82 636 q 139 658 114 658 q 176 647 161 658 q 192 618 192 636 l 192 553 q 265 633 217 600 q 374 667 314 667 l 421 667 q 452 651 439 667 q 465 614 465 635 q 452 578 465 593 q 421 563 439 563 l 374 563 q 250 506 303 563 q 197 358 197 449 l 197 42 q 180 13 197 26 q 139 0 163 0 q 99 13 115 0 q 82 42 82 25 z "},"Ř":{"ha":754,"x_min":99,"x_max":707,"o":"m 99 42 l 99 975 q 110 1003 99 992 q 140 1015 122 1014 l 394 1015 q 618 951 533 1015 q 703 738 703 886 q 496 467 703 508 l 701 76 q 707 57 707 67 q 685 16 707 35 q 638 -3 663 -3 q 585 43 608 -3 l 375 450 l 215 450 l 215 42 q 198 11 215 22 q 157 0 181 0 q 116 11 133 0 q 99 42 99 22 m 194 1326 q 203 1352 194 1340 q 224 1364 211 1364 q 243 1356 235 1364 l 382 1239 l 522 1356 q 542 1364 529 1364 q 563 1352 554 1364 q 571 1326 571 1340 q 550 1289 571 1303 l 410 1174 q 382 1161 394 1161 q 356 1174 368 1161 l 214 1289 q 194 1326 194 1303 m 215 547 l 394 547 q 586 729 586 547 q 394 910 586 910 l 215 910 l 215 547 z "},"ř":{"ha":476,"x_min":47,"x_max":465,"o":"m 47 978 q 56 1003 47 992 q 76 1015 64 1015 q 96 1007 88 1015 l 235 890 l 375 1007 q 394 1015 382 1015 q 415 1003 407 1015 q 424 978 424 992 q 403 940 424 954 l 263 825 q 235 813 247 813 q 208 825 221 813 l 67 940 q 47 978 47 954 m 82 42 l 82 618 q 98 647 82 636 q 139 658 114 658 q 176 647 161 658 q 192 618 192 636 l 192 553 q 265 633 217 600 q 374 667 314 667 l 421 667 q 452 651 439 667 q 465 614 465 635 q 452 578 465 593 q 421 563 439 563 l 374 563 q 250 506 303 563 q 197 358 197 449 l 197 42 q 180 13 197 26 q 139 0 163 0 q 99 13 115 0 q 82 42 82 25 z "},"Ś":{"ha":697,"x_min":46,"x_max":644,"o":"m 46 146 q 62 189 46 168 q 97 210 78 210 q 129 192 110 210 q 169 153 149 175 q 235 115 190 132 q 335 97 279 97 q 476 141 425 97 q 528 269 528 185 q 481 394 528 346 q 367 467 433 442 q 233 520 300 492 q 118 608 165 549 q 71 760 71 667 q 99 885 71 832 q 173 966 126 939 q 269 1006 219 993 q 376 1018 319 1018 q 541 994 463 1018 q 619 926 619 969 q 606 885 619 907 q 569 863 592 863 q 506 889 564 863 q 376 915 447 915 q 240 881 292 915 q 188 771 188 846 q 235 667 188 707 q 349 604 282 628 q 483 550 417 581 q 597 452 550 519 q 644 281 644 385 q 561 63 644 136 q 340 -11 478 -11 q 131 42 217 -11 q 46 146 46 94 m 242 1207 q 260 1238 242 1228 l 422 1324 q 436 1326 431 1326 q 464 1312 453 1326 q 475 1279 475 1297 q 456 1246 475 1256 l 299 1165 q 283 1160 288 1160 q 254 1174 267 1160 q 242 1207 242 1189 z "},"ś":{"ha":544,"x_min":42,"x_max":501,"o":"m 42 94 q 53 130 42 113 q 82 147 65 147 q 114 131 93 147 q 174 98 135 114 q 265 82 213 82 q 366 107 335 82 q 397 169 397 132 q 363 242 397 215 q 278 283 328 269 q 178 314 228 297 q 93 369 128 331 q 58 472 58 408 q 115 609 58 551 q 286 667 171 667 q 421 644 360 667 q 482 592 482 621 q 469 554 482 575 q 436 533 456 533 q 383 553 431 533 q 288 574 335 574 q 192 544 224 574 q 161 476 161 514 q 196 415 161 438 q 281 381 231 393 q 382 350 332 368 q 467 288 432 332 q 501 175 501 244 q 440 39 501 89 q 269 -11 379 -11 q 108 23 175 -11 q 42 94 42 57 m 158 858 q 176 889 158 879 l 339 975 q 353 978 347 978 q 381 963 369 978 q 392 931 392 949 q 372 897 392 907 l 215 817 q 200 811 204 811 q 171 826 183 811 q 158 858 158 840 z "},"Ŝ":{"ha":697,"x_min":46,"x_max":644,"o":"m 46 146 q 62 189 46 168 q 97 210 78 210 q 129 192 110 210 q 169 153 149 175 q 235 115 190 132 q 335 97 279 97 q 476 141 425 97 q 528 269 528 185 q 481 394 528 346 q 367 467 433 442 q 233 520 300 492 q 118 608 165 549 q 71 760 71 667 q 99 885 71 832 q 173 966 126 939 q 269 1006 219 993 q 376 1018 319 1018 q 541 994 463 1018 q 619 926 619 969 q 606 885 619 907 q 569 863 592 863 q 506 889 564 863 q 376 915 447 915 q 240 881 292 915 q 188 771 188 846 q 235 667 188 707 q 349 604 282 628 q 483 550 417 581 q 597 452 550 519 q 644 281 644 385 q 561 63 644 136 q 340 -11 478 -11 q 131 42 217 -11 q 46 146 46 94 m 154 1206 q 175 1242 154 1231 l 319 1319 q 343 1326 333 1326 q 367 1319 356 1326 l 511 1243 q 533 1204 533 1231 q 524 1177 533 1189 q 501 1165 514 1165 q 493 1167 499 1165 q 488 1169 490 1169 l 343 1247 l 199 1169 q 186 1165 192 1165 q 164 1178 174 1165 q 154 1206 154 1190 z "},"ŝ":{"ha":544,"x_min":42,"x_max":501,"o":"m 42 94 q 53 130 42 113 q 82 147 65 147 q 114 131 93 147 q 174 98 135 114 q 265 82 213 82 q 366 107 335 82 q 397 169 397 132 q 363 242 397 215 q 278 283 328 269 q 178 314 228 297 q 93 369 128 331 q 58 472 58 408 q 115 609 58 551 q 286 667 171 667 q 421 644 360 667 q 482 592 482 621 q 469 554 482 575 q 436 533 456 533 q 383 553 431 533 q 288 574 335 574 q 192 544 224 574 q 161 476 161 514 q 196 415 161 438 q 281 381 231 393 q 382 350 332 368 q 467 288 432 332 q 501 175 501 244 q 440 39 501 89 q 269 -11 379 -11 q 108 23 175 -11 q 42 94 42 57 m 78 857 q 99 893 78 883 l 243 971 q 267 978 257 978 q 290 971 279 978 l 435 894 q 457 856 457 882 q 448 828 457 840 q 425 817 439 817 q 417 818 422 817 q 411 821 414 821 l 267 899 l 122 821 q 110 817 117 817 q 88 829 97 817 q 78 857 78 842 z "},"Ş":{"ha":697,"x_min":46,"x_max":644,"o":"m 46 146 q 62 189 46 168 q 97 210 78 210 q 129 192 110 210 q 169 153 149 175 q 235 115 190 132 q 335 97 279 97 q 476 141 425 97 q 528 269 528 185 q 481 394 528 346 q 367 467 433 442 q 233 520 300 492 q 118 608 165 549 q 71 760 71 667 q 99 885 71 832 q 173 966 126 939 q 269 1006 219 993 q 376 1018 319 1018 q 541 994 463 1018 q 619 926 619 969 q 606 885 619 907 q 569 863 592 863 q 506 889 564 863 q 376 915 447 915 q 240 881 292 915 q 188 771 188 846 q 235 667 188 707 q 349 604 282 628 q 483 550 417 581 q 597 452 550 519 q 644 281 644 385 q 580 82 644 154 q 404 -7 515 10 l 385 -81 q 485 -111 451 -82 q 518 -182 518 -140 q 485 -260 518 -226 q 389 -294 453 -294 q 315 -285 351 -294 q 278 -257 278 -275 q 285 -233 278 -247 q 303 -218 292 -218 q 330 -228 306 -218 q 381 -237 354 -237 q 453 -186 453 -237 q 371 -129 453 -136 l 311 -125 l 340 -11 q 131 42 217 -11 q 46 146 46 94 z "},"ş":{"ha":544,"x_min":42,"x_max":501,"o":"m 42 94 q 53 130 42 113 q 82 147 65 147 q 114 131 93 147 q 174 98 135 114 q 265 82 213 82 q 366 107 335 82 q 397 169 397 132 q 363 242 397 215 q 278 283 328 269 q 178 314 228 297 q 93 369 128 331 q 58 472 58 408 q 115 609 58 551 q 286 667 171 667 q 421 644 360 667 q 482 592 482 621 q 469 554 482 575 q 436 533 456 533 q 383 553 431 533 q 288 574 335 574 q 192 544 224 574 q 161 476 161 514 q 196 415 161 438 q 281 381 231 393 q 382 350 332 368 q 467 288 432 332 q 501 175 501 244 q 453 50 501 99 q 315 -8 404 1 l 296 -81 q 396 -111 363 -82 q 429 -182 429 -140 q 397 -260 429 -226 q 300 -294 364 -294 q 226 -285 263 -294 q 189 -257 189 -275 q 196 -233 189 -247 q 214 -218 203 -218 q 241 -228 217 -218 q 292 -237 265 -237 q 364 -186 364 -237 q 282 -129 364 -136 l 222 -125 l 251 -11 q 102 26 163 -7 q 42 94 42 58 z "},"Š":{"ha":697,"x_min":46,"x_max":644,"o":"m 46 146 q 62 189 46 168 q 97 210 78 210 q 129 192 110 210 q 169 153 149 175 q 235 115 190 132 q 335 97 279 97 q 476 141 425 97 q 528 269 528 185 q 481 394 528 346 q 367 467 433 442 q 233 520 300 492 q 118 608 165 549 q 71 760 71 667 q 99 885 71 832 q 173 966 126 939 q 269 1006 219 993 q 376 1018 319 1018 q 541 994 463 1018 q 619 926 619 969 q 606 885 619 907 q 569 863 592 863 q 506 889 564 863 q 376 915 447 915 q 240 881 292 915 q 188 771 188 846 q 235 667 188 707 q 349 604 282 628 q 483 550 417 581 q 597 452 550 519 q 644 281 644 385 q 561 63 644 136 q 340 -11 478 -11 q 131 42 217 -11 q 46 146 46 94 m 156 1326 q 164 1352 156 1340 q 185 1364 172 1364 q 204 1356 196 1364 l 343 1239 l 483 1356 q 503 1364 490 1364 q 524 1352 515 1364 q 532 1326 532 1340 q 511 1289 532 1303 l 371 1174 q 343 1161 356 1161 q 317 1174 329 1161 l 175 1289 q 156 1326 156 1303 z "},"š":{"ha":544,"x_min":42,"x_max":501,"o":"m 42 94 q 53 130 42 113 q 82 147 65 147 q 114 131 93 147 q 174 98 135 114 q 265 82 213 82 q 366 107 335 82 q 397 169 397 132 q 363 242 397 215 q 278 283 328 269 q 178 314 228 297 q 93 369 128 331 q 58 472 58 408 q 115 609 58 551 q 286 667 171 667 q 421 644 360 667 q 482 592 482 621 q 469 554 482 575 q 436 533 456 533 q 383 553 431 533 q 288 574 335 574 q 192 544 224 574 q 161 476 161 514 q 196 415 161 438 q 281 381 231 393 q 382 350 332 368 q 467 288 432 332 q 501 175 501 244 q 440 39 501 89 q 269 -11 379 -11 q 108 23 175 -11 q 42 94 42 57 m 81 978 q 89 1003 81 992 q 110 1015 97 1015 q 129 1007 121 1015 l 268 890 l 408 1007 q 428 1015 415 1015 q 449 1003 440 1015 q 457 978 457 992 q 436 940 457 954 l 296 825 q 268 813 281 813 q 242 825 254 813 l 100 940 q 81 978 81 954 z "},"Ţ":{"ha":686,"x_min":18,"x_max":667,"o":"m 18 963 q 29 999 18 983 q 60 1015 40 1015 l 625 1015 q 656 999 644 1015 q 667 963 667 983 q 656 924 667 940 q 625 907 644 907 l 401 907 l 401 42 q 384 11 401 22 q 343 0 367 0 q 302 11 319 0 q 285 42 285 22 l 285 907 l 60 907 q 29 923 40 907 q 18 963 18 939 m 222 -186 q 240 -156 222 -165 l 403 -69 q 417 -67 414 -67 q 445 -81 433 -67 q 457 -114 457 -96 q 438 -147 457 -136 l 281 -229 q 264 -233 272 -233 q 235 -219 247 -233 q 222 -186 222 -204 z "},"ţ":{"ha":431,"x_min":79,"x_max":404,"o":"m 79 210 l 79 925 q 97 953 79 942 q 136 965 115 965 q 176 953 158 965 q 194 925 194 942 l 194 658 l 369 658 q 394 644 385 658 q 404 613 404 631 q 394 581 404 594 q 369 568 385 568 l 194 568 l 194 210 q 220 126 194 150 q 310 101 246 101 l 353 101 q 390 87 376 101 q 403 51 403 72 q 389 15 403 31 q 353 0 375 0 l 310 0 q 79 210 79 0 m 89 -186 q 107 -156 89 -165 l 269 -69 q 283 -67 281 -67 q 312 -81 300 -67 q 324 -114 324 -96 q 304 -147 324 -136 l 147 -229 q 131 -233 139 -233 q 101 -219 114 -233 q 89 -186 89 -204 z "},"Ť":{"ha":686,"x_min":18,"x_max":667,"o":"m 18 963 q 29 999 18 983 q 60 1015 40 1015 l 625 1015 q 656 999 644 1015 q 667 963 667 983 q 656 924 667 940 q 625 907 644 907 l 401 907 l 401 42 q 384 11 401 22 q 343 0 367 0 q 302 11 319 0 q 285 42 285 22 l 285 907 l 60 907 q 29 923 40 907 q 18 963 18 939 m 153 1326 q 161 1352 153 1340 q 182 1364 169 1364 q 201 1356 193 1364 l 340 1239 l 481 1356 q 500 1364 488 1364 q 521 1352 513 1364 q 529 1326 529 1340 q 508 1289 529 1303 l 368 1174 q 340 1161 353 1161 q 314 1174 326 1161 l 172 1289 q 153 1326 153 1303 z "},"ť":{"ha":431,"x_min":79,"x_max":419,"o":"m 79 210 l 79 925 q 97 953 79 942 q 136 965 115 965 q 176 953 158 965 q 194 925 194 942 l 194 658 l 369 658 q 394 644 385 658 q 404 613 404 631 q 394 581 404 594 q 369 568 385 568 l 194 568 l 194 210 q 220 126 194 150 q 310 101 246 101 l 353 101 q 390 87 376 101 q 403 51 403 72 q 389 15 403 31 q 353 0 375 0 l 310 0 q 79 210 79 0 m 275 972 q 296 1023 275 1001 q 347 1044 317 1044 q 398 1023 376 1044 q 419 972 419 1001 q 357 803 419 943 q 329 785 349 785 q 301 794 314 785 q 288 818 288 803 q 290 832 288 824 l 319 904 q 275 972 275 922 z "},"Ŧ":{"ha":689,"x_min":19,"x_max":668,"o":"m 19 963 q 31 999 19 983 q 61 1015 42 1015 l 626 1015 q 657 999 646 1015 q 668 963 668 983 q 657 924 668 940 q 626 907 646 907 l 403 907 l 403 553 l 563 553 q 589 540 579 553 q 599 508 599 526 q 589 475 599 489 q 563 461 579 461 l 403 461 l 403 42 q 385 11 403 22 q 344 0 368 0 q 303 11 321 0 q 286 42 286 22 l 286 461 l 125 461 q 99 474 108 461 q 89 507 89 488 q 99 539 89 525 q 125 553 108 553 l 286 553 l 286 907 l 61 907 q 31 923 42 907 q 19 963 19 939 z "},"ŧ":{"ha":435,"x_min":79,"x_max":404,"o":"m 79 210 l 79 925 q 97 953 79 942 q 136 965 115 965 q 176 953 158 965 q 194 925 194 942 l 194 658 l 369 658 q 394 644 385 658 q 404 613 404 631 q 394 581 404 594 q 369 568 385 568 l 194 568 l 194 438 l 369 438 q 394 424 385 438 q 404 392 404 410 q 394 360 404 374 q 369 347 385 347 l 194 347 l 194 210 q 220 126 194 150 q 310 101 246 101 l 353 101 q 390 87 376 101 q 403 51 403 72 q 389 15 403 31 q 353 0 375 0 l 310 0 q 79 210 79 0 z "},"Ũ":{"ha":796,"x_min":94,"x_max":701,"o":"m 94 294 l 94 975 q 112 1005 94 994 q 153 1015 129 1015 q 194 1005 176 1015 q 211 975 211 994 l 211 294 q 397 97 211 97 q 536 147 488 97 q 585 294 585 196 l 585 975 q 643 1015 585 1015 q 684 1005 667 1015 q 701 975 701 994 l 701 294 q 618 65 701 138 q 397 -8 535 -8 q 177 65 260 -8 q 94 294 94 138 m 172 1232 q 213 1294 172 1272 q 293 1317 254 1317 q 388 1294 331 1317 q 481 1271 444 1271 q 544 1290 515 1271 q 582 1308 574 1308 q 606 1295 597 1308 q 615 1269 615 1282 q 576 1206 615 1226 q 499 1186 538 1186 q 401 1209 457 1186 q 310 1232 346 1232 q 244 1212 275 1232 q 204 1192 213 1192 q 181 1205 189 1192 q 172 1232 172 1218 z "},"ũ":{"ha":701,"x_min":76,"x_max":625,"o":"m 76 256 l 76 617 q 94 646 76 633 q 135 658 111 658 q 174 645 157 658 q 192 617 192 632 l 192 256 q 239 143 192 193 q 351 93 286 93 q 463 142 415 93 q 510 256 510 192 l 510 618 q 527 646 510 633 q 568 658 544 658 q 609 647 593 658 q 625 618 625 635 l 625 256 q 544 69 625 149 q 351 -11 463 -11 q 158 69 239 -11 q 76 256 76 149 m 129 883 q 170 946 129 924 q 250 968 211 968 q 344 945 288 968 q 438 922 401 922 q 501 941 472 922 q 539 960 531 960 q 563 947 554 960 q 572 921 572 933 q 533 858 572 878 q 456 838 494 838 q 358 860 414 838 q 267 883 303 883 q 201 863 232 883 q 161 843 169 843 q 138 856 146 843 q 129 883 129 869 z "},"Ū":{"ha":796,"x_min":94,"x_max":701,"o":"m 94 294 l 94 975 q 112 1005 94 994 q 153 1015 129 1015 q 194 1005 176 1015 q 211 975 211 994 l 211 294 q 397 97 211 97 q 536 147 488 97 q 585 294 585 196 l 585 975 q 643 1015 585 1015 q 684 1005 667 1015 q 701 975 701 994 l 701 294 q 618 65 701 138 q 397 -8 535 -8 q 177 65 260 -8 q 94 294 94 138 m 219 1233 q 214 1239 219 1233 q 208 1263 208 1244 q 219 1293 208 1281 q 249 1306 231 1306 l 543 1306 q 572 1293 558 1306 q 585 1263 585 1281 q 572 1233 585 1244 q 543 1221 560 1221 l 249 1221 q 219 1233 231 1221 z "},"ū":{"ha":701,"x_min":76,"x_max":625,"o":"m 76 256 l 76 617 q 94 646 76 633 q 135 658 111 658 q 174 645 157 658 q 192 617 192 632 l 192 256 q 239 143 192 193 q 351 93 286 93 q 463 142 415 93 q 510 256 510 192 l 510 618 q 527 646 510 633 q 568 658 544 658 q 609 647 593 658 q 625 618 625 635 l 625 256 q 544 69 625 149 q 351 -11 463 -11 q 158 69 239 -11 q 76 256 76 149 m 175 884 q 169 890 175 884 q 164 914 164 896 q 175 944 164 932 q 204 957 186 957 l 499 957 q 527 944 514 957 q 540 914 540 931 q 528 884 540 896 q 499 872 515 872 l 204 872 q 175 884 186 872 z "},"Ŭ":{"ha":796,"x_min":94,"x_max":701,"o":"m 94 294 l 94 975 q 112 1005 94 994 q 153 1015 129 1015 q 194 1005 176 1015 q 211 975 211 994 l 211 294 q 397 97 211 97 q 536 147 488 97 q 585 294 585 196 l 585 975 q 643 1015 585 1015 q 684 1005 667 1015 q 701 975 701 994 l 701 294 q 618 65 701 138 q 397 -8 535 -8 q 177 65 260 -8 q 94 294 94 138 m 226 1343 l 297 1343 q 326 1265 297 1297 q 394 1233 356 1233 q 463 1265 433 1233 q 492 1343 492 1297 l 563 1343 q 512 1226 563 1276 q 394 1175 461 1175 q 277 1226 328 1175 q 226 1343 226 1276 z "},"ŭ":{"ha":701,"x_min":76,"x_max":625,"o":"m 76 256 l 76 617 q 94 646 76 633 q 135 658 111 658 q 174 645 157 658 q 192 617 192 632 l 192 256 q 239 143 192 193 q 351 93 286 93 q 463 142 415 93 q 510 256 510 192 l 510 618 q 527 646 510 633 q 568 658 544 658 q 609 647 593 658 q 625 618 625 635 l 625 256 q 544 69 625 149 q 351 -11 463 -11 q 158 69 239 -11 q 76 256 76 149 m 182 994 l 253 994 q 282 917 253 949 q 350 885 311 885 q 418 917 389 885 q 447 994 447 949 l 518 994 q 467 877 518 928 q 350 826 417 826 q 233 877 283 826 q 182 994 182 928 z "},"Ů":{"ha":796,"x_min":94,"x_max":701,"o":"m 94 294 l 94 975 q 112 1005 94 994 q 153 1015 129 1015 q 194 1005 176 1015 q 211 975 211 994 l 211 294 q 397 97 211 97 q 536 147 488 97 q 585 294 585 196 l 585 975 q 643 1015 585 1015 q 684 1005 667 1015 q 701 975 701 994 l 701 294 q 618 65 701 138 q 397 -8 535 -8 q 177 65 260 -8 q 94 294 94 138 m 267 1283 q 305 1376 267 1336 q 397 1415 343 1415 q 488 1375 449 1415 q 528 1283 528 1335 q 488 1190 528 1231 q 397 1149 449 1149 q 305 1189 343 1149 q 267 1283 267 1229 m 319 1283 q 342 1227 319 1253 q 397 1201 365 1201 q 451 1227 428 1201 q 474 1283 474 1253 q 451 1336 474 1313 q 397 1360 428 1360 q 342 1335 365 1360 q 319 1283 319 1311 z "},"ů":{"ha":701,"x_min":76,"x_max":625,"o":"m 76 256 l 76 617 q 94 646 76 633 q 135 658 111 658 q 174 645 157 658 q 192 617 192 632 l 192 256 q 239 143 192 193 q 351 93 286 93 q 463 142 415 93 q 510 256 510 192 l 510 618 q 527 646 510 633 q 568 658 544 658 q 609 647 593 658 q 625 618 625 635 l 625 256 q 544 69 625 149 q 351 -11 463 -11 q 158 69 239 -11 q 76 256 76 149 m 219 935 q 258 1027 219 988 q 350 1067 296 1067 q 441 1026 401 1067 q 481 935 481 986 q 441 841 481 882 q 350 800 401 800 q 258 840 296 800 q 219 935 219 881 m 272 935 q 295 878 272 904 q 350 853 318 853 q 403 878 381 853 q 426 935 426 904 q 403 988 426 964 q 350 1011 381 1011 q 295 987 318 1011 q 272 935 272 963 z "},"Ű":{"ha":796,"x_min":94,"x_max":701,"o":"m 94 294 l 94 975 q 112 1005 94 994 q 153 1015 129 1015 q 194 1005 176 1015 q 211 975 211 994 l 211 294 q 397 97 211 97 q 536 147 488 97 q 585 294 585 196 l 585 975 q 643 1015 585 1015 q 684 1005 667 1015 q 701 975 701 994 l 701 294 q 618 65 701 138 q 397 -8 535 -8 q 177 65 260 -8 q 94 294 94 138 m 262 1171 q 255 1177 262 1171 q 249 1197 249 1183 q 260 1218 249 1211 l 388 1321 q 406 1328 394 1328 q 433 1315 421 1328 q 444 1289 444 1303 q 432 1265 444 1274 l 310 1167 q 290 1158 300 1158 q 262 1171 275 1158 m 473 1171 q 466 1177 473 1171 q 460 1197 460 1183 q 471 1218 460 1211 l 600 1321 q 618 1328 606 1328 q 644 1315 632 1328 q 656 1289 656 1303 q 643 1265 656 1274 l 521 1167 q 501 1158 513 1158 q 473 1171 486 1158 z "},"ű":{"ha":701,"x_min":76,"x_max":625,"o":"m 76 256 l 76 617 q 94 646 76 633 q 135 658 111 658 q 174 645 157 658 q 192 617 192 632 l 192 256 q 239 143 192 193 q 351 93 286 93 q 463 142 415 93 q 510 256 510 192 l 510 618 q 527 646 510 633 q 568 658 544 658 q 609 647 593 658 q 625 618 625 635 l 625 256 q 544 69 625 149 q 351 -11 463 -11 q 158 69 239 -11 q 76 256 76 149 m 193 849 q 204 869 193 863 l 332 972 q 350 979 339 979 q 377 967 365 979 q 389 940 389 954 q 376 917 389 925 l 254 818 q 235 810 244 810 q 206 822 219 810 q 193 849 193 833 m 404 849 q 415 869 404 863 l 544 972 q 563 979 550 979 q 588 967 576 979 q 600 940 600 954 q 588 917 600 925 l 465 818 q 446 810 457 810 q 417 822 431 810 q 404 849 404 833 z "},"Ų":{"ha":796,"x_min":94,"x_max":701,"o":"m 94 294 l 94 975 q 112 1005 94 994 q 153 1015 129 1015 q 194 1005 176 1015 q 211 975 211 994 l 211 294 q 397 97 211 97 q 536 147 488 97 q 585 294 585 196 l 585 975 q 643 1015 585 1015 q 684 1005 667 1015 q 701 975 701 994 l 701 294 q 510 6 701 60 q 408 -164 408 -74 q 493 -226 408 -226 q 521 -257 521 -226 q 485 -283 521 -283 q 383 -256 422 -283 q 343 -174 343 -228 q 418 -7 343 -85 q 407 -8 414 -7 q 397 -8 400 -8 q 177 65 260 -8 q 94 294 94 138 z "},"ų":{"ha":701,"x_min":76,"x_max":625,"o":"m 76 256 l 76 617 q 94 646 76 633 q 135 658 111 658 q 174 645 157 658 q 192 617 192 632 l 192 256 q 239 143 192 193 q 351 93 286 93 q 463 142 415 93 q 510 256 510 192 l 510 618 q 527 646 510 633 q 568 658 544 658 q 609 647 593 658 q 625 618 625 635 l 625 256 q 572 101 625 172 q 439 3 519 31 q 340 -164 340 -76 q 425 -226 340 -226 q 453 -257 453 -226 q 417 -283 453 -283 q 315 -256 354 -283 q 275 -174 275 -228 q 346 -11 275 -86 q 156 70 235 -10 q 76 256 76 150 z "},"Ŵ":{"ha":1129,"x_min":24,"x_max":1104,"o":"m 24 968 q 47 1001 24 988 q 94 1015 69 1015 q 138 989 129 1015 l 372 164 l 504 672 q 565 708 514 708 q 624 672 614 708 l 757 164 l 990 989 q 1035 1015 999 1015 q 1082 1001 1060 1015 q 1104 968 1104 988 q 1103 956 1104 960 l 829 32 q 757 -8 817 -8 q 685 32 694 -8 l 565 490 l 444 32 q 374 -8 433 -8 q 301 32 314 -8 l 26 956 q 24 968 24 964 m 375 1206 q 396 1242 375 1231 l 540 1319 q 564 1326 554 1326 q 588 1319 576 1326 l 732 1243 q 754 1204 754 1231 q 745 1177 754 1189 q 722 1165 736 1165 q 714 1167 719 1165 q 708 1169 711 1169 l 564 1247 l 419 1169 q 407 1165 414 1165 q 385 1178 394 1165 q 375 1206 375 1190 z "},"ŵ":{"ha":938,"x_min":19,"x_max":919,"o":"m 19 611 q 42 647 19 632 q 90 661 65 661 q 128 639 119 661 l 296 172 l 426 593 q 469 621 436 621 q 514 593 504 621 l 642 168 l 811 639 q 847 661 818 661 q 896 647 872 661 q 919 611 919 632 q 914 589 919 600 l 697 13 q 651 -12 688 -12 q 604 13 614 -12 l 469 421 l 338 17 q 288 -12 328 -12 q 240 17 251 -12 l 25 589 q 19 611 19 606 m 279 857 q 300 893 279 883 l 444 971 q 468 978 458 978 q 492 971 481 978 l 636 894 q 658 856 658 882 q 649 828 658 840 q 626 817 639 817 q 618 818 624 817 q 613 821 615 821 l 468 899 l 324 821 q 311 817 317 817 q 289 829 299 817 q 279 857 279 842 z "},"Ŷ":{"ha":757,"x_min":24,"x_max":733,"o":"m 24 967 q 47 1001 24 988 q 93 1015 69 1015 q 135 985 118 1015 l 379 508 l 622 985 q 664 1015 639 1015 q 711 1001 689 1015 q 733 967 733 988 q 728 943 733 956 l 440 407 q 438 393 438 403 l 438 42 q 420 11 438 22 q 379 0 403 0 q 338 11 356 0 q 321 42 321 22 l 321 393 q 317 407 321 400 l 29 943 q 24 967 24 956 m 189 1206 q 210 1242 189 1231 l 354 1319 q 378 1326 368 1326 q 401 1319 390 1326 l 546 1243 q 568 1204 568 1231 q 559 1177 568 1189 q 536 1165 550 1165 q 528 1167 533 1165 q 522 1169 525 1169 l 378 1247 l 233 1169 q 221 1165 228 1165 q 199 1178 208 1165 q 189 1206 189 1190 z "},"ŷ":{"ha":607,"x_min":17,"x_max":589,"o":"m 17 611 q 42 650 17 633 q 92 667 67 667 q 129 643 121 667 l 313 160 l 478 643 q 514 667 488 667 q 563 650 538 667 q 589 610 589 633 q 585 596 589 603 l 374 31 l 347 -39 q 319 -106 340 -58 q 285 -174 299 -153 q 246 -228 271 -194 q 197 -278 221 -262 q 141 -306 174 -293 q 72 -318 108 -318 q 18 -267 18 -318 q 51 -217 18 -217 q 173 -147 114 -217 q 253 33 232 -76 l 22 596 q 17 611 17 604 m 122 857 q 143 893 122 883 l 288 971 q 311 978 301 978 q 335 971 324 978 l 479 894 q 501 856 501 882 q 492 828 501 840 q 469 817 483 817 q 461 818 467 817 q 456 821 458 821 l 311 899 l 167 821 q 154 817 161 817 q 132 829 142 817 q 122 857 122 842 z "},"Ÿ":{"ha":757,"x_min":24,"x_max":733,"o":"m 24 967 q 47 1001 24 988 q 93 1015 69 1015 q 135 985 118 1015 l 379 508 l 622 985 q 664 1015 639 1015 q 711 1001 689 1015 q 733 967 733 988 q 728 943 733 956 l 440 407 q 438 393 438 403 l 438 42 q 420 11 438 22 q 379 0 403 0 q 338 11 356 0 q 321 42 321 22 l 321 393 q 317 407 321 400 l 29 943 q 24 967 24 956 m 249 1183 q 240 1191 249 1183 q 232 1224 232 1200 q 249 1264 232 1247 q 289 1281 265 1281 q 328 1264 313 1281 q 344 1224 344 1247 q 328 1183 344 1200 q 289 1165 311 1165 q 249 1183 265 1165 m 430 1183 q 422 1191 430 1183 q 414 1224 414 1200 q 430 1264 414 1247 q 469 1281 446 1281 q 509 1264 493 1281 q 525 1224 525 1247 q 509 1183 525 1200 q 469 1165 493 1165 q 430 1183 446 1165 z "},"Ź":{"ha":688,"x_min":29,"x_max":660,"o":"m 29 38 q 40 78 29 56 l 489 910 l 89 910 q 59 925 69 910 q 49 963 49 940 q 59 1000 49 985 q 89 1015 69 1015 l 600 1015 q 640 981 640 1015 q 626 936 640 961 l 179 106 l 618 106 q 648 90 636 106 q 660 53 660 74 q 648 16 660 32 q 618 0 636 0 l 69 0 q 29 38 29 0 m 238 1207 q 256 1238 238 1228 l 418 1324 q 432 1326 426 1326 q 460 1312 449 1326 q 471 1279 471 1297 q 451 1246 471 1256 l 294 1165 q 279 1160 283 1160 q 250 1174 263 1160 q 238 1207 238 1189 z "},"ź":{"ha":571,"x_min":32,"x_max":540,"o":"m 32 43 q 50 89 32 65 l 371 560 l 83 560 q 56 574 68 560 q 44 608 44 589 q 56 644 44 629 q 83 658 67 658 l 481 658 q 510 646 497 658 q 522 614 522 633 q 506 569 522 590 l 183 99 l 501 99 q 528 84 517 99 q 540 49 540 69 q 529 14 540 28 q 501 0 518 0 l 75 0 q 43 13 54 0 q 32 43 32 26 m 190 858 q 208 889 190 879 l 371 975 q 385 978 379 978 q 413 963 401 978 q 424 931 424 949 q 404 897 424 907 l 247 817 q 232 811 236 811 q 203 826 215 811 q 190 858 190 840 z "},"Ż":{"ha":688,"x_min":29,"x_max":660,"o":"m 29 38 q 40 78 29 56 l 489 910 l 89 910 q 59 925 69 910 q 49 963 49 940 q 59 1000 49 985 q 89 1015 69 1015 l 600 1015 q 640 981 640 1015 q 626 936 640 961 l 179 106 l 618 106 q 648 90 636 106 q 660 53 660 74 q 648 16 660 32 q 618 0 636 0 l 69 0 q 29 38 29 0 m 304 1183 q 296 1191 304 1183 q 288 1224 288 1200 q 304 1264 288 1247 q 344 1281 321 1281 q 384 1264 368 1281 q 400 1224 400 1247 q 383 1183 400 1200 q 344 1165 367 1165 q 304 1183 321 1165 z "},"ż":{"ha":571,"x_min":32,"x_max":540,"o":"m 32 43 q 50 89 32 65 l 371 560 l 83 560 q 56 574 68 560 q 44 608 44 589 q 56 644 44 629 q 83 658 67 658 l 481 658 q 510 646 497 658 q 522 614 522 633 q 506 569 522 590 l 183 99 l 501 99 q 528 84 517 99 q 540 49 540 69 q 529 14 540 28 q 501 0 518 0 l 75 0 q 43 13 54 0 q 32 43 32 26 m 243 834 q 235 843 243 834 q 226 875 226 851 q 243 915 226 899 q 283 932 260 932 q 323 915 307 932 q 339 875 339 899 q 322 834 339 851 q 283 817 306 817 q 243 834 260 817 z "},"Ž":{"ha":688,"x_min":29,"x_max":660,"o":"m 29 38 q 40 78 29 56 l 489 910 l 89 910 q 59 925 69 910 q 49 963 49 940 q 59 1000 49 985 q 89 1015 69 1015 l 600 1015 q 640 981 640 1015 q 626 936 640 961 l 179 106 l 618 106 q 648 90 636 106 q 660 53 660 74 q 648 16 660 32 q 618 0 636 0 l 69 0 q 29 38 29 0 m 150 1326 q 158 1352 150 1340 q 179 1364 167 1364 q 199 1356 190 1364 l 338 1239 l 478 1356 q 497 1364 485 1364 q 518 1352 510 1364 q 526 1326 526 1340 q 506 1289 526 1303 l 365 1174 q 338 1161 350 1161 q 311 1174 324 1161 l 169 1289 q 150 1326 150 1303 z "},"ž":{"ha":571,"x_min":32,"x_max":540,"o":"m 32 43 q 50 89 32 65 l 371 560 l 83 560 q 56 574 68 560 q 44 608 44 589 q 56 644 44 629 q 83 658 67 658 l 481 658 q 510 646 497 658 q 522 614 522 633 q 506 569 522 590 l 183 99 l 501 99 q 528 84 517 99 q 540 49 540 69 q 529 14 540 28 q 501 0 518 0 l 75 0 q 43 13 54 0 q 32 43 32 26 m 94 978 q 103 1003 94 992 q 124 1015 111 1015 q 143 1007 135 1015 l 282 890 l 422 1007 q 442 1015 429 1015 q 463 1003 454 1015 q 471 978 471 992 q 450 940 471 954 l 310 825 q 282 813 294 813 q 256 825 268 813 l 114 940 q 94 978 94 954 z "},"ƒ":{"ha":496,"x_min":-103,"x_max":538,"o":"m -103 -139 q -90 -98 -103 -115 q -57 -81 -76 -81 l -28 -81 q 67 89 43 -81 l 165 803 q 266 989 179 911 q 460 1067 353 1067 l 500 1067 q 527 1052 517 1067 q 538 1017 538 1038 q 524 978 538 993 q 493 963 511 963 l 456 963 q 340 916 389 963 q 281 803 292 869 l 250 589 l 442 589 q 467 576 457 589 q 476 546 476 564 q 465 513 476 526 q 438 499 454 499 l 238 499 l 181 89 q 111 -112 163 -35 q -33 -190 60 -190 l -64 -190 q -92 -175 -82 -190 q -103 -139 -103 -160 z "},"Ǽ":{"ha":1021,"x_min":94,"x_max":990,"o":"m 94 49 l 94 713 q 175 942 94 869 q 389 1015 256 1015 l 950 1015 q 980 1000 969 1015 q 990 964 990 985 q 980 925 990 940 q 950 910 969 910 l 626 910 l 626 557 l 821 557 q 850 542 839 557 q 861 507 861 528 q 851 474 861 489 q 821 460 840 460 l 626 460 l 626 106 l 950 106 q 980 90 969 106 q 990 51 990 75 q 980 15 990 31 q 950 0 969 0 l 563 0 q 526 11 542 0 q 510 42 510 22 l 510 460 l 206 460 l 206 49 q 194 12 206 24 q 147 0 183 0 q 94 49 94 0 m 206 557 l 510 557 l 510 910 l 389 910 q 253 860 301 910 q 206 713 206 811 l 206 557 m 446 1204 q 464 1235 446 1225 l 626 1321 q 640 1324 635 1324 q 668 1309 657 1324 q 679 1276 679 1294 q 660 1243 679 1253 l 503 1163 q 488 1157 492 1157 q 458 1172 471 1157 q 446 1204 446 1186 z "},"ǽ":{"ha":1018,"x_min":39,"x_max":974,"o":"m 39 172 q 122 324 39 282 q 361 367 204 367 l 428 367 l 428 397 q 390 519 428 468 q 274 569 353 569 q 173 549 218 569 q 124 528 128 528 q 93 547 106 528 q 81 588 81 565 q 144 642 81 618 q 279 667 208 667 q 493 543 429 667 q 585 633 529 599 q 706 667 640 667 q 892 597 811 667 q 974 399 974 526 q 946 315 974 335 q 850 296 918 296 l 547 296 l 547 254 q 601 132 547 178 q 742 86 656 86 q 852 113 801 86 q 911 140 903 140 q 943 123 929 140 q 957 88 957 106 q 885 21 957 53 q 729 -11 814 -11 q 583 26 650 -11 q 479 128 517 63 q 372 24 436 60 q 240 -11 307 -11 q 97 36 154 -11 q 39 172 39 83 m 156 183 q 185 108 156 135 q 261 82 214 82 q 376 128 325 82 q 428 224 428 175 l 428 296 l 381 296 q 293 292 328 296 q 224 278 258 289 q 172 243 189 267 q 156 183 156 219 m 400 858 q 418 889 400 879 l 581 975 q 594 978 589 978 q 622 963 611 978 q 633 931 633 949 q 614 897 633 907 l 457 817 q 442 811 446 811 q 413 826 425 811 q 400 858 400 840 m 547 374 l 801 374 q 852 383 840 374 q 864 417 864 392 q 818 528 864 482 q 704 575 772 575 q 593 531 639 575 q 547 424 547 488 l 547 374 z "},"Ǿ":{"ha":776,"x_min":86,"x_max":693,"o":"m 86 0 q 90 18 86 13 l 135 107 q 89 294 89 179 l 89 713 q 170 942 89 869 q 388 1015 251 1015 q 571 968 494 1015 l 611 1049 q 644 1069 622 1069 q 678 1056 663 1069 q 693 1024 693 1043 q 688 1004 693 1014 l 638 904 q 688 713 688 832 l 688 294 q 606 65 688 138 q 388 -8 524 -8 q 200 40 272 -8 l 169 -19 q 131 -42 160 -42 q 99 -29 111 -42 q 86 0 86 -17 m 206 294 q 208 251 206 276 l 518 865 q 388 910 471 910 q 206 713 206 910 l 206 294 m 253 146 q 388 97 297 97 q 523 147 475 97 q 571 294 571 196 l 571 713 q 567 765 571 740 l 253 146 m 285 1207 q 303 1238 285 1228 l 465 1324 q 479 1326 474 1326 q 507 1312 496 1326 q 518 1279 518 1297 q 499 1246 518 1256 l 342 1165 q 326 1160 331 1160 q 297 1174 310 1160 q 285 1207 285 1189 z "},"ǿ":{"ha":663,"x_min":57,"x_max":606,"o":"m 57 258 l 57 400 q 138 587 57 507 q 331 667 219 667 q 472 626 406 667 l 513 693 q 536 707 521 707 q 559 697 549 707 q 569 674 569 688 q 563 653 569 664 l 522 589 q 606 400 606 510 l 606 258 q 523 71 606 153 q 331 -11 440 -11 q 182 35 250 -11 l 142 -31 q 118 -44 133 -44 q 97 -36 107 -44 q 88 -15 88 -28 q 93 3 88 -8 l 136 72 q 57 258 57 154 m 172 258 q 196 172 172 213 l 417 535 q 331 563 375 563 q 219 513 265 563 q 172 400 172 463 l 172 258 m 238 125 q 331 93 281 93 q 443 144 396 93 q 490 258 490 194 l 490 400 q 461 489 490 446 l 238 125 m 240 858 q 258 889 240 879 l 421 975 q 435 978 429 978 q 463 963 451 978 q 474 931 474 949 q 454 897 474 907 l 297 817 q 282 811 286 811 q 253 826 265 811 q 240 858 240 840 z "},"Ș":{"ha":697,"x_min":46,"x_max":644,"o":"m 46 146 q 62 189 46 168 q 97 210 78 210 q 129 192 110 210 q 169 153 149 175 q 235 115 190 132 q 335 97 279 97 q 476 141 425 97 q 528 269 528 185 q 481 394 528 346 q 367 467 433 442 q 233 520 300 492 q 118 608 165 549 q 71 760 71 667 q 99 885 71 832 q 173 966 126 939 q 269 1006 219 993 q 376 1018 319 1018 q 541 994 463 1018 q 619 926 619 969 q 606 885 619 907 q 569 863 592 863 q 506 889 564 863 q 376 915 447 915 q 240 881 292 915 q 188 771 188 846 q 235 667 188 707 q 349 604 282 628 q 483 550 417 581 q 597 452 550 519 q 644 281 644 385 q 561 63 644 136 q 340 -11 478 -11 q 131 42 217 -11 q 46 146 46 94 m 246 -186 q 264 -156 246 -165 l 426 -69 q 440 -67 438 -67 q 469 -81 457 -67 q 481 -114 481 -96 q 461 -147 481 -136 l 304 -229 q 288 -233 296 -233 q 258 -219 271 -233 q 246 -186 246 -204 z "},"ș":{"ha":544,"x_min":42,"x_max":501,"o":"m 42 94 q 53 130 42 113 q 82 147 65 147 q 114 131 93 147 q 174 98 135 114 q 265 82 213 82 q 366 107 335 82 q 397 169 397 132 q 363 242 397 215 q 278 283 328 269 q 178 314 228 297 q 93 369 128 331 q 58 472 58 408 q 115 609 58 551 q 286 667 171 667 q 421 644 360 667 q 482 592 482 621 q 469 554 482 575 q 436 533 456 533 q 383 553 431 533 q 288 574 335 574 q 192 544 224 574 q 161 476 161 514 q 196 415 161 438 q 281 381 231 393 q 382 350 332 368 q 467 288 432 332 q 501 175 501 244 q 440 39 501 89 q 269 -11 379 -11 q 108 23 175 -11 q 42 94 42 57 m 158 -186 q 176 -156 158 -165 l 339 -69 q 353 -67 350 -67 q 381 -81 369 -67 q 393 -114 393 -96 q 374 -147 393 -136 l 217 -229 q 200 -233 208 -233 q 171 -219 183 -233 q 158 -186 158 -204 z "},"ȷ":{"ha":282,"x_min":-51,"x_max":199,"o":"m -51 -268 q -37 -231 -51 -246 q -4 -217 -24 -217 q 67 -176 50 -217 q 83 -56 83 -136 l 83 618 q 99 647 83 636 q 140 658 115 658 q 182 647 165 658 q 199 618 199 636 l 199 -56 q 151 -247 199 -176 q 8 -318 104 -318 q -51 -268 -51 -318 z "},"ə":{"ha":644,"x_min":44,"x_max":588,"o":"m 44 244 q 54 309 44 285 q 84 344 64 333 q 122 357 104 354 q 168 360 139 360 l 472 360 l 472 401 q 417 524 472 478 q 275 569 363 569 q 195 556 229 569 q 140 528 161 542 q 107 515 119 515 q 74 533 88 515 q 60 568 60 550 q 123 633 60 600 q 279 667 186 667 q 501 592 415 667 q 588 397 588 518 l 588 251 q 506 67 588 144 q 311 -11 425 -11 q 124 62 203 -11 q 44 244 44 135 m 154 238 q 200 128 154 175 q 313 81 246 81 q 425 124 378 81 q 472 232 472 168 l 472 282 l 215 282 q 167 273 179 282 q 154 238 154 264 z "},"ˆ":{"ha":379,"x_min":0,"x_max":379,"o":"m 0 857 q 21 893 0 883 l 165 971 q 189 978 179 978 q 213 971 201 978 l 357 894 q 379 856 379 882 q 370 828 379 840 q 347 817 361 817 q 339 818 344 817 q 333 821 336 821 l 189 899 l 44 821 q 32 817 39 817 q 10 829 19 817 q 0 857 0 842 z "},"ˇ":{"ha":396,"x_min":10,"x_max":386,"o":"m 10 978 q 18 1003 10 992 q 39 1015 26 1015 q 58 1007 50 1015 l 197 890 l 338 1007 q 357 1015 344 1015 q 378 1003 369 1015 q 386 978 386 992 q 365 940 386 954 l 225 825 q 197 813 211 813 q 171 825 183 813 l 29 940 q 10 978 10 954 z "},"˘":{"ha":336,"x_min":0,"x_max":336,"o":"m 0 994 l 71 994 q 100 917 71 949 q 168 885 129 885 q 236 917 207 885 q 265 994 265 949 l 336 994 q 285 877 336 928 q 168 826 235 826 q 51 877 101 826 q 0 994 0 928 z "},"˙":{"ha":276,"x_min":89,"x_max":201,"o":"m 106 834 q 97 843 106 834 q 89 875 89 851 q 106 915 89 899 q 146 932 122 932 q 185 915 169 932 q 201 875 201 899 q 185 834 201 851 q 146 817 168 817 q 106 834 122 817 z "},"˚":{"ha":261,"x_min":0,"x_max":261,"o":"m 0 935 q 38 1027 0 988 q 131 1067 76 1067 q 222 1026 182 1067 q 261 935 261 986 q 222 841 261 882 q 131 800 182 800 q 38 840 76 800 q 0 935 0 881 m 53 935 q 76 878 53 904 q 131 853 99 853 q 184 878 161 853 q 207 935 207 904 q 184 988 207 964 q 131 1011 161 1011 q 76 987 99 1011 q 53 935 53 963 z "},"˛":{"ha":178,"x_min":0,"x_max":178,"o":"m 0 -174 q 118 31 0 -60 l 168 7 q 65 -164 65 -76 q 150 -226 65 -226 q 178 -257 178 -226 q 142 -283 178 -283 q 40 -256 79 -283 q 0 -174 0 -228 z "},"˜":{"ha":443,"x_min":0,"x_max":443,"o":"m 0 883 q 41 946 0 924 q 121 968 82 968 q 215 945 158 968 q 308 922 272 922 q 372 941 343 922 q 410 960 401 960 q 434 947 425 960 q 443 921 443 933 q 404 858 443 878 q 326 838 365 838 q 229 860 285 838 q 138 883 174 883 q 72 863 103 883 q 32 843 40 843 q 8 856 17 843 q 0 883 0 869 z "},"˝":{"ha":407,"x_min":0,"x_max":407,"o":"m 0 849 q 11 869 0 863 l 139 972 q 157 979 146 979 q 184 967 172 979 q 196 940 196 954 q 183 917 196 925 l 61 818 q 42 810 50 810 q 13 822 26 810 q 0 849 0 833 m 211 849 q 222 869 211 863 l 351 972 q 369 979 357 979 q 395 967 383 979 q 407 940 407 954 q 394 917 407 925 l 272 818 q 253 810 264 810 q 224 822 238 810 q 211 849 211 833 z "},"π":{"ha":701,"x_min":82,"x_max":619,"o":"m 82 40 l 82 617 q 98 647 82 636 q 135 658 114 658 l 567 658 q 603 647 588 658 q 619 617 619 636 l 619 40 q 602 10 619 21 q 561 0 585 0 q 520 10 538 0 q 503 40 503 21 l 503 553 l 199 553 l 199 40 q 181 10 199 21 q 140 0 164 0 q 99 10 117 0 q 82 40 82 21 z "},"Ẁ":{"ha":1129,"x_min":24,"x_max":1104,"o":"m 24 968 q 47 1001 24 988 q 94 1015 69 1015 q 138 989 129 1015 l 372 164 l 504 672 q 565 708 514 708 q 624 672 614 708 l 757 164 l 990 989 q 1035 1015 999 1015 q 1082 1001 1060 1015 q 1104 968 1104 988 q 1103 956 1104 960 l 829 32 q 757 -8 817 -8 q 685 32 694 -8 l 565 490 l 444 32 q 374 -8 433 -8 q 301 32 314 -8 l 26 956 q 24 968 24 964 m 436 1279 q 447 1312 436 1297 q 475 1326 458 1326 q 489 1324 481 1326 l 651 1238 q 669 1207 669 1228 q 657 1174 669 1189 q 628 1160 644 1160 q 613 1165 624 1160 l 456 1246 q 436 1279 436 1256 z "},"ẁ":{"ha":938,"x_min":19,"x_max":919,"o":"m 19 611 q 42 647 19 632 q 90 661 65 661 q 128 639 119 661 l 296 172 l 426 593 q 469 621 436 621 q 514 593 504 621 l 642 168 l 811 639 q 847 661 818 661 q 896 647 872 661 q 919 611 919 632 q 914 589 919 600 l 697 13 q 651 -12 688 -12 q 604 13 614 -12 l 469 421 l 338 17 q 288 -12 328 -12 q 240 17 251 -12 l 25 589 q 19 611 19 606 m 335 931 q 346 963 335 949 q 374 978 357 978 q 388 975 379 978 l 550 889 q 568 858 568 881 q 556 826 568 840 q 526 811 543 811 q 511 817 522 811 l 354 897 q 335 931 335 907 z "},"Ẃ":{"ha":1129,"x_min":24,"x_max":1104,"o":"m 24 968 q 47 1001 24 988 q 94 1015 69 1015 q 138 989 129 1015 l 372 164 l 504 672 q 565 708 514 708 q 624 672 614 708 l 757 164 l 990 989 q 1035 1015 999 1015 q 1082 1001 1060 1015 q 1104 968 1104 988 q 1103 956 1104 960 l 829 32 q 757 -8 817 -8 q 685 32 694 -8 l 565 490 l 444 32 q 374 -8 433 -8 q 301 32 314 -8 l 26 956 q 24 968 24 964 m 458 1207 q 476 1238 458 1228 l 639 1324 q 653 1326 647 1326 q 681 1312 669 1326 q 692 1279 692 1297 q 672 1246 692 1256 l 515 1165 q 500 1160 504 1160 q 471 1174 483 1160 q 458 1207 458 1189 z "},"ẃ":{"ha":938,"x_min":19,"x_max":919,"o":"m 19 611 q 42 647 19 632 q 90 661 65 661 q 128 639 119 661 l 296 172 l 426 593 q 469 621 436 621 q 514 593 504 621 l 642 168 l 811 639 q 847 661 818 661 q 896 647 872 661 q 919 611 919 632 q 914 589 919 600 l 697 13 q 651 -12 688 -12 q 604 13 614 -12 l 469 421 l 338 17 q 288 -12 328 -12 q 240 17 251 -12 l 25 589 q 19 611 19 606 m 368 858 q 386 889 368 879 l 549 975 q 563 978 557 978 q 590 963 579 978 q 601 931 601 949 q 582 897 601 907 l 425 817 q 410 811 414 811 q 381 826 393 811 q 368 858 368 840 z "},"Ẅ":{"ha":1129,"x_min":24,"x_max":1104,"o":"m 24 968 q 47 1001 24 988 q 94 1015 69 1015 q 138 989 129 1015 l 372 164 l 504 672 q 565 708 514 708 q 624 672 614 708 l 757 164 l 990 989 q 1035 1015 999 1015 q 1082 1001 1060 1015 q 1104 968 1104 988 q 1103 956 1104 960 l 829 32 q 757 -8 817 -8 q 685 32 694 -8 l 565 490 l 444 32 q 374 -8 433 -8 q 301 32 314 -8 l 26 956 q 24 968 24 964 m 435 1183 q 426 1191 435 1183 q 418 1224 418 1200 q 435 1264 418 1247 q 475 1281 451 1281 q 515 1264 499 1281 q 531 1224 531 1247 q 514 1183 531 1200 q 475 1165 497 1165 q 435 1183 451 1165 m 616 1183 q 608 1191 616 1183 q 600 1224 600 1200 q 616 1264 600 1247 q 656 1281 632 1281 q 695 1264 679 1281 q 711 1224 711 1247 q 695 1183 711 1200 q 656 1165 679 1165 q 616 1183 632 1165 z "},"ẅ":{"ha":938,"x_min":19,"x_max":919,"o":"m 19 611 q 42 647 19 632 q 90 661 65 661 q 128 639 119 661 l 296 172 l 426 593 q 469 621 436 621 q 514 593 504 621 l 642 168 l 811 639 q 847 661 818 661 q 896 647 872 661 q 919 611 919 632 q 914 589 919 600 l 697 13 q 651 -12 688 -12 q 604 13 614 -12 l 469 421 l 338 17 q 288 -12 328 -12 q 240 17 251 -12 l 25 589 q 19 611 19 606 m 339 834 q 331 843 339 834 q 322 875 322 851 q 339 915 322 899 q 379 932 356 932 q 419 915 403 932 q 435 875 435 899 q 418 834 435 851 q 379 817 401 817 q 339 834 356 817 m 520 834 q 512 843 520 834 q 504 875 504 851 q 520 915 504 899 q 560 932 536 932 q 599 915 583 932 q 615 875 615 899 q 599 834 615 851 q 560 817 583 817 q 520 834 536 817 z "},"Ỳ":{"ha":757,"x_min":24,"x_max":733,"o":"m 24 967 q 47 1001 24 988 q 93 1015 69 1015 q 135 985 118 1015 l 379 508 l 622 985 q 664 1015 639 1015 q 711 1001 689 1015 q 733 967 733 988 q 728 943 733 956 l 440 407 q 438 393 438 403 l 438 42 q 420 11 438 22 q 379 0 403 0 q 338 11 356 0 q 321 42 321 22 l 321 393 q 317 407 321 400 l 29 943 q 24 967 24 956 m 251 1279 q 263 1312 251 1297 q 290 1326 274 1326 q 304 1324 296 1326 l 467 1238 q 485 1207 485 1228 q 472 1174 485 1189 q 443 1160 460 1160 q 428 1165 439 1160 l 271 1246 q 251 1279 251 1256 z "},"ỳ":{"ha":607,"x_min":17,"x_max":589,"o":"m 17 611 q 42 650 17 633 q 92 667 67 667 q 129 643 121 667 l 313 160 l 478 643 q 514 667 488 667 q 563 650 538 667 q 589 610 589 633 q 585 596 589 603 l 374 31 l 347 -39 q 319 -106 340 -58 q 285 -174 299 -153 q 246 -228 271 -194 q 197 -278 221 -262 q 141 -306 174 -293 q 72 -318 108 -318 q 18 -267 18 -318 q 51 -217 18 -217 q 173 -147 114 -217 q 253 33 232 -76 l 22 596 q 17 611 17 604 m 169 931 q 181 963 169 949 q 208 978 192 978 q 222 975 214 978 l 385 889 q 403 858 403 881 q 390 826 403 840 q 361 811 378 811 q 346 817 357 811 l 189 897 q 169 931 169 907 z "},"–":{"ha":657,"x_min":65,"x_max":592,"o":"m 65 333 q 76 369 65 354 q 106 383 88 383 l 550 383 q 579 369 567 383 q 592 333 592 354 q 579 299 592 313 q 550 285 567 285 l 106 285 q 65 333 65 285 z "},"—":{"ha":1046,"x_min":65,"x_max":981,"o":"m 65 333 q 76 369 65 354 q 106 383 88 383 l 939 383 q 968 369 956 383 q 981 333 981 354 q 968 299 981 313 q 939 285 956 285 l 106 285 q 65 333 65 285 z "},"‘":{"ha":232,"x_min":42,"x_max":186,"o":"m 42 842 q 104 1011 42 871 q 132 1029 113 1029 q 160 1019 147 1029 q 174 994 174 1010 q 171 981 174 986 l 142 908 q 186 842 186 890 q 165 790 186 811 q 114 769 144 769 q 63 790 85 769 q 42 842 42 811 z "},"’":{"ha":229,"x_min":47,"x_max":192,"o":"m 47 957 q 68 1008 47 986 q 119 1029 89 1029 q 170 1008 149 1029 q 192 957 192 986 q 129 788 192 928 q 101 769 121 769 q 73 778 86 769 q 60 803 60 788 q 63 817 60 813 l 92 889 q 47 957 47 907 z "},"‚":{"ha":244,"x_min":50,"x_max":193,"o":"m 50 64 q 71 116 50 94 q 122 138 92 138 q 172 116 151 138 q 193 65 193 94 q 132 -104 193 33 q 103 -124 124 -124 q 75 -114 88 -124 q 63 -89 63 -104 q 65 -75 63 -81 l 94 -3 q 50 64 50 15 z "},"“":{"ha":456,"x_min":42,"x_max":410,"o":"m 42 842 q 104 1011 42 871 q 132 1029 113 1029 q 160 1019 147 1029 q 174 994 174 1010 q 171 981 174 986 l 142 908 q 186 842 186 890 q 165 790 186 811 q 114 769 144 769 q 63 790 85 769 q 42 842 42 811 m 265 842 q 326 1011 265 874 q 356 1029 336 1029 q 383 1019 371 1029 q 396 994 396 1010 q 393 981 396 986 l 364 908 q 410 842 410 890 q 389 790 410 811 q 338 769 368 769 q 286 790 307 769 q 265 842 265 811 z "},"”":{"ha":451,"x_min":47,"x_max":414,"o":"m 47 957 q 68 1008 47 986 q 119 1029 89 1029 q 170 1008 149 1029 q 192 957 192 986 q 129 788 192 924 q 101 769 121 769 q 73 778 86 769 q 60 803 60 788 q 64 817 60 811 l 92 889 q 47 957 47 907 m 271 957 q 292 1008 271 986 q 343 1029 313 1029 q 393 1008 372 1029 q 414 957 414 986 q 353 788 414 925 q 324 769 344 769 q 296 778 308 769 q 283 803 283 788 q 286 817 283 813 l 315 889 q 271 957 271 907 z "},"„":{"ha":468,"x_min":50,"x_max":417,"o":"m 50 64 q 71 116 50 94 q 122 138 92 138 q 172 116 151 138 q 193 65 193 94 q 132 -104 193 33 q 103 -124 124 -124 q 75 -114 88 -124 q 63 -89 63 -104 q 65 -75 63 -81 l 94 -3 q 50 64 50 15 m 272 64 q 293 116 272 94 q 344 138 314 138 q 395 116 374 138 q 417 65 417 94 q 354 -104 417 36 q 326 -124 346 -124 q 298 -114 311 -124 q 285 -89 285 -104 q 288 -75 285 -86 l 317 -3 q 272 64 272 15 z "},"†":{"ha":586,"x_min":31,"x_max":557,"o":"m 31 631 q 42 664 31 650 q 71 679 53 678 l 235 671 l 235 975 q 252 1003 235 990 q 293 1015 269 1015 q 333 1003 315 1015 q 351 975 351 990 l 351 671 l 515 679 q 544 664 532 678 q 557 631 557 650 q 544 598 557 611 q 515 583 532 585 l 351 592 l 351 17 q 333 -15 351 -1 q 293 -29 315 -29 q 252 -15 269 -29 q 235 17 235 -1 l 235 592 l 71 583 q 31 631 31 586 z "},"‡":{"ha":613,"x_min":43,"x_max":569,"o":"m 43 335 q 54 367 43 354 q 83 382 65 381 l 247 374 l 247 592 l 83 583 q 43 631 43 586 q 54 664 43 650 q 83 679 65 678 l 247 671 l 247 975 q 265 1003 247 990 q 306 1015 282 1015 q 346 1003 328 1015 q 364 975 364 990 l 364 671 l 528 679 q 557 664 544 678 q 569 631 569 650 q 557 598 569 611 q 528 583 544 585 l 364 592 l 364 374 l 528 382 q 557 367 544 381 q 569 335 569 354 q 557 302 569 315 q 528 288 544 289 l 364 296 l 364 17 q 346 -15 364 -1 q 306 -29 328 -29 q 265 -15 282 -29 q 247 17 247 -1 l 247 296 l 83 288 q 43 335 43 290 z "},"•":{"ha":442,"x_min":63,"x_max":379,"o":"m 110 309 q 86 332 110 309 q 63 417 63 356 q 110 524 63 478 q 222 569 158 569 q 332 524 285 569 q 379 417 379 478 q 332 309 379 356 q 222 263 285 263 q 110 309 158 263 z "},"…":{"ha":757,"x_min":51,"x_max":707,"o":"m 51 64 q 72 116 51 94 q 124 138 93 138 q 174 116 153 138 q 194 64 194 94 q 174 13 194 35 q 124 -8 153 -8 q 72 13 93 -8 q 51 64 51 35 m 308 64 q 329 116 308 94 q 381 138 350 138 q 431 116 410 138 q 451 64 451 94 q 431 13 451 35 q 381 -8 410 -8 q 329 13 350 -8 q 308 64 308 35 m 564 64 q 585 116 564 94 q 636 138 606 138 q 686 116 665 138 q 707 64 707 94 q 686 13 707 35 q 636 -8 665 -8 q 585 13 606 -8 q 564 64 564 35 z "},"‰":{"ha":1501,"x_min":50,"x_max":1456,"o":"m 50 643 l 50 851 q 99 976 50 936 q 229 1015 147 1015 q 359 976 310 1015 q 408 851 408 936 l 408 643 q 359 519 408 558 q 229 479 310 479 q 99 519 147 479 q 50 643 50 558 m 133 643 q 229 553 133 553 q 325 643 325 553 l 325 851 q 229 942 325 942 q 133 851 133 942 l 133 643 m 232 0 q 236 18 232 10 l 757 1049 q 792 1069 767 1069 q 824 1056 810 1069 q 839 1024 839 1043 q 835 1004 839 1014 l 315 -19 q 276 -42 306 -42 q 245 -29 258 -42 q 232 0 232 -17 m 654 160 l 654 368 q 703 492 654 453 q 833 532 751 532 q 963 492 914 532 q 1013 368 1013 453 l 1013 160 q 963 35 1013 75 q 833 -4 914 -4 q 703 35 751 -4 q 654 160 654 75 m 738 160 q 833 69 738 69 q 929 160 929 69 l 929 368 q 833 458 929 458 q 738 368 738 458 l 738 160 m 1097 160 l 1097 368 q 1146 492 1097 453 q 1276 532 1194 532 q 1406 492 1357 532 q 1456 368 1456 453 l 1456 160 q 1406 35 1456 75 q 1276 -4 1357 -4 q 1146 35 1194 -4 q 1097 160 1097 75 m 1181 160 q 1276 69 1181 69 q 1372 160 1372 69 l 1372 368 q 1276 458 1372 458 q 1181 368 1181 458 l 1181 160 z "},"‹":{"ha":342,"x_min":44,"x_max":286,"o":"m 64 338 q 44 385 44 374 q 64 432 44 396 l 181 650 q 218 668 192 668 q 265 649 244 668 q 286 610 286 629 q 282 594 286 603 l 169 385 l 282 175 q 286 160 286 169 q 265 122 286 140 q 217 103 243 103 q 181 121 190 103 l 64 338 z "},"›":{"ha":342,"x_min":56,"x_max":297,"o":"m 56 160 q 60 175 56 169 l 172 385 l 60 594 q 56 610 56 603 q 76 649 56 629 q 124 668 97 668 q 161 650 153 668 l 278 432 q 297 385 297 396 q 278 338 297 374 l 161 121 q 125 103 151 103 q 77 122 99 103 q 56 160 56 140 z "},"⁄":{"ha":232,"x_min":-187,"x_max":419,"o":"m -187 0 q -183 18 -187 10 l 338 1049 q 372 1069 347 1069 q 405 1056 390 1069 q 419 1024 419 1043 q 415 1004 419 1014 l -104 -19 q -143 -42 -114 -42 q -174 -29 -161 -42 q -187 0 -187 -17 z "},"⁰":{"ha":476,"x_min":58,"x_max":417,"o":"m 58 643 l 58 851 q 107 976 58 936 q 238 1015 156 1015 q 367 976 318 1015 q 417 851 417 936 l 417 643 q 367 519 417 558 q 238 479 318 479 q 107 519 156 479 q 58 643 58 558 m 142 643 q 238 553 142 553 q 333 643 333 553 l 333 851 q 238 942 333 942 q 142 851 142 942 l 142 643 z "},"⁴":{"ha":408,"x_min":14,"x_max":392,"o":"m 14 632 q 18 649 14 639 l 211 992 q 249 1015 225 1015 q 276 1006 263 1015 q 290 983 290 997 q 288 971 290 979 l 121 679 l 240 679 l 240 771 q 281 797 240 797 q 324 771 324 797 l 324 679 l 364 679 q 392 640 392 679 q 383 613 392 625 q 364 601 375 601 l 324 601 l 324 511 q 281 483 324 483 q 240 511 240 483 l 240 601 l 43 601 q 14 632 14 601 z "},"⁵":{"ha":431,"x_min":35,"x_max":393,"o":"m 35 606 q 76 647 35 647 q 119 614 119 647 q 210 553 122 553 q 308 640 308 553 l 308 654 q 214 742 308 742 l 99 742 q 63 774 63 742 q 64 801 63 790 l 82 988 q 101 1015 86 1015 l 339 1015 q 364 978 364 1015 q 339 942 364 942 l 153 942 l 142 808 l 214 808 q 344 772 296 808 q 393 654 393 735 l 393 640 q 344 518 393 557 q 215 479 294 479 q 83 517 132 479 q 35 606 35 554 z "},"⁶":{"ha":464,"x_min":58,"x_max":417,"o":"m 58 660 l 58 851 q 108 976 58 936 q 242 1015 158 1015 q 371 975 325 1015 q 417 885 417 935 q 378 849 417 849 q 335 881 335 849 q 308 925 335 908 q 240 942 281 942 q 143 851 143 942 l 143 764 q 254 804 178 804 q 417 654 417 804 l 417 643 q 368 519 417 558 q 239 479 319 479 q 58 660 58 479 m 143 638 q 239 549 143 549 q 335 638 335 549 l 335 649 q 238 738 335 738 q 143 656 143 738 l 143 638 z "},"⁷":{"ha":414,"x_min":32,"x_max":390,"o":"m 32 876 l 32 988 q 44 1007 32 999 q 69 1015 56 1015 l 353 1015 q 378 1006 365 1015 q 390 988 390 997 l 390 910 q 375 863 390 888 l 160 493 q 133 481 151 481 q 97 492 113 481 q 82 522 82 504 q 85 536 82 525 l 307 896 l 307 942 l 117 942 l 117 876 q 103 857 117 865 q 74 849 90 849 q 44 857 56 849 q 32 876 32 865 z "},"⁸":{"ha":450,"x_min":46,"x_max":404,"o":"m 46 629 l 46 638 q 139 774 46 742 q 64 886 64 800 q 226 1015 64 1015 q 388 886 388 1015 q 313 774 388 799 q 404 638 404 742 l 404 629 q 356 516 404 553 q 226 479 307 479 q 95 516 144 479 q 46 629 46 553 m 131 638 q 226 547 131 547 q 322 638 322 547 l 322 651 q 226 738 322 738 q 131 651 131 738 l 131 638 m 226 946 q 186 946 226 946 q 146 876 146 946 q 226 807 146 807 q 307 876 307 807 q 226 946 307 946 z "},"⁹":{"ha":464,"x_min":47,"x_max":406,"o":"m 47 610 q 86 644 47 644 q 129 613 129 644 q 157 569 129 585 q 225 553 185 553 q 322 643 322 553 l 322 729 q 210 690 285 690 q 47 839 47 690 l 47 851 q 96 976 47 936 q 226 1015 144 1015 q 356 976 307 1015 q 406 851 406 936 l 406 643 q 356 519 406 558 q 222 479 306 479 q 93 519 139 479 q 47 610 47 558 m 132 843 q 226 757 132 757 q 322 838 322 757 l 322 856 q 226 946 322 946 q 132 856 132 946 l 132 843 z "},"₀":{"ha":472,"x_min":54,"x_max":413,"o":"m 54 160 l 54 368 q 103 492 54 453 q 233 532 151 532 q 363 492 314 532 q 413 368 413 453 l 413 160 q 363 35 413 75 q 233 -4 314 -4 q 103 35 151 -4 q 54 160 54 75 m 138 160 q 233 69 138 69 q 329 160 329 69 l 329 368 q 233 458 329 458 q 138 368 138 458 l 138 160 z "},"₁":{"ha":243,"x_min":19,"x_max":178,"o":"m 19 424 q 36 454 19 444 l 119 526 q 142 533 129 533 q 167 526 156 533 q 178 506 178 518 l 178 28 q 136 0 178 0 q 94 28 94 0 l 94 426 l 67 397 q 49 390 58 390 q 28 401 36 390 q 19 424 19 411 z "},"₂":{"ha":432,"x_min":42,"x_max":392,"o":"m 42 28 l 42 99 q 83 177 42 138 q 173 244 124 217 q 263 310 222 272 q 304 383 304 347 q 282 433 304 411 q 217 456 260 456 q 136 386 136 456 q 124 365 136 374 q 92 356 111 356 q 54 400 54 356 q 101 496 54 460 q 217 532 149 532 q 338 492 289 532 q 388 386 388 451 q 361 306 388 343 q 297 242 335 268 q 220 192 258 215 q 156 146 182 169 q 129 101 129 122 l 129 74 l 364 74 q 383 63 375 74 q 392 38 392 53 q 383 11 392 22 q 364 0 375 0 l 81 0 q 54 8 67 0 q 42 28 42 17 z "},"₃":{"ha":442,"x_min":38,"x_max":396,"o":"m 38 125 q 47 153 38 146 q 76 160 56 160 q 121 129 121 160 q 145 87 121 104 q 215 69 169 69 q 313 156 313 69 l 313 169 q 215 244 313 244 q 188 278 188 244 q 215 311 188 311 q 276 328 256 313 q 297 388 297 344 q 218 460 297 460 q 133 403 133 460 q 94 371 133 371 q 59 378 67 371 q 51 407 51 385 q 90 493 51 454 q 218 532 129 532 q 379 403 379 532 q 315 281 379 308 q 396 169 396 253 l 396 156 q 346 34 396 72 q 214 -4 296 -4 q 83 35 128 -4 q 38 125 38 75 z "}}}
